<svg width="360" height="284" viewBox="0 0 360 284" fill="none" xmlns="http://www.w3.org/2000/svg">
<path d="M136.689 43.9743C137.215 39.6928 136.163 39.7802 132.043 40.1297C95.5752 43.3627 83.4778 19.5959 54.2864 5.528C42.5397 -0.151574 30.7054 -0.76322 18.4327 0.634828C13.5236 1.68336 7.47496 1.50861 6.86133 6.66391C4.8451 22.392 2.91654 40.1297 1.1633 55.0714C0.724993 58.916 -0.940582 71.411 0.724993 71.2363C44.9942 66.2557 68.7506 111.867 108.198 112.217C118.104 112.304 133.094 111.168 135.549 108.285C140.37 102.692 134.409 63.0228 136.689 43.9743Z" fill="#28B482"/>
<path d="M15.5423 20.5578C15.2793 16.7131 16.7696 12.6064 17.4709 8.84912C17.7339 7.3637 16.0683 6.31516 14.841 7.10156C13.8767 7.80059 13.6138 7.97534 12.6495 8.67437C10.9839 9.81028 12.9125 11.2957 14.6657 10.2472C13.9644 13.1306 12.8248 18.0238 13.0001 20.9073C13.0878 23.0917 15.7176 22.7422 15.5423 20.5578Z" fill="#A5E1D2"/>
<path d="M25.8027 5.88106H25.715C24.2247 5.7063 22.6468 6.05582 21.3319 7.27911C18.1761 10.25 17.2995 16.6286 19.6663 19.8616C22.1209 23.2693 27.5559 21.9586 29.3968 17.415C31.3254 12.6965 30.1858 5.7063 25.8027 5.88106ZM21.5072 17.3276C20.3676 15.2305 20.7183 11.8228 22.3838 9.81307C23.1728 8.85191 23.9618 8.06551 25.6273 8.58978C27.8189 9.20143 28.5202 12.7839 27.2053 16.1043C25.8903 19.2499 22.9098 19.9489 21.5072 17.3276Z" fill="#A5E1D2"/>
<path d="M42.1908 18.5479C44.0317 13.8295 42.7168 6.92665 38.4213 7.10141H38.3337C36.8434 6.92665 35.2655 7.36354 33.9506 8.58683C30.8824 11.6451 30.0935 18.0237 32.548 21.2566C35.0902 24.577 40.4376 23.179 42.1908 18.5479ZM34.3889 18.7227C33.2493 16.6256 33.5123 13.1305 35.0902 11.1208C35.8791 10.0723 36.8434 9.46061 38.0707 9.8975C40.2622 10.5965 41.4018 14.0043 40.0869 17.412C38.8596 20.5576 35.8791 21.2566 34.3889 18.7227Z" fill="#A5E1D2"/>
<path d="M242.847 217.945C246.704 220.828 248.457 221.789 250.649 217.857C270.899 181.333 291.061 195.751 324.372 180.984C337.785 175.042 346.901 166.741 354.44 155.47C359.525 146.47 362.33 146.732 357.508 141.576C345.411 128.732 330.421 116.062 315.781 106.014C312.187 103.567 307.454 101.994 305.437 104.965C277.736 145.334 238.902 121.829 210.324 154.683C203.136 162.984 192.003 177.664 192.266 178.974C192.616 180.547 225.227 204.489 242.847 217.945Z" fill="#A5E1D2"/>
<path d="M328.763 160.102C327.624 157.48 325.52 155.646 322.539 155.296C320.874 155.121 319.383 155.383 317.893 156.17C317.367 156.432 316.841 156.956 316.315 157.48C315.526 156.257 314.65 155.034 313.773 153.898C316.578 152.675 319.296 150.927 321.049 148.568C322.276 146.908 319.383 145.51 318.156 147.082C316.49 149.354 313.422 150.84 310.705 151.713C310.354 151.801 310.091 151.976 309.916 152.238C309.478 152.675 309.215 153.374 309.741 154.073C311.318 156.257 313.159 158.442 314.474 160.801C314.913 161.587 315.965 161.675 316.753 161.325C317.542 160.976 317.981 160.014 318.682 159.49C320.435 158.179 322.539 158.092 324.205 159.403C328.15 162.461 324.555 168.927 319.734 166.743C317.805 165.869 316.315 168.665 318.156 169.539C324.643 172.335 331.568 166.48 328.763 160.102Z" fill="#28B482"/>
<path d="M346.293 146.562C343.05 141.756 334.722 139.484 331.04 144.814L330.953 144.902C329.462 146.649 328.498 148.746 328.673 151.018C329.024 156.435 335.073 160.892 340.508 159.668C346.206 158.358 349.449 151.193 346.293 146.562ZM339.28 156.261C336.125 156.523 332.706 154.338 332.005 151.28C331.654 149.795 331.829 148.222 333.758 146.387C336.3 144.028 340.946 144.727 343.313 148.135C345.504 151.455 343.225 155.999 339.28 156.261Z" fill="#28B482"/>
<rect x="75" width="201" height="284" rx="8" fill="#14555A"/>
<path d="M258.537 67.7401H92.242C89.0861 67.7401 86.5439 65.2062 86.5439 62.0606V20.2938C86.5439 17.1482 89.0861 14.6143 92.242 14.6143H258.537C261.692 14.6143 264.235 17.1482 264.235 20.2938V61.9732C264.235 65.1188 261.692 67.7401 258.537 67.7401Z" fill="#A5E1D2"/>
<path d="M102.146 114.843H100.392C93.2918 114.843 87.5938 109.076 87.5938 102.086V100.338C87.5938 93.2606 93.3794 87.5811 100.392 87.5811H102.146C109.246 87.5811 114.944 93.348 114.944 100.338V102.086C115.032 109.163 109.246 114.843 102.146 114.843Z" fill="#28B482"/>
<path d="M138.966 114.843H137.213C130.113 114.843 124.415 109.076 124.415 102.086V100.338C124.415 93.2606 130.2 87.5811 137.213 87.5811H138.966C146.067 87.5811 151.765 93.348 151.765 100.338V102.086C151.853 109.163 146.067 114.843 138.966 114.843Z" fill="#28B482"/>
<path d="M176.398 114.843H174.644C167.544 114.843 161.846 109.076 161.846 102.086V100.338C161.846 93.2606 167.631 87.5811 174.644 87.5811H176.398C183.498 87.5811 189.196 93.348 189.196 100.338V102.086C189.196 109.163 183.498 114.843 176.398 114.843Z" fill="#28B482"/>
<path d="M213.216 114.843H211.463C204.363 114.843 198.665 109.076 198.665 102.086V100.338C198.665 93.2606 204.45 87.5811 211.463 87.5811H213.216C220.317 87.5811 226.015 93.348 226.015 100.338V102.086C226.015 109.163 220.317 114.843 213.216 114.843Z" fill="#28B482"/>
<path d="M250.301 114.843H248.548C241.448 114.843 235.75 109.076 235.75 102.086V100.338C235.75 93.2606 241.535 87.5811 248.548 87.5811H250.301C257.402 87.5811 263.1 93.348 263.1 100.338V102.086C263.188 109.163 257.402 114.843 250.301 114.843Z" fill="#28B482"/>
<path d="M151.853 248.527V250.274C151.853 257.352 146.067 263.032 139.054 263.032H137.301C130.2 263.032 124.502 257.265 124.502 250.274V248.527C124.502 241.449 130.288 235.77 137.301 235.77H139.054C146.067 235.77 151.853 241.449 151.853 248.527Z" fill="#28B482"/>
<path d="M115.038 248.527V250.274C115.038 257.352 109.252 263.032 102.239 263.032H100.486C93.385 263.032 87.687 257.265 87.687 250.274V248.527C87.687 241.449 93.4727 235.77 100.486 235.77H102.239C109.252 235.77 115.038 241.449 115.038 248.527Z" fill="#28B482"/>
<path d="M115.038 211.306V213.054C115.038 220.131 109.252 225.811 102.239 225.811H100.486C93.385 225.811 87.687 220.044 87.687 213.054V211.306C87.687 204.228 93.4727 198.549 100.486 198.549H102.239C109.252 198.461 115.038 204.228 115.038 211.306Z" fill="#28B482"/>
<path d="M115.038 174.609V176.356C115.038 183.434 109.252 189.114 102.239 189.114H100.486C93.385 189.114 87.687 183.347 87.687 176.356V174.609C87.687 167.531 93.4727 161.852 100.486 161.852H102.239C109.252 161.764 115.038 167.531 115.038 174.609Z" fill="#28B482"/>
<path d="M188.938 248.527V250.274C188.938 257.352 183.152 263.032 176.139 263.032H174.386C167.285 263.032 161.587 257.265 161.587 250.274V248.527C161.587 241.449 167.373 235.77 174.386 235.77H176.139C183.24 235.77 188.938 241.449 188.938 248.527Z" fill="#28B482"/>
<path d="M263.188 137.555V139.303C263.188 146.38 257.402 152.06 250.389 152.06H248.636C241.535 152.06 235.837 146.293 235.837 139.303V137.555C235.837 130.477 241.623 124.798 248.636 124.798H250.389C257.402 124.798 263.188 130.565 263.188 137.555Z" fill="#28B482"/>
<path d="M263.188 211.568V250.276C263.188 257.354 257.402 263.033 250.389 263.033H248.636C241.535 263.033 235.837 257.266 235.837 250.276V211.568C235.837 204.49 241.623 198.811 248.636 198.811H250.389C257.402 198.811 263.188 204.49 263.188 211.568Z" fill="#28B482"/>
<path d="M139.23 152.148H137.477C130.376 152.148 124.678 146.381 124.678 139.39V137.643C124.678 130.565 130.464 124.886 137.477 124.886H139.23C146.331 124.886 152.029 130.653 152.029 137.643V139.39C152.116 146.381 146.331 152.148 139.23 152.148Z" fill="#A5E1D2"/>
<path d="M176.661 152.148H174.908C167.807 152.148 162.109 146.381 162.109 139.39V137.643C162.109 130.565 167.895 124.886 174.908 124.886H176.661C183.762 124.886 189.46 130.653 189.46 137.643V139.39C189.46 146.381 183.762 152.148 176.661 152.148Z" fill="#A5E1D2"/>
<path d="M213.48 152.148H211.726C204.626 152.148 198.928 146.381 198.928 139.39V137.643C198.928 130.565 204.713 124.886 211.726 124.886H213.48C220.58 124.886 226.278 130.653 226.278 137.643V139.39C226.366 146.381 220.58 152.148 213.48 152.148Z" fill="#A5E1D2"/>
<path d="M139.582 189.113H137.829C130.728 189.113 125.03 183.346 125.03 176.355V174.608C125.03 167.53 130.816 161.851 137.829 161.851H139.582C146.683 161.851 152.381 167.618 152.381 174.608V176.355C152.381 183.433 146.595 189.113 139.582 189.113Z" fill="#A5E1D2"/>
<path d="M176.925 189.113H175.172C168.072 189.113 162.374 183.346 162.374 176.355V174.608C162.374 167.53 168.159 161.851 175.172 161.851H176.925C184.026 161.851 189.724 167.618 189.724 174.608V176.355C189.724 183.433 184.026 189.113 176.925 189.113Z" fill="#A5E1D2"/>
<path d="M213.738 189.113H211.985C204.885 189.113 199.187 183.346 199.187 176.355V174.608C199.187 167.53 204.972 161.851 211.985 161.851H213.738C220.839 161.851 226.537 167.618 226.537 174.608V176.355C226.625 183.433 220.839 189.113 213.738 189.113Z" fill="#A5E1D2"/>
<path d="M139.582 225.81H137.829C130.728 225.81 125.03 220.043 125.03 213.053V211.305C125.03 204.227 130.816 198.548 137.829 198.548H139.582C146.683 198.548 152.381 204.315 152.381 211.305V213.053C152.381 220.13 146.595 225.81 139.582 225.81Z" fill="#A5E1D2"/>
<path d="M176.925 225.81H175.172C168.072 225.81 162.374 220.043 162.374 213.053V211.305C162.374 204.227 168.159 198.548 175.172 198.548H176.925C184.026 198.548 189.724 204.315 189.724 211.305V213.053C189.724 220.13 184.026 225.81 176.925 225.81Z" fill="#A5E1D2"/>
<path d="M213.738 225.81H211.985C204.885 225.81 199.187 220.043 199.187 213.053V211.305C199.187 204.227 204.972 198.548 211.985 198.548H213.738C220.839 198.548 226.537 204.315 226.537 211.305V213.053C226.625 220.13 220.839 225.81 213.738 225.81Z" fill="#A5E1D2"/>
<path d="M213.738 263.118H211.985C204.885 263.118 199.187 257.352 199.187 250.361V248.614C199.187 241.536 204.972 235.856 211.985 235.856H213.738C220.839 235.856 226.537 241.623 226.537 248.614V250.361C226.625 257.352 220.839 263.118 213.738 263.118Z" fill="#A5E1D2"/>
<path d="M233.113 23.4395L236.006 26.4104H247.051L249.506 23.4395L247.051 20.2939H236.006L233.113 23.4395Z" fill="#14555A"/>
<path d="M233.113 59.0909L236.006 62.0618H247.051L249.506 59.0909L247.051 55.9453H236.006L233.113 59.0909Z" fill="#14555A"/>
<path d="M232.243 40.5702L235.223 37.6867V26.6771L232.243 24.2305L229 26.6771V37.6867L232.243 40.5702Z" fill="#14555A"/>
<path d="M232.243 58.3026L235.223 55.3317V44.3221L232.243 41.9629L229 44.3221V55.3317L232.243 58.3026Z" fill="#14555A"/>
<path d="M250.82 40.3075L247.839 37.424V26.4144L250.82 23.9678L253.976 26.4144V37.424L250.82 40.3075Z" fill="#14555A"/>
<path d="M250.82 58.0399L247.839 55.069V44.0594L250.82 41.7002L253.976 44.0594V55.069L250.82 58.0399Z" fill="#14555A"/>
<g opacity="0.1">
<path opacity="0.1" d="M86.5439 20.2065V54.7208C92.5926 49.3907 98.8166 44.2354 105.83 40.0413C113.807 35.2355 123.099 31.8277 132.742 31.653C137.213 31.5656 141.596 32.1772 145.979 32.4394C164.3 33.6627 182.972 29.7307 198.576 21.255C202.258 19.2453 205.939 16.9735 210.06 15.7502C211.55 15.3133 213.215 14.9638 214.793 14.6143H92.6803C89.2615 14.6143 86.5439 17.1482 86.5439 20.2065Z" fill="#00343E"/>
</g>
<path d="M62.602 196.447C65.4948 200.904 59.9721 209.729 50.154 216.108C40.3359 222.486 29.9918 224.146 27.0989 219.69C26.3976 218.729 23.3295 214.884 23.5048 213.486C24.0308 208.768 32.008 205.01 39.5469 200.03C47.5241 194.787 53.7481 189.195 58.1312 190.943C59.1832 191.38 62.076 195.574 62.602 196.447Z" fill="#007272"/>
<path d="M47.1261 211.835C56.9555 205.391 62.5515 196.572 59.6251 192.137C56.6987 187.702 46.358 189.33 36.5287 195.774C26.6993 202.218 21.1033 211.037 24.0297 215.472C26.9561 219.907 37.2967 218.279 47.1261 211.835Z" fill="#A5E1D2"/>
<path d="M111.874 143.06C110.734 150.051 97.1465 153.72 81.5427 151.099C65.9389 148.478 54.2798 140.701 55.5071 133.711C55.7701 132.138 56.2084 125.497 57.611 124.274C62.4324 120.167 73.7408 123.575 85.8381 125.585C98.4615 127.682 109.77 127.769 112.487 133.536C113.101 134.934 112.049 141.75 111.874 143.06Z" fill="#007272"/>
<path d="M112.897 136.151C114.074 129.106 102.407 121.3 86.8391 118.715C71.2707 116.13 57.6956 119.746 56.5183 126.791C55.3411 133.836 67.0074 141.642 82.5758 144.227C98.1442 146.812 111.719 143.196 112.897 136.151Z" fill="#A5E1D2"/>
<path d="M112.897 136.151C114.074 129.106 102.407 121.3 86.8391 118.715C71.2707 116.13 57.6956 119.746 56.5183 126.791C55.3411 133.836 67.0074 141.642 82.5758 144.227C98.1442 146.812 111.719 143.196 112.897 136.151Z" fill="#007272" fill-opacity="0.4"/>
<path d="M325.872 245.209C323.505 249.491 313.95 248.792 304.482 243.636C295.015 238.481 289.229 230.879 291.508 226.598C292.034 225.637 293.788 221.442 295.015 221.006C299.047 219.433 305.622 224.151 312.898 228.171C320.612 232.365 327.888 234.899 328.326 239.268C328.502 240.229 326.31 244.423 325.872 245.209Z" fill="#007272"/>
<path d="M328.043 241.002C330.382 236.721 324.591 229.08 315.11 223.934C305.628 218.787 296.046 218.086 293.708 222.366C291.37 226.646 297.16 234.288 306.642 239.434C316.123 244.58 325.705 245.282 328.043 241.002Z" fill="#A5E1D2"/>
<path d="M291.492 175.48C292.106 181.946 281.06 188.324 266.771 189.722C252.482 191.12 240.297 187.014 239.684 180.548C239.508 179.062 238.369 173.208 239.333 171.81C242.577 167.004 253.359 167.441 264.492 166.305C276.151 165.169 286.057 162.548 289.826 167.004C290.615 168.052 291.317 174.256 291.492 175.48Z" fill="#007272"/>
<path d="M265.921 183.468C280.231 182.064 291.312 175.67 290.672 169.186C290.031 162.702 277.912 158.585 263.602 159.989C249.292 161.394 238.21 167.788 238.851 174.272C239.491 180.755 251.611 184.873 265.921 183.468Z" fill="#A5E1D2"/>
<path d="M265.921 183.468C280.231 182.064 291.312 175.67 290.672 169.186C290.031 162.702 277.912 158.585 263.602 159.989C249.292 161.394 238.21 167.788 238.851 174.272C239.491 180.755 251.611 184.873 265.921 183.468Z" fill="#007272" fill-opacity="0.4"/>
</svg>
