<svg width="464" height="340" viewBox="0 0 464 340" fill="none" xmlns="http://www.w3.org/2000/svg">
<path d="M143.266 16.0893C159 1.97323 183.72 -0.910693 206.211 0.22264C276.865 3.75419 340.641 38.0476 395.805 76.8542C415.773 90.8994 435.438 106.048 448.406 125.426C474.807 164.799 466.976 219.351 430.281 251.792C417.789 262.832 402.654 271.292 387.123 278.8C359.495 292.127 329.689 302.833 298.333 305.879C275.974 308.054 253.361 306.283 231.113 303.258C168.999 294.788 108.04 276.058 56.949 244.001C34.5289 229.945 13.3852 212.48 4.16585 189.722C-5.05348 166.964 0.842859 138.176 23.719 124.707C33.1916 119.142 44.4979 116.612 55.5813 114.264C71.8925 110.793 88.4569 107.373 103.198 100.31C118.394 93.0143 136.397 78.8982 133.388 62.7482C130.126 45.3941 127.543 30.175 143.266 16.0893Z" fill="#F2F4EC"/>
<path opacity="0.1" d="M334.168 294.13L285.893 312.77L215.33 340C212.665 335.062 208.744 328.312 203.881 320.298C187.165 292.653 159.517 249.647 134.899 211.862C107.159 169.282 83.2905 133.329 83.2905 133.329L100.574 128.33L241.741 87.4589L334.168 294.13Z" fill="black"/>
<path d="M335.13 290.761L286.855 309.41L216.291 336.63C213.627 331.702 209.706 324.953 204.843 316.939C188.127 289.293 160.479 246.288 135.86 208.493C108.121 165.922 84.2524 129.959 84.2524 129.959L101.536 124.98L242.703 84.1095L335.13 290.761Z" fill="#14555A"/>
<path opacity="0.1" d="M335.13 290.761L286.855 309.41C259.892 315.018 232.378 317.544 204.844 316.939C188.127 289.293 160.48 246.287 135.861 208.493L101.537 124.98L242.704 84.1095L335.13 290.761Z" fill="black"/>
<path d="M371.055 279.164C371.055 279.164 296.085 323.455 184.075 313.458L94.7993 96.222L137.573 88.8857L285.487 63.5274L369.404 275.015L371.055 279.164Z" fill="#007272"/>
<path opacity="0.1" d="M369.383 274.965C349.818 276.032 330.197 275.477 310.724 273.305C288.435 270.705 266.147 265.311 246.898 255.445C230.86 247.198 217.153 238.243 205.188 227.476C174.095 199.558 154.846 159.618 137.562 88.8452L285.477 63.4869L369.383 274.965Z" fill="black"/>
<path d="M424.396 262.822C424.396 262.822 369.09 273.639 312.842 266.981C290.553 264.36 268.265 258.987 249.016 249.121C232.978 240.864 219.26 231.918 207.306 221.152C168.807 186.565 148.484 133.612 127.533 26.6232C127.533 26.6232 219.453 48.7637 310.279 0.263107C310.309 0.263107 340.945 191.118 424.396 262.822Z" fill="#A5E1D2"/>
<path opacity="0.1" d="M312.841 266.981C290.553 264.36 268.264 258.987 249.015 249.121C232.977 240.864 219.26 231.918 207.305 221.152C240.069 218.49 244.79 200.61 244.79 200.61C269.115 239.103 312.841 266.981 312.841 266.981Z" fill="#00343E"/>
<path d="M175.099 72.1691C175.11 71.3701 175.282 70.5815 175.604 69.8501C175.926 69.1187 176.392 68.4594 176.974 67.9111C177.556 67.3629 178.242 66.9369 178.992 66.6584C179.742 66.3799 180.54 66.2546 181.339 66.2899C195.3 66.8161 230.506 66.0572 265.124 48.5512C265.803 48.1993 266.55 47.9989 267.315 47.9641C268.079 47.9293 268.841 48.0608 269.55 48.3496C270.258 48.6383 270.895 49.0774 271.416 49.6364C271.938 50.1954 272.332 50.8609 272.57 51.5869C272.946 52.7258 272.886 53.9634 272.401 55.0605C271.916 56.1576 271.042 57.0363 269.946 57.5268C258.488 62.5863 223.181 76.5 180.701 77.6637C179.97 77.6785 179.243 77.5473 178.563 77.2777C177.883 77.0081 177.264 76.6055 176.743 76.0937C176.221 75.5818 175.806 74.971 175.524 74.297C175.242 73.6231 175.097 72.8996 175.099 72.1691Z" fill="#14555A"/>
<path d="M175.099 118.666C175.097 117.943 175.362 117.244 175.845 116.704C176.327 116.164 176.992 115.822 177.712 115.742C188.35 114.537 230.03 108.658 276.197 86.9429C276.54 86.7809 276.911 86.6891 277.29 86.6728C277.668 86.6566 278.046 86.7163 278.401 86.8483C278.756 86.9804 279.081 87.1821 279.357 87.4417C279.633 87.7012 279.854 88.0133 280.006 88.3595C280.223 88.8127 280.293 89.3216 280.208 89.8163C280.122 90.311 279.886 90.7672 279.53 91.122C274.323 96.1815 250.018 115.479 178.219 121.479C177.827 121.51 177.433 121.46 177.061 121.333C176.688 121.206 176.346 121.005 176.054 120.742C175.762 120.479 175.527 120.159 175.362 119.802C175.198 119.445 175.108 119.059 175.099 118.666Z" fill="#14555A"/>
<path d="M180.914 138.226C180.912 137.497 181.18 136.793 181.666 136.25C182.153 135.706 182.823 135.361 183.548 135.282C194.216 134.077 235.865 128.198 282.013 106.493C282.356 106.332 282.728 106.241 283.107 106.226C283.486 106.21 283.864 106.27 284.22 106.402C284.575 106.534 284.901 106.735 285.178 106.994C285.454 107.253 285.677 107.564 285.832 107.91C286.048 108.363 286.119 108.872 286.033 109.366C285.948 109.861 285.711 110.317 285.356 110.672C280.148 115.732 255.844 135.049 184.045 141.09C183.648 141.119 183.25 141.067 182.874 140.936C182.499 140.806 182.154 140.601 181.861 140.333C181.568 140.064 181.333 139.739 181.17 139.377C181.007 139.015 180.92 138.623 180.914 138.226Z" fill="#14555A"/>
<path d="M186.243 159.284C186.241 158.558 186.508 157.856 186.992 157.315C187.476 156.773 188.144 156.429 188.867 156.349C199.535 155.145 241.184 149.266 287.341 127.561C287.683 127.398 288.054 127.306 288.432 127.289C288.81 127.272 289.188 127.331 289.543 127.462C289.898 127.593 290.223 127.794 290.499 128.052C290.775 128.311 290.997 128.622 291.151 128.967C291.366 129.422 291.436 129.933 291.351 130.429C291.266 130.925 291.029 131.383 290.674 131.74C285.467 136.799 261.142 156.107 189.363 162.158C188.967 162.185 188.569 162.132 188.194 162C187.819 161.869 187.475 161.662 187.182 161.393C186.89 161.124 186.656 160.798 186.495 160.435C186.333 160.073 186.247 159.681 186.243 159.284Z" fill="#14555A"/>
<path d="M192.554 177.346C192.555 176.618 192.823 175.915 193.309 175.372C193.795 174.829 194.464 174.484 195.188 174.402C205.856 173.198 247.505 167.318 293.653 145.613C293.996 145.451 294.368 145.359 294.747 145.343C295.127 145.326 295.505 145.386 295.861 145.518C296.217 145.65 296.543 145.852 296.82 146.111C297.096 146.371 297.318 146.683 297.472 147.03C297.688 147.483 297.759 147.992 297.673 148.487C297.588 148.981 297.351 149.437 296.996 149.792C291.789 154.852 267.484 174.159 195.685 180.22C195.287 180.249 194.888 180.197 194.512 180.066C194.136 179.935 193.791 179.729 193.497 179.459C193.204 179.19 192.969 178.864 192.807 178.5C192.645 178.137 192.559 177.744 192.554 177.346Z" fill="#14555A"/>
<path d="M198.38 196.907C198.38 196.178 198.649 195.476 199.135 194.933C199.621 194.389 200.289 194.044 201.014 193.962C211.682 192.758 253.331 186.879 299.478 165.183C299.821 165.021 300.193 164.928 300.571 164.911C300.95 164.894 301.329 164.953 301.684 165.084C302.04 165.215 302.366 165.416 302.643 165.674C302.92 165.933 303.143 166.244 303.298 166.59C303.514 167.043 303.584 167.552 303.499 168.047C303.414 168.541 303.177 168.998 302.822 169.352C297.614 174.412 273.31 193.719 201.51 199.78C201.113 199.809 200.714 199.757 200.338 199.626C199.962 199.495 199.616 199.289 199.323 199.02C199.03 198.75 198.795 198.424 198.633 198.061C198.47 197.697 198.384 197.304 198.38 196.907Z" fill="#F2F4EC"/>
<path d="M302.68 81.4077C302.68 77.4063 299.432 74.1625 295.426 74.1625C291.42 74.1625 288.172 77.4063 288.172 81.4077C288.172 85.4092 291.42 88.653 295.426 88.653C299.432 88.653 302.68 85.4092 302.68 81.4077Z" fill="#F2F4EC"/>
<path d="M297.098 104.459C297.561 105.815 298.416 107.003 299.555 107.874C300.695 108.745 302.067 109.258 303.498 109.35C304.93 109.442 306.356 109.108 307.598 108.39C308.839 107.672 309.839 106.603 310.472 105.317C311.105 104.031 311.343 102.587 311.154 101.167C310.965 99.7463 310.359 98.4138 309.412 97.3375C308.466 96.2612 307.221 95.4894 305.835 95.1198C304.449 94.7501 302.984 94.7992 301.626 95.2607C299.806 95.8823 298.306 97.1999 297.457 98.9244C296.608 100.649 296.479 102.639 297.098 104.459Z" fill="#F2F4EC"/>
<path d="M323.724 141.371C323.735 137.37 320.497 134.117 316.491 134.106C312.484 134.095 309.228 137.33 309.217 141.331C309.205 145.332 312.444 148.585 316.45 148.596C320.456 148.608 323.713 145.373 323.724 141.371Z" fill="#F2F4EC"/>
<path d="M330.917 162.448C330.928 158.446 327.69 155.193 323.684 155.182C319.677 155.171 316.421 158.406 316.409 162.407C316.398 166.408 319.637 169.661 323.643 169.672C327.649 169.684 330.906 166.449 330.917 162.448Z" fill="#F2F4EC"/>
<path d="M317.568 123.319C317.579 119.318 314.341 116.065 310.334 116.054C306.328 116.043 303.071 119.277 303.06 123.279C303.049 127.28 306.288 130.533 310.294 130.544C314.3 130.555 317.557 127.321 317.568 123.319Z" fill="#F2F4EC"/>
<path d="M296.257 82.7738L289.743 79.6167C289.653 79.5676 289.572 79.5063 289.499 79.4345C289.432 79.3578 289.38 79.2683 289.347 79.1714C289.274 78.9758 289.274 78.76 289.347 78.5643L290.036 77.1578C290.083 77.0644 290.149 76.9818 290.229 76.9149C290.305 76.8437 290.394 76.7886 290.492 76.753C290.593 76.7377 290.695 76.7377 290.796 76.753C290.898 76.765 290.997 76.7923 291.09 76.8339L295.467 78.9691L300.036 69.619C300.125 69.4306 300.285 69.2851 300.481 69.2143C300.673 69.1382 300.887 69.1382 301.079 69.2143L302.498 69.9024C302.589 69.948 302.671 70.0097 302.741 70.0845C302.808 70.1613 302.86 70.2507 302.893 70.3476C302.917 70.4473 302.917 70.5515 302.893 70.6512C302.891 70.7543 302.863 70.8553 302.812 70.9447L297.219 82.4197C297.17 82.5112 297.105 82.5934 297.027 82.6625C296.95 82.7305 296.861 82.7822 296.763 82.8143C296.663 82.8347 296.56 82.8347 296.459 82.8143C296.39 82.8102 296.322 82.7966 296.257 82.7738Z" fill="#00343E"/>
<path d="M310.44 123.21L303.926 120.052C303.834 120.007 303.752 119.945 303.682 119.87C303.615 119.794 303.563 119.704 303.53 119.607C303.511 119.507 303.511 119.404 303.53 119.304C303.534 119.202 303.558 119.102 303.601 119.01L304.29 117.593C304.384 117.407 304.548 117.265 304.746 117.199C304.841 117.158 304.942 117.138 305.045 117.138C305.148 117.138 305.249 117.158 305.344 117.199L309.721 119.334L314.28 109.974C314.324 109.879 314.388 109.795 314.466 109.725C314.545 109.656 314.636 109.602 314.735 109.569C314.928 109.494 315.141 109.494 315.333 109.569L316.741 110.257C316.833 110.303 316.915 110.365 316.985 110.439C317.052 110.516 317.104 110.605 317.137 110.702C317.173 110.799 317.19 110.902 317.187 111.006C317.175 111.11 317.147 111.213 317.106 111.31L311.504 122.774C311.409 122.96 311.245 123.102 311.048 123.169C310.953 123.209 310.851 123.229 310.749 123.229C310.646 123.229 310.545 123.209 310.45 123.169L310.44 123.21Z" fill="#00343E"/>
<path d="M304.068 103.285L297.584 100.118C297.395 100.029 297.25 99.8687 297.179 99.6726C297.103 99.4809 297.103 99.2673 297.179 99.0756L297.868 97.6589C297.913 97.5677 297.975 97.4854 298.05 97.4161C298.127 97.3485 298.216 97.2969 298.313 97.2643C298.413 97.2399 298.517 97.2399 298.617 97.2643C298.719 97.2675 298.819 97.2916 298.911 97.3351L303.288 99.4702L307.857 90.1C307.906 90.011 307.967 89.9292 308.039 89.8571C308.123 89.7947 308.215 89.7437 308.313 89.7054C308.41 89.6898 308.509 89.6898 308.607 89.7054C308.713 89.7106 308.816 89.7382 308.911 89.7863L310.319 90.4744C310.507 90.5635 310.653 90.7236 310.724 90.9196C310.8 91.1149 310.8 91.3315 310.724 91.5268L305.121 103.002C305.072 103.093 305.007 103.176 304.929 103.245C304.772 103.381 304.569 103.45 304.362 103.437C304.26 103.434 304.16 103.41 304.068 103.366V103.285Z" fill="#00343E"/>
<path d="M316.6 141.474L310.106 138.307C310.014 138.262 309.932 138.2 309.862 138.125C309.795 138.048 309.743 137.959 309.711 137.862C309.691 137.762 309.691 137.659 309.711 137.558C309.717 137.456 309.745 137.356 309.792 137.265L310.48 135.848C310.523 135.755 310.585 135.672 310.663 135.605C310.737 135.534 310.827 135.481 310.926 135.454C311.026 135.429 311.13 135.429 311.23 135.454C311.332 135.457 311.432 135.481 311.524 135.524L315.901 137.66L320.47 128.31C320.559 128.121 320.719 127.976 320.916 127.905C321.111 127.829 321.328 127.829 321.523 127.905L322.932 128.593C323.021 128.642 323.103 128.703 323.175 128.775C323.242 128.852 323.294 128.941 323.327 129.038C323.351 129.138 323.351 129.242 323.327 129.342C323.325 129.447 323.301 129.55 323.256 129.645L317.653 141.11C317.559 141.296 317.395 141.438 317.197 141.505C317.002 141.571 316.788 141.56 316.6 141.474Z" fill="#00343E"/>
</svg>
