<svg width="128" height="109" viewBox="0 0 128 109" fill="none" xmlns="http://www.w3.org/2000/svg">
<g clip-path="url(#clip0_43872_319399)">
<path d="M103.122 16.7782V10.3217C103.195 8.3196 103.847 6.38155 104.997 4.74148C106.148 3.10141 107.749 1.82944 109.606 1.0791C111.464 0.328757 113.499 0.13213 115.466 0.512951C117.433 0.893773 119.247 1.83576 120.691 3.22521C122.624 5.09203 123.758 7.63597 123.853 10.3217V17.6817H120.408V10.3217C120.448 9.38887 120.299 8.45767 119.969 7.58411C119.64 6.71056 119.137 5.91272 118.491 5.23862C117.845 4.56452 117.069 4.02809 116.21 3.66164C115.351 3.29518 114.427 3.10626 113.494 3.10626C112.56 3.10626 111.636 3.29518 110.777 3.66164C109.919 4.02809 109.143 4.56452 108.497 5.23862C107.851 5.91272 107.348 6.71056 107.019 7.58411C106.689 8.45767 106.54 9.38887 106.579 10.3217V17.6817H103.128V16.7782H103.122Z" fill="#00B77E"/>
<path fill-rule="evenodd" clip-rule="evenodd" d="M128 19.8212V33.9953C127.996 35.8276 127.265 37.5835 125.97 38.8791C124.674 40.1747 122.918 40.9048 121.086 40.9098H105.889C104.057 40.9048 102.301 40.1747 101.005 38.8791C99.7097 37.5835 98.9796 35.8276 98.9746 33.9953V19.8212C98.9779 19.5161 99.1019 19.2247 99.3194 19.0107C99.5369 18.7967 99.8303 18.6775 100.135 18.6792H126.859C127.161 18.6792 127.452 18.7995 127.666 19.0137C127.88 19.2278 128 19.5183 128 19.8212Z" fill="#00B77E"/>
<path opacity="0.2" fill-rule="evenodd" clip-rule="evenodd" d="M112.051 20.8314C114.184 19.8024 116.443 19.0745 118.777 18.6792H100.135C99.8303 18.6775 99.5369 18.7967 99.3194 19.0107C99.1019 19.2247 98.9779 19.5161 98.9746 19.8212V33.9953C98.9943 35.3826 99.4316 36.7317 100.23 37.8667C99.1754 31.8682 103.994 24.6776 112.051 20.8251V20.8314Z" fill="#00565B"/>
<path d="M113.492 30.1801C113.851 30.1976 114.21 30.1419 114.547 30.0166C114.883 29.8913 115.191 29.6988 115.452 29.4509C115.712 29.203 115.919 28.9049 116.061 28.5745C116.202 28.2442 116.275 27.8885 116.275 27.5291C116.275 27.1697 116.202 26.814 116.061 26.4837C115.919 26.1533 115.712 25.8552 115.452 25.6073C115.191 25.3594 114.883 25.167 114.547 25.0416C114.21 24.9163 113.851 24.8607 113.492 24.8781C112.788 24.8781 112.113 25.1578 111.615 25.6555C111.118 26.1533 110.838 26.8283 110.838 27.5323C110.838 28.2362 111.118 28.9113 111.615 29.409C112.113 29.9067 112.788 30.1864 113.492 30.1864V30.1801Z" fill="white"/>
<path d="M112.001 29.7168H114.994L116.136 33.1741H110.847L112.001 29.7168Z" fill="white"/>
<path d="M24.8579 83.451C25.1905 83.3067 24.6195 83.5451 24.8579 83.451V83.451Z" fill="#00B77E"/>
<path d="M24.8579 83.451C25.1905 83.3067 24.6195 83.5451 24.8579 83.451V83.451Z" fill="#92E2D0"/>
<path d="M16.6405 83.2626C16.5965 83.2626 16.5463 83.3065 16.5024 83.3065C16.6906 83.2563 16.6907 83.2563 16.6405 83.2563V83.2626ZM7.09065 86.174C6.7079 86.2681 7.4232 86.174 7.09065 86.174V86.174Z" fill="#00B77E"/>
<path d="M2.74067 82.3965C8.61361 73.9322 14.1101 65.1855 20.1775 56.8216C20.943 55.7674 21.7085 54.7635 22.4677 53.7094C22.656 53.471 22.8065 53.2325 22.9948 52.9941C23.0889 52.9 23.183 52.7557 23.2834 52.6616C23.6599 52.0843 23.4716 52.9941 22.3297 52.9941C22.1415 52.9941 21.7022 52.8498 21.7022 52.8498C21.8967 52.9439 21.6583 52.9439 21.5642 52.7055C21.6583 52.8937 21.9909 53.0882 22.1352 53.2325C22.4238 53.5212 22.7062 53.8098 22.9948 54.1424C24.714 55.962 26.3391 57.8694 28.0144 59.7329C29.4952 61.4082 30.9258 63.1274 32.5007 64.7086C33.0779 65.2796 33.7932 66.0012 34.6967 65.7565C35.2238 65.6184 35.6065 65.1855 35.9893 64.8529C40.0991 61.358 44.1148 57.7251 48.1744 54.1863C54.6791 48.4767 61.2724 42.8687 67.9516 37.3643C68.7704 36.6834 69.5987 36.014 70.4364 35.3565C71.0638 34.8733 70.9634 33.8255 70.4364 33.3486C69.8654 32.7714 69.0058 32.8655 68.4285 33.3486C61.6418 38.8721 54.9522 44.5138 48.3626 50.271C43.8262 54.2365 39.2897 58.2522 34.7469 62.2239C34.3705 62.5565 33.8873 62.8451 33.5548 63.2278C33.9313 62.7949 33.8434 63.0396 33.6991 63.0835C34.1258 62.8953 34.7469 62.8953 34.9854 63.0333C34.7469 62.889 35.3242 63.322 35.0356 63.0835C34.9415 62.9831 34.8473 62.8953 34.703 62.7949C33.172 61.3141 31.7415 59.5949 30.3109 58.0137C28.6356 56.1 26.9603 54.1863 25.2913 52.3227C24.7642 51.802 24.2873 51.1808 23.7101 50.6976C23.3336 50.3651 22.9509 50.0765 22.4238 50.0765C21.3258 50.0765 20.6544 51.4192 20.0834 52.1847C13.8716 60.4545 8.33125 69.2012 2.54616 77.7094L0.400273 80.8655C-0.0326679 81.4929 0.299881 82.4467 0.921058 82.8294C1.49831 83.3502 2.30772 83.0176 2.74067 82.3902V82.3965Z" fill="#F2F4EC"/>
<path d="M68.7697 98.5543C68.7195 98.5543 68.6693 98.6044 68.6254 98.6044C68.5752 98.6546 68.5752 98.6547 68.7634 98.5543H68.7697ZM68.2426 98.6986C68.0983 98.6986 68.4811 98.7927 68.2426 98.6986V98.6986ZM68.4811 98.6484C68.4309 98.6484 68.3869 98.6484 68.3367 98.6986C68.3869 98.6986 68.4309 98.6484 68.4811 98.6484ZM42.7305 85.7417C42.7744 85.7417 42.8246 85.7919 42.8246 85.7919C42.7744 85.7919 42.7305 85.7417 42.7305 85.7417ZM67.954 98.6044C67.9101 98.6044 67.9101 98.6044 67.954 98.6044H67.9101C68.0481 98.6484 68.0481 98.6484 67.954 98.6044Z" fill="#00B77E"/>
<path d="M42.7305 85.7417C42.775 85.7417 42.8259 85.7926 42.8259 85.7926C42.775 85.7926 42.7305 85.7417 42.7305 85.7417Z" fill="#92E2D0"/>
<path d="M69.195 98.2714C69.0507 98.4094 69.4837 98.127 69.195 98.2714V98.2714ZM33.5997 84.549C33.9825 84.4486 33.2672 84.549 33.5997 84.549V84.549Z" fill="#00B77E"/>
<path d="M45.6895 107.401C45.6895 107.928 42.866 108.361 39.3335 108.361C35.8448 108.361 33.0276 107.878 33.0276 107.357C33.0276 107.213 32.8394 106.015 33.0778 105.92C33.9813 105.538 36.6103 105.632 39.3335 105.632C42.157 105.632 44.6856 105.588 45.495 105.971C45.6833 106.065 45.6833 107.307 45.6833 107.401H45.6895Z" fill="#92E2D0"/>
<path d="M45.5899 106.108C45.5899 106.635 42.8228 107.068 39.3342 107.068C35.8456 107.068 33.0283 106.592 33.0283 106.064C33.0283 105.537 35.8519 105.104 39.3844 105.104C42.8228 105.104 45.5962 105.588 45.5962 106.108H45.5899Z" fill="#00565B"/>
<path d="M45.6895 105.776C45.6895 106.303 42.866 106.73 39.3335 106.73C35.8448 106.73 33.0276 106.253 33.0276 105.726C33.0276 105.588 32.8394 104.39 33.0778 104.295C33.9813 103.913 36.6103 104.007 39.3335 104.007C42.157 104.007 44.6856 103.963 45.495 104.339C45.6833 104.44 45.6833 105.682 45.6833 105.776H45.6895Z" fill="#92E2D0"/>
<path d="M45.5899 104.483C45.5899 105.01 42.8228 105.443 39.3342 105.443C35.8456 105.443 33.0283 104.96 33.0283 104.439C33.0283 103.912 35.8519 103.479 39.3844 103.479C42.8228 103.479 45.5962 103.912 45.5962 104.483H45.5899Z" fill="#00565B"/>
<path d="M45.6895 104.101C45.6895 104.628 42.866 105.061 39.3335 105.061C35.8448 105.061 33.0276 104.584 33.0276 104.057C33.0276 103.912 32.8394 102.72 33.0778 102.62C33.9813 102.243 36.6103 102.331 39.3335 102.331C42.157 102.331 44.6856 102.287 45.495 102.67C45.6833 102.764 45.6833 104.006 45.6833 104.101H45.6895Z" fill="#92E2D0"/>
<path d="M45.5899 102.814C45.5899 103.335 42.8228 103.768 39.3342 103.768C35.8456 103.768 33.0283 103.291 33.0283 102.764C33.0283 102.237 35.8519 101.811 39.3844 101.811C42.8228 101.811 45.5962 102.287 45.5962 102.814H45.5899Z" fill="#00565B"/>
<path d="M45.6895 102.475C45.6895 103.002 42.866 103.435 39.3335 103.435C35.8448 103.435 33.0276 102.958 33.0276 102.431C33.0276 102.287 32.8394 101.095 33.0778 100.994C33.9813 100.618 36.6103 100.706 39.3335 100.706C42.157 100.706 44.6856 100.662 45.495 101.044C45.6833 101.139 45.6833 102.381 45.6833 102.475H45.6895Z" fill="#92E2D0"/>
<path d="M45.5899 101.189C45.5899 101.71 42.8228 102.143 39.3342 102.143C35.8456 102.143 33.0283 101.666 33.0283 101.139C33.0283 100.612 35.8519 100.186 39.3844 100.186C42.8228 100.186 45.5962 100.612 45.5962 101.189H45.5899Z" fill="#00565B"/>
<path d="M45.6895 100.85C45.6895 101.377 42.866 101.804 39.3335 101.804C35.8448 101.804 33.0276 101.327 33.0276 100.8C33.0276 100.655 32.8394 99.4633 33.0778 99.3692C33.9813 98.9864 36.6103 99.0805 39.3335 99.0805C42.157 99.0805 44.6856 99.0303 45.495 99.4131C45.6833 99.5135 45.6833 100.706 45.6833 100.85H45.6895Z" fill="#92E2D0"/>
<path d="M45.5899 99.5137C45.5899 100.034 42.8228 100.467 39.3342 100.467C35.8456 100.467 33.0283 99.9906 33.0283 99.4635C33.0283 98.9364 35.8519 98.5098 39.3844 98.5098C42.8228 98.5098 45.5962 98.9866 45.5962 99.5137H45.5899Z" fill="#00565B"/>
<path d="M45.6895 99.1748C45.6895 99.7018 42.866 100.135 39.3335 100.135C35.8448 100.135 33.0276 99.6516 33.0276 99.1309C33.0276 98.9865 32.8394 97.7881 33.0778 97.694C33.9813 97.3175 36.6103 97.4054 39.3335 97.4054C42.157 97.4054 44.6856 97.3615 45.495 97.7442C45.6833 97.8383 45.6833 99.0807 45.6833 99.1748H45.6895Z" fill="#92E2D0"/>
<path d="M45.5899 97.8824C45.5899 98.4095 42.8228 98.8424 39.3342 98.8424C35.8456 98.8424 33.0283 98.3655 33.0283 97.8385C33.0283 97.3114 35.8519 96.8848 39.3844 96.8848C42.8228 96.8848 45.5962 97.3616 45.5962 97.8887L45.5899 97.8824Z" fill="#00565B"/>
<path d="M45.6895 97.55C45.6895 98.077 42.866 98.51 39.3335 98.51C35.8448 98.51 33.0276 98.0331 33.0276 97.506C33.0276 97.3617 32.8394 96.1633 33.0778 96.0692C33.9813 95.6927 36.6103 95.7868 39.3335 95.7868C42.157 95.7868 44.6856 95.7366 45.495 96.1194C45.6833 96.2135 45.6833 97.4558 45.6833 97.55H45.6895Z" fill="#92E2D0"/>
<path d="M45.5962 96.2637C45.5962 96.7907 42.8228 97.2174 39.3342 97.2174C35.8456 97.2174 33.0283 96.7405 33.0283 96.2135C33.0283 95.6864 35.8519 95.2598 39.3844 95.2598C42.8228 95.2598 45.5962 95.6864 45.5962 96.2637Z" fill="#00565B"/>
<path d="M45.5525 95.8748C45.5525 96.4018 42.729 96.9791 39.2404 97.0732C35.7517 97.1673 32.8843 96.8348 32.8843 96.3077C32.8843 96.1634 32.6459 94.9712 32.8843 94.8771C33.7941 94.4881 36.4231 94.4379 39.1463 94.35C41.9698 94.2496 44.4984 94.1116 45.3078 94.4881C45.5463 94.5383 45.5462 95.7367 45.5462 95.881L45.5525 95.8748Z" fill="#92E2D0"/>
<path d="M45.4024 94.5383C45.4024 95.0653 42.6793 95.6363 39.1906 95.7304C35.7083 95.8308 32.8408 95.492 32.8408 94.9712C32.8408 94.4442 35.6581 93.8669 39.1467 93.7791C42.6353 93.6787 45.4024 94.0112 45.4024 94.5383Z" fill="#00565B"/>
<path d="M45.553 94.0113C45.5969 94.5383 42.7733 95.1595 39.291 95.3478C35.8024 95.5423 32.9349 95.2536 32.9349 94.7266C32.9349 94.5885 32.6463 93.3901 32.9349 93.296C33.7945 92.863 36.4675 92.7689 39.1906 92.6246C42.0141 92.4803 44.5428 92.2481 45.3584 92.6246C45.4965 92.6748 45.4965 93.9172 45.5467 94.0113H45.553Z" fill="#92E2D0"/>
<path d="M45.3585 92.725C45.4025 93.2521 42.6354 93.867 39.1468 94.0615C35.6581 94.2497 32.7907 93.9674 32.7907 93.4403C32.7405 92.9132 35.564 92.2921 39.0527 92.1038C42.535 91.9156 45.3083 92.198 45.3585 92.725Z" fill="#00565B"/>
<path d="M45.4022 92.3859C45.4523 92.913 42.6351 93.5342 39.1465 93.7287C35.6578 93.9169 32.7904 93.6283 32.7904 93.1012C32.7904 92.9632 32.5018 91.7648 32.7904 91.6706C33.65 91.2377 36.3229 91.1436 39.0461 90.9993C41.8696 90.8612 44.3982 90.6228 45.2139 90.9993C45.3582 91.0495 45.4022 92.2918 45.4022 92.3859Z" fill="#92E2D0"/>
<path d="M45.2585 91.0995C45.3087 91.6266 42.5354 92.2478 39.0468 92.436C35.5644 92.6243 32.6969 92.3419 32.6969 91.8148C32.6468 91.2878 35.464 90.6666 38.9526 90.4784C42.4413 90.2399 45.2146 90.5223 45.2585 91.0995Z" fill="#00565B"/>
<path d="M45.3084 90.7166C45.3586 91.2437 42.5351 91.8649 39.0527 92.0531C35.5641 92.2413 32.6966 91.959 32.6966 91.4319C32.6966 91.2876 32.408 90.0954 32.6966 90.0013C33.5562 89.5621 36.2292 89.4743 38.9523 89.33C41.7759 89.1856 44.3045 88.9472 45.1202 89.33C45.2582 89.3739 45.3084 90.6225 45.3084 90.7104V90.7166Z" fill="#92E2D0"/>
<path d="M45.1618 89.4237C45.212 89.9507 42.4387 90.5719 38.9501 90.7602C35.4677 90.9484 32.6003 90.666 32.6003 90.139C32.5501 89.6182 35.3673 88.997 38.856 88.8025C42.3446 88.6143 45.1179 88.8966 45.1618 89.43V89.4237Z" fill="#00565B"/>
<path d="M44.6863 89.1358C44.7365 89.6628 41.913 90.284 38.4306 90.4785C34.942 90.6668 32.0746 90.3781 32.0746 89.8511C32.0746 89.713 31.7859 88.5146 32.0746 88.4205C32.9342 87.9875 35.6071 87.8934 38.3303 87.7491C41.1538 87.6048 43.6824 87.3727 44.4981 87.7491C44.6361 87.7993 44.6361 89.0417 44.6863 89.1358Z" fill="#92E2D0"/>
<path d="M44.5001 87.843C44.5441 88.37 41.777 88.9912 38.2884 89.1857C34.7998 89.3739 31.9323 89.0853 31.9323 88.5583C31.8821 88.0375 34.7056 87.4163 38.188 87.2218C41.6766 87.0335 44.4499 87.3222 44.5001 87.8492V87.843Z" fill="#00565B"/>
<path d="M45.1152 87.4666C45.1654 87.9874 42.3481 88.6086 38.8595 88.8031C35.3709 88.9913 32.5034 88.709 32.5034 88.1756C32.5034 88.0376 32.2211 86.8454 32.5034 86.7451C33.363 86.3184 36.0422 86.218 38.7654 86.08C41.5889 85.9356 44.1175 85.6972 44.927 86.08C45.0713 86.1239 45.1152 87.3662 45.1152 87.4603V87.4666Z" fill="#92E2D0"/>
<path d="M44.9747 86.1742C45.0187 86.7013 42.2516 87.3225 38.763 87.5107C35.2744 87.6989 32.4069 87.4166 32.4069 86.8895C32.3567 86.3625 35.1802 85.7413 38.6689 85.5531C42.1512 85.3146 44.9246 85.597 44.9747 86.1742Z" fill="#00565B"/>
<path d="M44.3554 85.4083C44.3993 85.9353 41.6322 86.7008 38.1938 87.0836C34.7052 87.46 31.8377 87.322 31.7938 86.7949C31.7938 86.6506 31.455 85.5024 31.6934 85.3581C32.553 84.8812 35.182 84.693 37.9052 84.3542C40.7287 84.0718 43.2573 83.6891 44.0667 84.0216C44.2111 84.0718 44.3052 85.3142 44.3554 85.4083Z" fill="#92E2D0"/>
<path d="M44.1117 84.1156C44.1618 84.6426 41.4889 85.4081 38.0003 85.7909C34.5117 86.1674 31.6442 86.0293 31.6003 85.5023C31.5501 84.9752 34.3234 84.2097 37.7618 83.827C41.2505 83.4505 44.0175 83.5885 44.1179 84.1156H44.1117Z" fill="#00565B"/>
<path d="M64.6604 107.401C64.6604 107.928 67.4777 108.361 71.0102 108.361C74.4988 108.361 77.3161 107.878 77.3161 107.357C77.3161 107.213 77.5106 106.015 77.2722 105.92C76.3624 105.538 73.7333 105.632 71.0102 105.632C68.1929 105.632 65.6643 105.588 64.8486 105.971C64.6102 106.065 64.6102 107.307 64.6604 107.401Z" fill="#92E2D0"/>
<path d="M64.7041 106.108C64.7041 106.635 67.4774 107.068 70.9661 107.068C74.4547 107.068 77.2719 106.592 77.2719 106.064C77.2719 105.537 74.4484 105.104 70.9159 105.104C67.4774 105.104 64.7041 105.588 64.7041 106.108Z" fill="#00565B"/>
<path d="M64.6604 105.776C64.6604 106.303 67.4777 106.73 71.0165 106.73C74.4988 106.73 77.3161 106.253 77.3161 105.726C77.3161 105.588 77.5106 104.39 77.2722 104.295C76.3624 103.913 73.7333 104.007 71.0102 104.007C68.1929 104.007 65.6643 103.963 64.8486 104.339C64.6102 104.44 64.6102 105.682 64.6604 105.776Z" fill="#92E2D0"/>
<path d="M64.7041 104.483C64.7041 105.01 67.4774 105.443 70.9661 105.443C74.4547 105.443 77.2719 104.96 77.2719 104.439C77.2719 103.912 74.4484 103.479 70.9159 103.479C67.4774 103.479 64.7041 103.912 64.7041 104.483Z" fill="#00565B"/>
<path d="M64.6604 104.101C64.6604 104.628 67.4777 105.061 71.0165 105.061C74.4988 105.061 77.3161 104.584 77.3161 104.057C77.3161 103.912 77.5106 102.72 77.2722 102.62C76.3624 102.243 73.7333 102.331 71.0102 102.331C68.1929 102.331 65.6643 102.287 64.8486 102.67C64.6102 102.764 64.6102 104.006 64.6604 104.101Z" fill="#92E2D0"/>
<path d="M64.7041 102.814C64.7041 103.335 67.4774 103.768 70.9661 103.768C74.4547 103.768 77.2719 103.291 77.2719 102.764C77.2719 102.237 74.4484 101.811 70.9159 101.811C67.4774 101.811 64.7041 102.287 64.7041 102.814Z" fill="#00565B"/>
<path d="M64.6604 102.475C64.6604 103.002 67.4777 103.435 71.0165 103.435C74.4988 103.435 77.3161 102.958 77.3161 102.431C77.3161 102.287 77.5106 101.095 77.2722 100.994C76.3624 100.618 73.7333 100.706 71.0102 100.706C68.1929 100.706 65.6643 100.662 64.8486 101.044C64.6102 101.139 64.6102 102.381 64.6604 102.475Z" fill="#92E2D0"/>
<path d="M64.7041 101.189C64.7041 101.71 67.4774 102.143 70.9661 102.143C74.4547 102.143 77.2719 101.666 77.2719 101.139C77.2719 100.612 74.4484 100.186 70.9159 100.186C67.4774 100.186 64.7041 100.612 64.7041 101.189Z" fill="#00565B"/>
<path d="M64.6604 100.85C64.6604 101.377 67.4777 101.804 71.0165 101.804C74.4988 101.804 77.3161 101.327 77.3161 100.8C77.3161 100.662 77.5106 99.4633 77.2722 99.3692C76.3624 98.9864 73.7333 99.0805 71.0102 99.0805C68.1929 99.0805 65.6643 99.0366 64.8486 99.4131C64.6102 99.5135 64.6102 100.706 64.6604 100.856V100.85Z" fill="#92E2D0"/>
<path d="M64.7041 99.5137C64.7041 100.041 67.4774 100.467 70.9661 100.467C74.4547 100.467 77.2719 99.9906 77.2719 99.4635C77.2719 98.9364 74.4484 98.5098 70.9159 98.5098C67.4774 98.5098 64.7041 98.9866 64.7041 99.5137Z" fill="#00565B"/>
<path d="M64.6604 99.175C64.6604 99.702 67.4777 100.135 71.0102 100.135C74.4988 100.135 77.3161 99.6581 77.3161 99.131C77.3161 98.9867 77.5106 97.7883 77.2722 97.6942C76.3624 97.3177 73.7333 97.4118 71.0102 97.4118C68.1929 97.4118 65.6643 97.3616 64.8486 97.7444C64.6102 97.8385 64.6102 99.0808 64.6604 99.175Z" fill="#92E2D0"/>
<path d="M64.7041 97.8824C64.7041 98.4095 67.4774 98.8424 70.9661 98.8424C74.4547 98.8424 77.2719 98.3655 77.2719 97.8385C77.2719 97.3114 74.4484 96.8848 70.9159 96.8848C67.4774 96.8848 64.7041 97.3616 64.7041 97.8887V97.8824Z" fill="#00565B"/>
<path d="M64.6604 97.55C64.6604 98.077 67.4777 98.51 71.0102 98.51C74.4988 98.51 77.3161 98.0331 77.3161 97.506C77.3161 97.3617 77.5043 96.1633 77.2722 96.0692C76.3624 95.6927 73.7333 95.7868 71.0102 95.7868C68.1929 95.7868 65.658 95.7366 64.8486 96.1194C64.6102 96.2135 64.6102 97.4558 64.6604 97.55Z" fill="#92E2D0"/>
<path d="M64.7041 96.2637C64.7041 96.7907 67.4774 97.2174 70.9661 97.2174C74.4484 97.2174 77.2719 96.7405 77.2719 96.2135C77.2719 95.6864 74.4484 95.2598 70.9159 95.2598C67.4774 95.2598 64.7041 95.6864 64.7041 96.2637Z" fill="#00565B"/>
<path d="M64.6604 96.019C64.6604 96.5461 67.4777 96.979 71.0165 96.979C74.4988 96.979 77.3161 96.4959 77.3161 95.9751C77.3161 95.8308 77.5106 94.6324 77.2722 94.5382C76.3624 94.1618 73.7333 94.2496 71.0102 94.2496C68.1929 94.2496 65.6643 94.2057 64.8486 94.5884C64.6102 94.6826 64.6102 95.9249 64.6604 96.019Z" fill="#92E2D0"/>
<path d="M64.7041 94.7261C64.7041 95.2532 67.4774 95.6861 70.9661 95.6861C74.4547 95.6861 77.2719 95.2092 77.2719 94.6822C77.2719 94.1551 74.4484 93.7222 70.9159 93.7222C67.4774 93.7222 64.7041 94.1614 64.7041 94.7261Z" fill="#00565B"/>
<path d="M64.6604 94.3934C64.6604 94.9205 67.4777 95.3534 71.0165 95.3534C74.4988 95.3534 77.3161 94.8703 77.3161 94.3495C77.3161 94.2052 77.5106 93.0067 77.2722 92.9126C76.3624 92.5299 73.7333 92.624 71.0102 92.624C68.1929 92.624 65.6643 92.5801 64.8486 92.9628C64.6102 93.0569 64.6102 94.2491 64.6604 94.3934Z" fill="#92E2D0"/>
<path d="M64.7041 93.0509C64.7041 93.5842 67.4774 94.0109 70.9661 94.0109C74.4547 94.0109 77.2719 93.534 77.2719 93.0069C77.2719 92.4862 74.4484 92.0532 70.9159 92.0532C67.4774 92.0532 64.7041 92.5301 64.7041 93.0571V93.0509Z" fill="#00565B"/>
<path d="M64.6604 92.7245C64.6604 93.2515 67.4777 93.6782 71.0165 93.6782C74.4988 93.6782 77.3161 93.2013 77.3161 92.6743C77.3161 92.5299 77.5106 91.3378 77.2722 91.2437C76.3624 90.8609 73.7333 90.9551 71.0102 90.9551C68.1929 90.9551 65.6643 90.9049 64.8486 91.2876C64.6102 91.3817 64.6102 92.6241 64.6604 92.7245Z" fill="#92E2D0"/>
<path d="M64.7041 91.4321C64.7041 91.9592 67.4774 92.3859 70.9661 92.3859C74.4547 92.3859 77.2719 91.909 77.2719 91.382C77.2719 90.8612 74.4484 90.4282 70.9159 90.4282C67.4774 90.4282 64.7041 90.9051 64.7041 91.4321Z" fill="#00565B"/>
<path d="M64.6604 91.0995C64.6604 91.6265 67.4777 92.0532 71.0165 92.0532C74.4988 92.0532 77.3161 91.5763 77.3161 91.0493C77.3161 90.905 77.5106 89.7128 77.2722 89.6187C76.3624 89.2359 73.7333 89.3301 71.0102 89.3301C68.1929 89.3301 65.6643 89.2799 64.8486 89.6626C64.6102 89.7567 64.6102 90.9991 64.6604 91.0995Z" fill="#92E2D0"/>
<path d="M64.7041 89.8071C64.7041 90.3342 67.4774 90.7609 70.9661 90.7609C74.4547 90.7609 77.2719 90.284 77.2719 89.7569C77.2719 89.2299 74.4484 88.8032 70.9159 88.8032C67.4774 88.8032 64.7041 89.2362 64.7041 89.8071Z" fill="#00565B"/>
<path d="M64.6604 89.4247C64.6604 89.9517 67.4777 90.3784 71.0102 90.3784C74.4988 90.3784 77.3161 89.9015 77.3161 89.3745C77.3161 89.2364 77.5106 88.038 77.2722 87.9439C76.3624 87.5611 73.7333 87.6552 71.0102 87.6552C68.1929 87.6552 65.6643 87.6113 64.8486 87.9941C64.6102 88.0882 64.6102 89.3305 64.6604 89.4247Z" fill="#92E2D0"/>
<path d="M64.7041 88.1319C64.7041 88.6589 67.4774 89.0919 70.9661 89.0919C74.4547 89.0919 77.2719 88.6087 77.2719 88.0879C77.2719 87.5609 74.4484 87.1279 70.9159 87.1279C67.4774 87.1279 64.7041 87.6048 64.7041 88.1319Z" fill="#00565B"/>
<path d="M64.6604 87.7997C64.6604 88.3267 67.4777 88.7534 71.0102 88.7534C74.4988 88.7534 77.3161 88.2765 77.3161 87.7495C77.3161 87.6114 77.5106 86.413 77.2722 86.3189C76.3624 85.9361 73.7333 86.0302 71.0102 86.0302C68.1929 86.0302 65.6643 85.9801 64.8486 86.3628C64.6102 86.4632 64.6102 87.7055 64.6604 87.7997Z" fill="#92E2D0"/>
<path d="M64.7041 86.5059C64.7041 87.0329 67.4774 87.4659 70.9661 87.4659C74.4547 87.4659 77.2719 86.9827 77.2719 86.462C77.2719 85.9349 74.4484 85.502 70.9159 85.502C67.4774 85.502 64.7041 85.9349 64.7041 86.5059Z" fill="#00565B"/>
<path d="M64.6604 86.1747C64.6604 86.7017 67.4777 87.1284 71.0102 87.1284C74.4988 87.1284 77.3161 86.6515 77.3161 86.1245C77.3161 85.9801 77.5043 84.788 77.2722 84.6939C76.3624 84.3111 73.7333 84.4052 71.0102 84.4052C68.1929 84.4052 65.658 84.3551 64.8486 84.7378C64.6102 84.8382 64.6102 86.0303 64.6604 86.1747Z" fill="#92E2D0"/>
<path d="M64.7041 84.8316C64.7041 85.3586 67.4774 85.7915 70.9661 85.7915C74.4484 85.7915 77.2719 85.3147 77.2719 84.7876C77.2719 84.2606 74.4484 83.8276 70.9159 83.8276C67.4774 83.8276 64.7041 84.3108 64.7041 84.8316Z" fill="#00565B"/>
<path d="M64.7041 83.589C64.7041 84.116 67.5276 84.6431 71.01 84.7372C74.4986 84.8313 77.3661 84.4486 77.3661 83.8776C77.3661 83.7333 77.6045 82.5411 77.3221 82.447C76.4123 82.058 73.7833 82.058 71.0602 81.9639C68.2366 81.92 65.708 81.7756 64.8986 82.1521C64.7104 82.2525 64.7104 83.4949 64.7104 83.5952L64.7041 83.589Z" fill="#92E2D0"/>
<path d="M64.8037 82.3024C64.8037 82.8295 67.5708 83.3503 71.0594 83.4507C74.548 83.5448 77.4155 83.162 77.4155 82.5848C77.4155 82.064 74.5919 81.5369 71.1096 81.4365C67.621 81.3926 64.8037 81.7754 64.8037 82.3024Z" fill="#00565B"/>
<path d="M65.375 81.9699C65.375 82.4907 68.1985 83.0178 71.6809 83.1119C75.1695 83.2123 78.037 82.8295 78.037 82.2523C78.037 82.1079 78.2754 80.9158 77.9868 80.8217C77.077 80.4389 74.4542 80.4389 71.7311 80.3887C68.9075 80.3385 66.3789 80.2005 65.5632 80.577C65.375 80.6272 65.375 81.8695 65.375 81.9699Z" fill="#92E2D0"/>
<path d="M65.5195 80.6782C65.5195 81.2053 68.2866 81.726 71.7752 81.8264C75.2638 81.9206 78.1313 81.5378 78.1313 80.9668C78.1313 80.4398 75.3078 79.9127 71.8254 79.8186C68.2866 79.7245 65.5195 80.101 65.5195 80.6782Z" fill="#00565B"/>
<path d="M64.6084 80.2944C64.6084 80.8215 67.4319 81.3485 70.9143 81.4426C74.4029 81.5368 77.2704 81.154 77.2704 80.583C77.2704 80.4387 77.5088 79.2403 77.2202 79.1462C76.3166 78.7697 73.6876 78.7697 70.9645 78.7132C68.1409 78.6693 65.6123 78.525 64.8029 78.9077C64.6147 78.9579 64.6147 80.1501 64.6147 80.2944H64.6084Z" fill="#92E2D0"/>
<path d="M64.7529 78.9519C64.7529 79.479 67.5263 80.006 71.0086 80.1001C74.4972 80.2005 77.3647 79.8178 77.3647 79.2405C77.3647 78.7135 74.5474 78.1927 71.0588 78.0923C67.5263 78.0484 64.7529 78.4311 64.7529 78.9582V78.9519Z" fill="#00565B"/>
<path d="M64.7529 78.6196C64.7529 79.1467 67.5765 79.6737 71.0588 79.7678C74.5474 79.8619 77.4149 79.4792 77.4149 78.9082C77.4149 78.7639 77.6533 77.5655 77.3647 77.4714C76.4612 77.0949 73.8321 77.0949 71.109 77.0384C68.2855 76.9945 65.7569 76.8502 64.9474 77.2329C64.7592 77.2831 64.7592 78.5255 64.7592 78.6196H64.7529Z" fill="#92E2D0"/>
<path d="M64.8975 77.3269C64.8975 77.854 67.6708 78.381 71.1531 78.4752C74.6418 78.5693 77.5092 78.1928 77.5092 77.6155C77.5092 77.0885 74.6857 76.5614 71.2033 76.4673C67.6708 76.4171 64.8975 76.7999 64.8975 77.3269Z" fill="#00565B"/>
<path d="M65.9463 76.9946C65.9463 77.5217 68.7698 78.0487 72.2522 78.1428C75.7408 78.2369 78.6082 77.8542 78.6082 77.2832C78.6082 77.1389 78.8467 75.9405 78.5581 75.8464C77.6545 75.4699 75.0255 75.4699 72.3024 75.4134C69.4788 75.3695 66.9502 75.2252 66.1408 75.6079C65.9526 75.6581 65.9526 76.9005 65.9526 76.9946H65.9463Z" fill="#92E2D0"/>
<path d="M66.04 75.702C66.04 76.229 68.8134 76.7561 72.302 76.8502C75.7906 76.9443 78.6581 76.5616 78.6581 75.9906C78.6581 75.4635 75.8345 74.9365 72.3522 74.8423C68.8636 74.7482 66.0902 75.131 66.04 75.702Z" fill="#00565B"/>
<path d="M64.7529 75.3193C64.7529 75.8464 67.5765 76.3734 71.0588 76.4675C74.5474 76.5679 77.4149 76.1852 77.4149 75.6079C77.4149 75.4636 77.6533 74.2715 77.3647 74.1773C76.4612 73.7946 73.8321 73.7946 71.109 73.7381C68.2855 73.6942 65.7569 73.5499 64.9474 73.9326C64.7592 73.9828 64.7592 75.2252 64.7592 75.3193H64.7529Z" fill="#92E2D0"/>
<path d="M64.8496 74.033C64.8496 74.56 67.6229 75.0808 71.1116 75.1812C74.6002 75.2753 77.4676 74.8926 77.4676 74.3153C77.4676 73.7945 74.6441 73.2675 71.1555 73.1734C67.6669 73.1232 64.8496 73.5059 64.8496 74.033Z" fill="#00565B"/>
<path d="M66.7105 72.7405C66.6666 73.2675 69.4336 74.033 72.8783 74.4158C76.3607 74.7922 79.2281 74.6981 79.2783 74.1271C79.2783 73.9828 79.6109 72.8346 79.3724 72.6903C78.5128 72.2134 75.8838 71.975 73.1607 71.6863C70.3371 71.3538 67.8085 71.0212 66.9991 71.3099C66.8548 71.4479 66.7607 72.6463 66.7105 72.7405Z" fill="#92E2D0"/>
<path d="M66.9498 71.4983C66.9058 72.0254 69.585 72.7846 73.0674 73.1674C76.556 73.5501 79.4235 73.456 79.4674 72.885C79.5176 72.3579 76.7443 71.5925 73.3058 71.2097C69.8674 70.8332 67.0501 70.9211 66.9498 71.4983Z" fill="#00565B"/>
<path d="M100.204 107.401C100.204 107.928 103.027 108.361 106.56 108.361C110.042 108.361 112.866 107.878 112.866 107.357C112.866 107.213 113.054 106.015 112.815 105.92C111.906 105.538 109.283 105.632 106.56 105.632C103.736 105.632 101.208 105.588 100.392 105.971C100.153 106.065 100.204 107.307 100.204 107.401Z" fill="#92E2D0"/>
<path d="M100.296 106.108C100.296 106.635 103.07 107.068 106.558 107.068C110.041 107.068 112.864 106.592 112.864 106.064C112.864 105.537 110.041 105.104 106.508 105.104C103.02 105.104 100.252 105.588 100.296 106.108Z" fill="#00565B"/>
<path d="M100.204 105.776C100.204 106.303 103.027 106.73 106.56 106.73C110.042 106.73 112.866 106.253 112.866 105.726C112.866 105.588 113.054 104.39 112.815 104.295C111.906 103.913 109.283 104.007 106.56 104.007C103.736 104.007 101.208 103.963 100.392 104.339C100.153 104.44 100.204 105.682 100.204 105.776Z" fill="#92E2D0"/>
<path d="M100.296 104.483C100.296 105.01 103.07 105.443 106.558 105.443C110.041 105.443 112.864 104.96 112.864 104.439C112.864 103.912 110.041 103.479 106.508 103.479C103.02 103.479 100.252 103.912 100.296 104.483Z" fill="#00565B"/>
<path d="M100.204 104.101C100.204 104.628 103.027 105.061 106.56 105.061C110.042 105.061 112.866 104.584 112.866 104.057C112.866 103.912 113.054 102.72 112.815 102.62C111.906 102.243 109.283 102.331 106.56 102.331C103.736 102.331 101.208 102.287 100.392 102.67C100.153 102.764 100.204 104.006 100.204 104.101Z" fill="#92E2D0"/>
<path d="M100.296 102.814C100.296 103.335 103.07 103.768 106.558 103.768C110.041 103.768 112.864 103.291 112.864 102.764C112.864 102.237 110.041 101.811 106.508 101.811C102.976 101.811 100.253 102.287 100.296 102.814Z" fill="#00565B"/>
<path d="M100.204 102.475C100.204 103.002 103.027 103.435 106.56 103.435C110.042 103.435 112.866 102.958 112.866 102.431C112.866 102.287 113.054 101.095 112.815 100.994C111.906 100.618 109.283 100.706 106.56 100.706C103.736 100.706 101.208 100.662 100.392 101.044C100.153 101.139 100.204 102.381 100.204 102.475Z" fill="#92E2D0"/>
<path d="M100.296 101.189C100.296 101.71 103.07 102.143 106.558 102.143C110.041 102.143 112.864 101.666 112.864 101.139C112.864 100.612 110.041 100.186 106.508 100.186C103.02 100.186 100.252 100.612 100.296 101.189Z" fill="#00565B"/>
<path d="M100.204 100.85C100.204 101.377 103.027 101.804 106.56 101.804C110.042 101.804 112.866 101.327 112.866 100.8C112.866 100.662 113.054 99.4633 112.815 99.3692C111.906 98.9864 109.283 99.0805 106.56 99.0805C103.736 99.0805 101.208 99.0366 100.392 99.4131C100.153 99.5135 100.204 100.706 100.204 100.856V100.85Z" fill="#92E2D0"/>
<path d="M100.296 99.5137C100.296 100.041 103.07 100.467 106.558 100.467C110.041 100.467 112.864 99.9906 112.864 99.4635C112.864 98.9364 110.041 98.5098 106.508 98.5098C103.02 98.5098 100.252 98.9866 100.296 99.5137Z" fill="#00565B"/>
<path d="M100.204 99.1748C100.204 99.7018 103.027 100.135 106.56 100.135C110.092 100.135 112.866 99.6516 112.866 99.1309C112.866 98.9865 113.054 97.7881 112.815 97.694C111.906 97.3175 109.283 97.4054 106.56 97.4054C103.736 97.4054 101.208 97.3615 100.392 97.7442C100.153 97.8383 100.204 99.0807 100.204 99.1748Z" fill="#92E2D0"/>
<path d="M100.296 97.8824C100.296 98.4095 103.07 98.8424 106.558 98.8424C110.041 98.8424 112.864 98.3655 112.864 97.8385C112.864 97.3114 110.041 96.8848 106.508 96.8848C103.02 96.8848 100.252 97.3616 100.296 97.8887V97.8824Z" fill="#00565B"/>
<path d="M100.204 97.55C100.204 98.077 103.021 98.51 106.56 98.51C110.042 98.51 112.866 98.0331 112.866 97.506C112.866 97.3617 113.054 96.1633 112.815 96.0692C111.906 95.6927 109.277 95.7868 106.553 95.7868C103.736 95.7868 101.208 95.7366 100.392 96.1194C100.153 96.2135 100.204 97.4558 100.204 97.55Z" fill="#92E2D0"/>
<path d="M100.297 96.2637C100.297 96.7907 103.07 97.2174 106.552 97.2174C110.041 97.2174 112.864 96.7405 112.864 96.2135C112.864 95.6864 110.041 95.2598 106.508 95.2598C103.02 95.2598 100.246 95.6864 100.297 96.2637Z" fill="#00565B"/>
<path d="M100.204 95.9248C100.204 96.4518 103.027 96.8848 106.56 96.8848C110.042 96.8848 112.866 96.4079 112.866 95.8809C112.866 95.7366 113.054 94.5381 112.815 94.444C111.906 94.0675 109.283 94.1554 106.56 94.1554C103.736 94.1554 101.208 94.1115 100.392 94.4942C100.153 94.5883 100.204 95.7805 100.204 95.9248Z" fill="#92E2D0"/>
<path d="M100.296 94.5884C100.296 95.1154 103.07 95.5421 106.558 95.5421C110.041 95.5421 112.864 95.0653 112.864 94.5382C112.864 94.0174 110.041 93.5845 106.508 93.5845C103.02 93.5845 100.252 94.0613 100.296 94.5884Z" fill="#00565B"/>
<path d="M100.204 94.2559C100.204 94.7767 103.027 95.2097 106.56 95.2097C110.042 95.2097 112.866 94.7328 112.866 94.2057C112.866 94.0614 113.054 92.8693 112.815 92.7689C111.906 92.3924 109.283 92.4865 106.56 92.4865C103.736 92.4865 101.208 92.4363 100.392 92.8191C100.153 92.9132 100.204 94.1556 100.204 94.2497V94.2559Z" fill="#92E2D0"/>
<path d="M100.296 92.9629C100.296 93.49 103.07 93.9166 106.558 93.9166C110.041 93.9166 112.864 93.4398 112.864 92.9127C112.864 92.3857 110.041 91.959 106.508 91.959C103.02 91.959 100.252 92.3857 100.296 92.9629Z" fill="#00565B"/>
<path d="M100.204 92.63C100.204 93.157 103.027 93.5837 106.56 93.5837C110.042 93.5837 112.866 93.1068 112.866 92.5798C112.866 92.4355 113.054 91.2433 112.815 91.1429C111.906 90.7664 109.283 90.8606 106.56 90.8606C103.736 90.8606 101.208 90.8104 100.392 91.1931C100.153 91.2872 100.204 92.5296 100.204 92.63Z" fill="#92E2D0"/>
<path d="M100.296 91.3379C100.296 91.865 103.07 92.2916 106.558 92.2916C110.041 92.2916 112.864 91.8148 112.864 91.2877C112.864 90.7607 110.041 90.334 106.508 90.334C103.02 90.334 100.252 90.7607 100.296 91.3379Z" fill="#00565B"/>
<path d="M100.204 90.9559C100.204 91.483 103.027 91.9096 106.56 91.9096C110.042 91.9096 112.866 91.4328 112.866 90.9057C112.866 90.7614 113.054 89.5692 112.815 89.4751C111.906 89.0924 109.283 89.1865 106.56 89.1865C103.736 89.1865 101.208 89.1363 100.392 89.519C100.153 89.6194 100.204 90.8618 100.204 90.9559Z" fill="#92E2D0"/>
<path d="M100.296 89.6621C100.296 90.1892 103.07 90.6221 106.558 90.6221C110.041 90.6221 112.864 90.139 112.864 89.6182C112.864 89.0911 110.041 88.6582 106.508 88.6582C103.02 88.6582 100.252 89.1351 100.296 89.6621Z" fill="#00565B"/>
<path d="M100.204 89.3302C100.204 89.8572 103.027 90.2902 106.56 90.2902C110.042 90.2902 112.866 89.807 112.866 89.2862C112.866 89.1419 113.054 87.9435 112.815 87.8431C111.906 87.4666 109.283 87.5608 106.56 87.5608C103.736 87.5608 101.208 87.5168 100.392 87.8933C100.153 87.9937 100.204 89.236 100.204 89.3364V89.3302Z" fill="#92E2D0"/>
<path d="M100.296 88.0371C100.296 88.5642 103.07 88.9971 106.558 88.9971C110.041 88.9971 112.864 88.514 112.864 87.9932C112.864 87.4661 110.041 87.0332 106.508 87.0332C103.02 87.0332 100.252 87.4661 100.296 88.0371Z" fill="#00565B"/>
<path d="M100.204 87.7052C100.204 88.2259 103.027 88.6589 106.56 88.6589C110.042 88.6589 112.866 88.182 112.866 87.655C112.866 87.5106 113.054 86.3185 112.815 86.2181C111.906 85.8416 109.283 85.9358 106.56 85.9358C103.736 85.9358 101.208 85.8856 100.392 86.2683C100.153 86.3624 100.204 87.5608 100.204 87.7052Z" fill="#92E2D0"/>
<path d="M100.296 86.3628C100.296 86.8899 103.07 87.3228 106.558 87.3228C110.041 87.3228 112.864 86.846 112.864 86.3189C112.864 85.7918 110.041 85.3589 106.508 85.3589C103.02 85.3589 100.252 85.842 100.296 86.3628Z" fill="#00565B"/>
<path d="M100.204 86.0296C100.204 86.5567 103.021 86.9834 106.56 86.9834C110.042 86.9834 112.866 86.5065 112.866 85.9794C112.866 85.8414 113.054 84.643 112.815 84.5489C111.906 84.1661 109.277 84.2602 106.553 84.2602C103.736 84.2602 101.208 84.2163 100.392 84.5991C100.153 84.6932 100.204 85.9355 100.204 86.0296Z" fill="#92E2D0"/>
<path d="M100.297 84.7378C100.297 85.2649 103.07 85.6978 106.552 85.6978C110.041 85.6978 112.864 85.2147 112.864 84.6939C112.864 84.1668 110.041 83.7339 106.508 83.7339C103.02 83.7339 100.246 84.1668 100.297 84.7378Z" fill="#00565B"/>
<path d="M100.204 84.4552C100.204 84.976 103.027 85.4089 106.56 85.4089C110.042 85.4089 112.866 84.932 112.866 84.405C112.866 84.2607 113.054 83.0685 112.815 82.9681C111.906 82.5916 109.283 82.6858 106.56 82.6858C103.736 82.6858 101.208 82.6356 100.392 83.0183C100.153 83.1124 100.204 84.3548 100.204 84.4552Z" fill="#92E2D0"/>
<path d="M100.296 83.1621C100.296 83.6892 103.07 84.1158 106.558 84.1158C110.041 84.1158 112.864 83.639 112.864 83.1119C112.864 82.5849 110.041 82.1582 106.508 82.1582C103.02 82.1582 100.252 82.6351 100.296 83.1621Z" fill="#00565B"/>
<path d="M100.204 82.8237C100.204 83.3508 103.027 83.7837 106.56 83.7837C110.042 83.7837 112.866 83.3006 112.866 82.7798C112.866 82.6355 113.054 81.4371 112.815 81.3429C111.906 80.9665 109.283 81.0543 106.56 81.0543C103.736 81.0543 101.208 81.0104 100.392 81.3931C100.153 81.4872 100.204 82.7296 100.204 82.8237Z" fill="#92E2D0"/>
<path d="M100.296 81.5371C100.296 82.0579 103.07 82.4908 106.558 82.4908C110.041 82.4908 112.864 82.014 112.864 81.4869C112.864 80.9599 110.041 80.5332 106.508 80.5332C103.02 80.5332 100.252 80.9599 100.296 81.5371Z" fill="#00565B"/>
<path d="M100.204 81.1987C100.204 81.7258 103.027 82.1587 106.56 82.1587C110.042 82.1587 112.866 81.6756 112.866 81.1548C112.866 81.0105 113.054 79.8121 112.815 79.7179C111.906 79.3415 109.283 79.4293 106.56 79.4293C103.736 79.4293 101.208 79.3854 100.392 79.7681C100.153 79.8622 100.204 81.0544 100.204 81.1987Z" fill="#92E2D0"/>
<path d="M100.296 79.8618C100.296 80.3889 103.07 80.8156 106.558 80.8156C110.041 80.8156 112.864 80.3387 112.864 79.8116C112.864 79.2846 110.041 78.8579 106.508 78.8579C103.02 78.8579 100.252 79.3348 100.296 79.8618Z" fill="#00565B"/>
<path d="M100.204 79.5294C100.204 80.0502 103.027 80.4831 106.56 80.4831C110.042 80.4831 112.866 80.0062 112.866 79.4792C112.866 79.3349 113.054 78.1427 112.815 78.0423C111.906 77.6659 109.283 77.76 106.56 77.76C103.736 77.76 101.208 77.7098 100.392 78.0925C100.153 78.1866 100.204 79.429 100.204 79.5294Z" fill="#92E2D0"/>
<path d="M100.296 78.2368C100.296 78.7639 103.07 79.1906 106.558 79.1906C110.041 79.1906 112.864 78.7137 112.864 78.1866C112.864 77.6659 110.041 77.2329 106.508 77.2329C103.02 77.2329 100.252 77.6659 100.296 78.2368Z" fill="#00565B"/>
<path d="M100.204 77.9042C100.204 78.4312 103.027 78.8579 106.56 78.8579C110.042 78.8579 112.866 78.381 112.866 77.854C112.866 77.7096 113.054 76.5175 112.815 76.4234C111.906 76.0406 109.283 76.1347 106.56 76.1347C103.736 76.1347 101.208 76.0845 100.392 76.4673C100.153 76.5677 100.204 77.81 100.204 77.9042Z" fill="#92E2D0"/>
<path d="M100.296 76.5615C100.296 77.0886 103.07 77.5215 106.558 77.5215C110.041 77.5215 112.864 77.0447 112.864 76.5176C112.864 75.9906 110.041 75.5576 106.508 75.5576C103.02 75.5576 100.252 76.0408 100.296 76.5615Z" fill="#00565B"/>
<path d="M100.204 76.2284C100.204 76.7554 103.027 77.1821 106.56 77.1821C110.042 77.1821 112.866 76.7052 112.866 76.1782C112.866 76.0401 113.054 74.8417 112.815 74.7476C111.906 74.3648 109.283 74.459 106.56 74.459C103.736 74.459 101.208 74.4088 100.392 74.7915C100.153 74.8919 100.204 76.1342 100.204 76.2284Z" fill="#92E2D0"/>
<path d="M100.296 74.9365C100.296 75.4636 103.07 75.8965 106.558 75.8965C110.041 75.8965 112.864 75.4134 112.864 74.8926C112.864 74.3656 110.041 73.9326 106.508 73.9326C103.02 73.9326 100.252 74.4095 100.296 74.9365Z" fill="#00565B"/>
<path d="M100.204 74.6034C100.204 75.1304 103.021 75.5571 106.56 75.5571C110.042 75.5571 112.866 75.0802 112.866 74.5532C112.866 74.4151 113.054 73.2167 112.815 73.1226C111.906 72.7398 109.277 72.834 106.553 72.834C103.736 72.834 101.208 72.7838 100.392 73.1665C100.153 73.2669 100.204 74.5093 100.204 74.6096V74.6034Z" fill="#92E2D0"/>
<path d="M100.297 73.3115C100.297 73.8386 103.07 74.2715 106.552 74.2715C110.041 74.2715 112.864 73.7884 112.864 73.2676C112.864 72.7406 110.041 72.3076 106.508 72.3076C103.02 72.3076 100.246 72.7406 100.297 73.3115Z" fill="#00565B"/>
<path d="M112.908 72.9721C112.908 73.5054 110.091 73.976 106.602 74.0262C103.113 74.0764 100.296 73.6497 100.246 73.1227C100.246 72.9784 100.007 71.7799 100.296 71.6858C101.206 71.3093 103.835 71.3533 106.552 71.3093C109.375 71.2529 111.904 71.1587 112.72 71.5415C112.908 71.6356 112.908 72.8842 112.908 72.9784V72.9721Z" fill="#92E2D0"/>
<path d="M112.765 71.6863C112.765 72.2133 109.998 72.6902 106.509 72.7404C103.021 72.7843 100.204 72.3576 100.153 71.8306C100.153 71.3035 102.977 70.8267 106.459 70.7827C109.998 70.7325 112.765 71.1153 112.765 71.6863Z" fill="#00565B"/>
<path d="M112.244 71.3037C112.244 71.8307 109.421 72.3076 105.938 72.3578C102.45 72.4017 99.6263 71.975 99.5823 71.448C99.5823 71.3037 99.3439 70.1115 99.6263 70.0111C100.536 69.6346 103.165 69.6786 105.888 69.6346C108.712 69.5844 111.24 69.4903 112.05 69.917C112.238 69.9672 112.238 71.2095 112.238 71.3037H112.244Z" fill="#92E2D0"/>
<path d="M112.1 70.0111C112.1 70.5381 109.327 71.015 105.838 71.0652C102.349 71.1154 99.5322 70.6887 99.4883 70.1554C99.4883 69.6283 102.306 69.1515 105.794 69.1075C109.283 69.0573 112.1 69.484 112.1 70.0111Z" fill="#00565B"/>
<path d="M113.006 69.6284C113.006 70.1554 110.188 70.6323 106.706 70.6825C103.217 70.7327 100.394 70.306 100.35 69.7727C100.35 69.6284 100.111 68.4362 100.394 68.3421C101.304 67.9593 103.933 68.0033 106.656 67.9593C109.479 67.9091 112.008 67.815 112.817 68.2417C113.006 68.2919 113.006 69.5342 113.006 69.6284Z" fill="#92E2D0"/>
<path d="M112.865 68.342C112.865 68.8691 110.092 69.3459 106.603 69.3898C103.115 69.44 100.297 69.0134 100.247 68.4863C100.247 67.9592 103.071 67.4824 106.559 67.4322C110.092 67.382 112.865 67.8149 112.865 68.342Z" fill="#00565B"/>
<path d="M112.866 68.0091C112.866 68.5299 110.043 69.0131 106.554 69.057C103.072 69.1072 100.248 68.6805 100.204 68.1472C100.204 68.0091 99.966 66.8107 100.248 66.7166C101.158 66.3339 103.787 66.3778 106.51 66.3339C109.334 66.2837 111.862 66.1895 112.672 66.6162C112.86 66.6664 112.86 67.9088 112.86 68.0091H112.866Z" fill="#92E2D0"/>
<path d="M112.765 66.7168C112.765 67.2439 109.998 67.7207 106.509 67.7646C103.021 67.8148 100.204 67.3882 100.153 66.8611C100.153 66.334 102.977 65.8572 106.459 65.807C109.998 65.7129 112.765 66.1395 112.765 66.7168Z" fill="#00565B"/>
<path d="M111.717 66.3347C111.717 66.8618 108.894 67.3386 105.411 67.3825C101.923 67.4327 99.1056 67.0061 99.0554 66.479C99.0554 66.3347 98.817 65.1363 99.1056 65.0421C100.009 64.6657 102.638 64.7096 105.361 64.6657C108.185 64.6155 110.713 64.5151 111.523 64.948C111.711 64.992 111.711 66.2406 111.711 66.3284L111.717 66.3347Z" fill="#92E2D0"/>
<path d="M111.624 65.0418C111.624 65.5689 108.851 66.0458 105.362 66.0959C101.873 66.1461 99.0561 65.7132 99.0059 65.1861C99.0059 64.6591 101.829 64.1822 105.318 64.1383C108.8 64.0881 111.624 64.5148 111.624 65.0418Z" fill="#00565B"/>
<path d="M111.334 60.7377C111.479 61.2647 108.799 62.369 105.411 63.1785C102.023 63.9941 99.1493 64.2263 99.0112 63.7055C98.9611 63.5612 98.4842 62.4632 98.7226 62.2687C99.5383 61.6977 102.111 61.1204 104.746 60.4992C107.507 59.8341 109.954 59.1628 110.807 59.351C111.046 59.4514 111.334 60.6436 111.334 60.7377Z" fill="#92E2D0"/>
<path d="M110.953 59.4949C111.097 60.022 108.468 61.1263 105.074 61.9357C101.685 62.7514 98.8179 62.9898 98.6735 62.4627C98.5292 61.9357 101.208 60.8314 104.597 60.022C108.041 59.2063 110.808 58.9741 110.953 59.4949Z" fill="#00565B"/>
<path d="M111.336 57.2053C111.097 57.6821 108.374 56.9166 105.174 55.4359C102.018 53.9551 99.6276 52.3739 99.866 51.897C99.9162 51.8029 100.249 50.6045 100.537 50.6045C101.491 50.6547 103.882 51.7966 106.366 52.9512C108.945 54.1433 111.286 55.1472 111.813 55.8186C111.907 56.0068 111.38 57.1049 111.336 57.199V57.2053Z" fill="#92E2D0"/>
<path d="M111.765 55.9622C111.521 56.4391 108.848 55.6736 105.648 54.2367C102.448 52.8061 100.107 51.181 100.346 50.6979C100.584 50.221 103.307 50.9865 106.507 52.4673C109.657 53.9042 112.004 55.4791 111.765 55.9622Z" fill="#00565B"/>
<path d="M2.40354 83.0682C8.23883 77.4211 14.0616 71.8368 19.8906 66.1898C19.3196 66.2839 18.7424 66.3341 18.1714 66.4282C20.8004 68.2917 23.329 70.2556 25.958 72.1192C27.2121 73.0028 28.5038 73.8318 29.8294 74.6039C30.7392 75.1309 31.9314 75.8964 33.0796 75.5576C33.7949 75.3192 34.46 74.7921 35.0373 74.4156C36.1711 73.661 37.2862 72.8785 38.3816 72.069C45.1835 67.319 51.8276 62.3469 58.3031 57.1607C58.9847 56.6172 59.6541 56.0586 60.311 55.4855C60.4553 55.3411 60.6435 55.2031 60.838 55.0588C60.882 55.0086 61.0263 54.9145 61.0765 54.8705C61.1204 54.8705 61.2208 54.8204 61.2647 54.8204C61.2124 54.8437 61.1557 54.8558 61.0984 54.8558C61.0411 54.8558 60.9845 54.8437 60.9322 54.8204C60.5996 54.8204 60.838 54.8643 60.9322 54.8643C60.9761 54.8643 60.9761 54.9145 61.0263 54.9145C61.2647 54.9647 60.6498 54.7262 60.9322 54.8643C62.4631 55.5858 63.9439 56.3953 65.4247 57.2109C67.1709 58.1801 68.9069 59.1673 70.6326 60.1725C71.5863 60.7435 72.7784 61.5592 73.9769 61.2266C74.3533 61.1262 74.5918 60.8878 74.8804 60.6494C76.4616 59.407 77.9424 57.9764 79.4671 56.5898C82.2404 54.0549 84.9635 51.5702 87.6867 49.0353C94.1808 43.0431 100.631 37.0196 107.225 31.1027C107.897 30.4753 108.606 29.8541 109.327 29.2329C109.898 28.7121 109.855 27.7521 109.327 27.2251C108.756 26.6541 107.897 26.7043 107.32 27.2251C100.92 32.9662 94.6639 38.7953 88.3518 44.5804C83.5267 49.0729 78.7518 53.6156 73.7322 57.92C73.4937 58.1082 73.2553 58.3529 73.0169 58.5411C72.7784 58.7294 73.0671 58.447 73.1612 58.447C73.1173 58.447 73.1173 58.4909 73.0671 58.5411C72.9227 58.5913 72.6843 58.6353 73.2553 58.4909C73.8326 58.3529 73.5439 58.4909 73.2553 58.3529C73.0169 58.2525 72.8286 58.1082 72.6341 58.0141C72.2577 57.8258 71.9188 57.5874 71.5361 57.3929C70.6765 56.916 69.8169 56.389 68.9573 55.9121C67.238 54.9584 65.5188 53.9545 63.7494 53.0447C63.1282 52.7058 62.5573 52.4172 61.8859 52.1851C60.9322 51.8462 59.9784 52.229 59.2129 52.8062C57.682 53.9545 56.2514 55.2407 54.7706 56.4392C53.1781 57.7046 51.5675 58.9471 49.9392 60.1662C46.5802 62.7099 43.1896 65.2115 39.7682 67.6706C37.4718 69.3019 35.1816 70.9709 32.8412 72.5019L32.1196 72.9286C31.7871 73.167 32.7471 72.596 32.6969 72.7843C32.6467 72.9286 31.0655 71.9749 30.9777 71.9247C28.3988 70.3498 25.958 68.5364 23.5235 66.7168C22.2812 65.7631 20.9886 64.8533 19.7463 63.9435C19.2255 63.5607 18.46 63.7553 18.0271 64.1819C12.198 69.829 6.36903 75.4133 0.540007 81.0604C-0.984699 82.3466 1.06707 84.3545 2.40354 83.0682Z" fill="#00B77E"/>
<path d="M62.4541 31.2471C64.6502 33.5875 70.247 38.6071 72.7318 41.2362C73.714 36.88 74.844 32.5586 76.12 28.2793C72.0102 28.8503 62.4541 31.2409 62.4541 31.2409V31.2471Z" fill="#F2F4EC"/>
<path d="M13.4396 107.401C13.4396 107.928 10.6223 108.361 7.08975 108.361C3.60112 108.361 0.77759 107.878 0.77759 107.357C0.77759 107.213 0.589355 106.015 0.827786 105.92C1.73759 105.538 4.36034 105.632 7.08975 105.632C9.907 105.632 12.4356 105.588 13.2513 105.971C13.4396 106.065 13.4396 107.307 13.4396 107.401Z" fill="#92E2D0"/>
<path d="M13.3432 106.108C13.3432 106.635 10.5699 107.068 7.08127 107.068C3.59892 107.068 0.775391 106.592 0.775391 106.064C0.775391 105.537 3.59892 105.104 7.13147 105.104C10.5699 105.104 13.3432 105.588 13.3432 106.108Z" fill="#00565B"/>
<path d="M13.4396 105.776C13.4396 106.303 10.6223 106.73 7.08975 106.73C3.60112 106.73 0.77759 106.253 0.77759 105.726C0.77759 105.588 0.589355 104.39 0.827786 104.295C1.73759 103.913 4.36034 104.007 7.08975 104.007C9.907 104.007 12.4356 103.963 13.2513 104.339C13.4396 104.44 13.4396 105.682 13.4396 105.776Z" fill="#92E2D0"/>
<path d="M13.3432 104.483C13.3432 105.01 10.5699 105.443 7.08127 105.443C3.59892 105.443 0.775391 104.96 0.775391 104.439C0.775391 103.912 3.59892 103.479 7.13147 103.479C10.5699 103.479 13.3432 103.912 13.3432 104.483Z" fill="#00565B"/>
<path d="M13.4396 104.101C13.4396 104.628 10.6223 105.061 7.08975 105.061C3.60112 105.061 0.77759 104.584 0.77759 104.057C0.77759 103.912 0.589355 102.72 0.827786 102.62C1.73759 102.243 4.36034 102.331 7.08975 102.331C9.907 102.331 12.4356 102.287 13.2513 102.67C13.4396 102.764 13.4396 104.006 13.4396 104.101Z" fill="#92E2D0"/>
<path d="M13.3432 102.814C13.3432 103.335 10.5699 103.768 7.08127 103.768C3.59892 103.768 0.775391 103.291 0.775391 102.764C0.775391 102.237 3.59892 101.811 7.13147 101.811C10.5699 101.811 13.3432 102.287 13.3432 102.814Z" fill="#00565B"/>
<path d="M13.4396 102.475C13.4396 103.002 10.6223 103.435 7.08975 103.435C3.60112 103.435 0.77759 102.958 0.77759 102.431C0.77759 102.287 0.589355 101.095 0.827786 100.994C1.73759 100.618 4.36034 100.706 7.08975 100.706C9.907 100.706 12.4356 100.662 13.2513 101.044C13.4396 101.139 13.4396 102.381 13.4396 102.475Z" fill="#92E2D0"/>
<path d="M13.3432 101.189C13.3432 101.71 10.5699 102.143 7.08127 102.143C3.59892 102.143 0.775391 101.666 0.775391 101.139C0.775391 100.612 3.59892 100.186 7.13147 100.186C10.5699 100.186 13.3432 100.612 13.3432 101.189Z" fill="#00565B"/>
<path d="M13.4396 100.85C13.4396 101.377 10.6223 101.804 7.08975 101.804C3.60112 101.804 0.77759 101.327 0.77759 100.8C0.77759 100.655 0.589355 99.4633 0.827786 99.3692C1.73759 98.9864 4.36034 99.0805 7.08975 99.0805C9.907 99.0805 12.4356 99.0303 13.2513 99.4131C13.4396 99.5135 13.4396 100.706 13.4396 100.85Z" fill="#92E2D0"/>
<path d="M13.3432 99.5137C13.3432 100.034 10.5699 100.467 7.08127 100.467C3.59892 100.467 0.775391 99.9906 0.775391 99.4635C0.775391 98.9364 3.59892 98.5098 7.13147 98.5098C10.5699 98.5098 13.3432 98.9866 13.3432 99.5137Z" fill="#00565B"/>
<path d="M13.4396 99.1748C13.4396 99.7018 10.6223 100.135 7.08975 100.135C3.55092 100.135 0.77759 99.6516 0.77759 99.1309C0.77759 98.9865 0.589355 97.7881 0.827786 97.694C1.73759 97.3175 4.36034 97.4054 7.08975 97.4054C9.907 97.4054 12.4356 97.3615 13.2513 97.7442C13.4396 97.8383 13.4396 99.0807 13.4396 99.1748Z" fill="#92E2D0"/>
<path d="M13.3432 97.8824C13.3432 98.4095 10.5699 98.8424 7.08127 98.8424C3.59892 98.8424 0.775391 98.3655 0.775391 97.8385C0.775391 97.3114 3.59892 96.8848 7.13147 96.8848C10.5699 96.8848 13.3432 97.3616 13.3432 97.8887V97.8824Z" fill="#00565B"/>
<path d="M13.4396 97.55C13.4396 98.077 10.6223 98.51 7.08975 98.51C3.60112 98.51 0.77759 98.0331 0.77759 97.506C0.77759 97.3617 0.589355 96.1633 0.827786 96.0692C1.73759 95.6927 4.36661 95.7868 7.08975 95.7868C9.907 95.7868 12.4356 95.7366 13.2513 96.1194C13.4396 96.2135 13.4396 97.4558 13.4396 97.55Z" fill="#92E2D0"/>
<path d="M13.3432 96.2637C13.3432 96.7907 10.5699 97.2174 7.08127 97.2174C3.59892 97.2174 0.775391 96.7405 0.775391 96.2135C0.775391 95.6864 3.59892 95.2598 7.13147 95.2598C10.5699 95.2598 13.3432 95.6864 13.3432 96.2637Z" fill="#00565B"/>
</g>
<defs>
<clipPath id="clip0_43872_319399">
<rect width="128" height="108.549" fill="white"/>
</clipPath>
</defs>
</svg>
