<svg width="90" height="144" viewBox="0 0 90 144" fill="none"
    xmlns="http://www.w3.org/2000/svg">
    <path d="M1.31099 142.633C0.362318 142.422 -0.164671 141.473 0.046145 140.524C0.256961 139.576 1.20564 139.049 2.15431 139.259C3.10298 139.47 3.62997 140.419 3.41916 141.368C3.20834 142.211 2.47051 142.633 1.73265 142.633C1.62724 142.633 1.52181 142.633 1.31099 142.633ZM3.20839 135.992C2.25972 135.676 1.83808 134.727 2.15431 133.778C2.47053 132.935 3.41918 132.408 4.36786 132.724C5.31653 133.04 5.73816 133.989 5.42194 134.938C5.21112 135.676 4.47329 136.097 3.73543 136.097C3.52462 135.992 3.3138 135.992 3.20839 135.992ZM5.42194 129.456C4.57867 129.035 4.15701 128.086 4.47324 127.243C4.89487 126.4 5.84365 125.978 6.68691 126.294C7.53018 126.61 7.95171 127.665 7.63548 128.508C7.31926 129.14 6.68681 129.562 6.05436 129.562C5.84354 129.562 5.63275 129.562 5.42194 129.456ZM8.16252 123.132C7.31926 122.71 7.00309 121.656 7.42472 120.813C7.84635 119.97 8.79497 119.654 9.74365 119.97C10.5869 120.391 11.0086 121.445 10.587 122.289C10.2707 122.921 9.63829 123.237 9.00584 123.237C8.58421 123.237 8.37334 123.237 8.16252 123.132ZM11.2194 116.913C10.3761 116.491 10.0599 115.437 10.4816 114.594C10.9032 113.751 11.9572 113.434 12.8005 113.856C13.6438 114.383 13.96 115.332 13.4329 116.175C13.1167 116.808 12.4844 117.018 11.9573 117.018C11.6411 117.124 11.4302 117.018 11.2194 116.913ZM64.5559 112.486C64.5559 111.537 65.2939 110.694 66.2425 110.694C67.1912 110.694 68.0344 111.432 68.0344 112.38C68.0344 113.329 67.2966 114.172 66.4533 114.172H66.3479C65.3992 114.067 64.5559 113.434 64.5559 112.486ZM59.1801 113.856C58.2314 113.751 57.599 112.907 57.7044 111.959C57.8098 111.01 58.6531 110.378 59.6018 110.483C60.5504 110.588 61.1829 111.432 61.0775 112.38C60.9721 113.224 60.2343 113.856 59.391 113.856C59.2856 113.856 59.2855 113.856 59.1801 113.856ZM71.4074 111.853C71.1966 110.905 71.8291 109.956 72.6724 109.745C73.6211 109.534 74.5698 110.167 74.7806 111.01C74.9914 111.959 74.3589 112.802 73.5156 113.013C73.4102 113.013 73.3049 113.118 73.0941 113.118C72.2508 113.224 71.6183 112.697 71.4074 111.853ZM52.1178 112.17C51.1691 111.853 50.7475 110.905 51.0637 109.956C51.38 109.007 52.3286 108.586 53.2773 108.902C54.226 109.218 54.6476 110.167 54.3314 111.115C54.1205 111.853 53.4881 112.275 52.7502 112.275C52.5394 112.275 52.3286 112.275 52.1178 112.17ZM14.5925 110.905C13.7493 110.378 13.5384 109.324 14.0655 108.48C14.5925 107.637 15.6466 107.426 16.3844 107.953C17.2277 108.48 17.4385 109.534 16.9115 110.378C16.5952 110.905 16.0682 111.221 15.4357 111.221C15.1195 111.221 14.8033 111.115 14.5925 110.905ZM78.0482 110.061C77.6266 109.218 78.0483 108.164 78.8915 107.742C79.7348 107.321 80.7888 107.742 81.2104 108.586C81.6321 109.429 81.2104 110.483 80.3671 110.905C80.1563 111.01 79.8401 111.01 79.6293 111.01C78.9969 111.01 78.3644 110.694 78.0482 110.061ZM45.5824 109.218C44.7392 108.691 44.5284 107.637 44.95 106.794C45.4771 105.95 46.5312 105.74 47.2691 106.161C48.1123 106.688 48.3231 107.742 47.9015 108.586C47.5853 109.113 47.0582 109.429 46.4258 109.429C46.2149 109.429 45.8987 109.324 45.5824 109.218ZM84.0564 106.794C83.3186 106.161 83.2132 105.107 83.8457 104.369C84.4781 103.632 85.5322 103.526 86.2701 104.159C87.008 104.791 87.1133 105.845 86.4809 106.583C86.1646 107.005 85.6376 107.215 85.216 107.215C84.7944 107.215 84.4781 107.11 84.0564 106.794ZM18.3872 105.213C17.6493 104.58 17.5439 103.526 18.0709 102.788C18.7034 101.945 19.7575 101.84 20.4954 102.472C21.2332 103.104 21.444 104.159 20.8115 104.896C20.4953 105.318 19.9683 105.634 19.4413 105.634C19.1251 105.529 18.7034 105.423 18.3872 105.213ZM39.8905 104.686C39.1526 103.948 39.1526 102.894 39.8905 102.261C40.6283 101.629 41.6824 101.629 42.3148 102.261C42.9473 102.999 42.9473 104.053 42.3148 104.686C41.9986 105.002 41.577 105.213 41.1553 105.213C40.6283 105.213 40.2067 105.002 39.8905 104.686ZM87.7457 100.996C86.797 100.785 86.27 99.8368 86.4809 98.8881C86.6917 98.0449 87.535 97.4124 88.4836 97.6232C89.4323 97.834 89.9593 98.6773 89.7485 99.626C89.5377 100.469 88.9053 100.996 88.062 100.996C88.062 100.996 87.8511 100.996 87.7457 100.996ZM22.7089 99.8368C21.971 99.2044 21.9711 98.0449 22.6035 97.4124C23.236 96.6746 24.29 96.6746 25.0278 97.307C25.7657 97.9394 25.7658 98.9935 25.1333 99.7314C24.8171 100.153 24.29 100.258 23.8684 100.258C23.4467 100.258 23.0251 100.048 22.7089 99.8368ZM35.4633 98.8881C34.9362 98.0449 35.2524 96.9908 36.0957 96.5691C36.939 96.0421 37.9931 96.3583 38.5201 97.2016C39.0472 98.0449 38.731 99.0989 37.8877 99.5206C37.5715 99.7314 37.2552 99.7314 37.0444 99.7314C36.3065 99.7314 35.7795 99.4152 35.4633 98.8881ZM27.4523 94.7772C26.8198 94.0394 26.8198 92.9853 27.5577 92.3528C28.2955 91.7204 29.3496 91.7204 29.9821 92.4582C30.6145 93.1961 30.6146 94.2502 29.8767 94.8826C29.5605 95.1988 29.1388 95.3043 28.7171 95.3043C28.1901 95.4097 27.7685 95.1988 27.4523 94.7772ZM86.5862 92.8799C86.3754 91.9312 87.0079 91.0879 87.9566 90.8771C88.9053 90.6663 89.7486 91.2987 89.9594 92.142C90.1702 93.0907 89.5377 94.0394 88.589 94.2502C88.4836 94.2502 88.3782 94.2502 88.2728 94.2502C87.4295 94.2502 86.6917 93.6177 86.5862 92.8799ZM32.4064 92.3528C32.1956 91.7204 32.4064 91.0879 32.8281 90.5609C32.7227 90.4555 32.7227 90.4555 32.6173 90.3501C32.0903 89.5068 32.1957 88.4527 33.039 87.9257C33.7768 87.3986 34.8308 87.504 35.4633 88.3473C35.9903 89.0852 35.8849 89.9284 35.3579 90.5609C35.5687 90.7717 35.6741 90.9825 35.7795 91.2987C36.0958 92.142 35.5687 93.1961 34.7255 93.5123C34.5146 93.6177 34.4092 93.6177 34.1984 93.6177C33.3552 93.5123 32.7226 93.0907 32.4064 92.3528ZM83.951 87.5041C83.3186 86.7662 83.4241 85.7121 84.1619 85.0797C84.8998 84.4472 85.9538 84.5526 86.5862 85.2905C87.2187 86.0283 87.1133 87.0824 86.3755 87.7149C86.0593 88.0311 85.6376 88.1365 85.216 88.1365C84.689 88.1365 84.2673 87.9257 83.951 87.5041ZM38.3094 86.5554C37.8877 85.7121 38.2039 84.658 39.0472 84.2364C39.8904 83.8148 40.9445 84.131 41.3661 84.9742C41.7877 85.8175 41.4715 86.8716 40.7337 87.2932C40.4175 87.3986 40.2067 87.5041 39.8905 87.5041C39.258 87.3986 38.6256 87.0824 38.3094 86.5554ZM30.8253 85.2905C30.7199 84.3418 31.4578 83.4985 32.301 83.3931C33.2497 83.2877 34.093 83.9202 34.1984 84.8688C34.3038 85.8175 33.5659 86.6608 32.7227 86.7662C32.6173 86.7662 32.6173 86.7662 32.5119 86.7662C31.6687 86.7662 30.9307 86.1337 30.8253 85.2905ZM44.5284 83.4985C44.2121 82.6553 44.6338 81.6012 45.5824 81.285C46.4257 80.9687 47.4799 81.3904 47.7961 82.339C48.1123 83.1823 47.6907 84.2364 46.742 84.5526C46.5312 84.658 46.3203 84.658 46.1095 84.658C45.3716 84.658 44.7392 84.2364 44.5284 83.4985ZM78.9969 83.9202C78.1536 83.4985 77.732 82.5499 78.1536 81.6012C78.5752 80.7579 79.524 80.3363 80.4726 80.7579C81.3159 81.1795 81.7375 82.1282 81.3158 83.0769C80.9996 83.7093 80.3672 84.0256 79.7347 84.0256C79.5239 84.0256 79.2077 84.0256 78.9969 83.9202ZM51.0637 81.3904C50.8529 80.4417 51.4853 79.493 52.3286 79.2822C53.2773 79.0714 54.1205 79.7038 54.3314 80.5471C54.5422 81.4958 53.9098 82.4444 53.0665 82.5499C52.9611 82.5499 52.8557 82.6553 52.6449 82.6553C51.907 82.6553 51.1691 82.1282 51.0637 81.3904ZM72.8832 82.0228C71.9345 81.812 71.3021 80.9687 71.5129 80.0201C71.7238 79.0714 72.5669 78.4389 73.5156 78.6497C74.4643 78.8606 75.0968 79.7038 74.886 80.6525C74.6751 81.4958 74.0427 82.0228 73.1995 82.0228C73.094 82.0228 72.9886 82.0228 72.8832 82.0228ZM57.8099 80.0201C57.7045 79.0714 58.4423 78.2281 59.391 78.1227C60.3397 78.0173 61.1829 78.7552 61.2883 79.7038C61.3937 80.6525 60.6558 81.4958 59.7072 81.6012H59.6018C58.5477 81.6012 57.8099 80.9687 57.8099 80.0201ZM66.2425 81.3904C65.2939 81.3904 64.5559 80.5471 64.5559 79.5984C64.5559 78.6498 65.3992 77.9119 66.3479 77.9119C67.2966 77.9119 68.0344 78.7552 68.0344 79.7038C68.0344 80.6525 67.2966 81.3904 66.2425 81.3904C66.3479 81.3904 66.3479 81.3904 66.2425 81.3904ZM32.4064 80.0201C31.4577 79.9146 30.8254 79.0714 30.9308 78.1227C31.0362 77.174 31.8794 76.4362 32.8281 76.5416C33.7767 76.647 34.5146 77.4903 34.4092 78.4389C34.3038 79.2822 33.5659 80.0201 32.7227 80.0201C32.5119 80.0201 32.4064 80.0201 32.4064 80.0201ZM33.3551 73.1685C32.4064 72.9577 31.8794 72.009 32.0903 71.0604C32.3011 70.1117 33.2498 69.5847 34.1984 69.7955C35.0417 70.0063 35.6741 70.955 35.4633 71.9036C35.2525 72.7469 34.62 73.1685 33.7768 73.1685C33.6714 73.1685 33.4605 73.1685 33.3551 73.1685ZM35.1471 66.5278C34.3039 66.2116 33.7768 65.2629 34.093 64.3142C34.4093 63.471 35.4633 62.9439 36.3066 63.2602C37.1499 63.5764 37.6769 64.5251 37.2553 65.4737C37.0445 66.2116 36.412 66.6332 35.6742 66.6332C35.5688 66.6332 35.3579 66.6332 35.1471 66.5278ZM37.6768 60.0979C36.8336 59.6763 36.5174 58.6222 36.8336 57.7789C37.2553 56.9357 38.3093 56.6194 39.1526 56.9357C39.9958 57.3573 40.4175 58.306 39.9959 59.2546C39.6796 59.8871 39.0472 60.2033 38.4148 60.2033C38.2039 60.3087 37.8876 60.2033 37.6768 60.0979ZM40.8391 53.9842C39.9958 53.5626 39.6796 52.5085 40.2066 51.6653C40.6283 50.822 41.6824 50.5058 42.5257 50.9274C43.369 51.349 43.6851 52.4031 43.2635 53.2464C42.9473 53.7734 42.3148 54.0896 41.7878 54.0896C41.3661 54.195 41.0499 54.0896 40.8391 53.9842ZM43.8959 47.8706C43.0527 47.5543 42.631 46.5002 42.9472 45.657C43.3689 44.8137 44.3176 44.3921 45.1609 44.7083C46.0042 45.0245 46.4257 46.0786 46.1095 46.9219C45.7932 47.5543 45.2662 47.976 44.5284 47.976C44.4229 47.976 44.1067 47.976 43.8959 47.8706ZM46.3204 41.4407C45.3717 41.2298 44.8446 40.3866 45.0554 39.4379C45.2662 38.4892 46.2149 37.9622 47.1636 38.173C48.1122 38.3838 48.6393 39.2271 48.4285 40.2812C48.2177 41.1244 47.5853 41.6515 46.742 41.6515C46.5312 41.4407 46.4258 41.4407 46.3204 41.4407ZM45.6879 32.9026C45.6879 31.9539 46.4258 31.2161 47.3745 31.1107C48.3231 31.1107 49.0609 31.8485 49.1663 32.7972C49.1663 33.7459 48.4285 34.5891 47.4798 34.5891C46.4258 34.5891 45.6879 33.8513 45.6879 32.9026ZM44.6339 26.7889C44.3176 25.9457 44.7393 24.8916 45.6879 24.5754C46.5312 24.2591 47.5853 24.7862 47.9015 25.6294C48.2177 26.4727 47.6907 27.5268 46.8474 27.843C46.6366 27.843 46.4258 27.9484 46.3204 27.9484C45.4771 27.843 44.8447 27.4214 44.6339 26.7889ZM41.577 21.3077C40.9445 20.5698 41.0499 19.5158 41.7878 18.8833C42.5256 18.2509 43.5798 18.3563 44.2122 19.0941C44.8447 19.832 44.7392 20.8861 43.8959 21.5185C43.5797 21.8347 43.2635 21.9401 42.8418 21.9401C42.3148 21.9401 41.8932 21.7293 41.577 21.3077ZM36.8336 17.1968C35.9904 16.6697 35.7796 15.6157 36.2012 14.7724C36.7282 13.9291 37.7823 13.7183 38.5201 14.2453C39.3634 14.7724 39.5742 15.8265 39.1526 16.5643C38.8363 17.0914 38.3093 17.4076 37.6768 17.4076C37.3606 17.4076 37.1499 17.3022 36.8336 17.1968Z" fill="#A5E1D2"/>
    <path d="M29.1388 0.0152697C27.136 0.226086 26.1873 1.70181 25.4495 3.38834C24.6062 5.18028 23.9738 7.18303 24.29 9.18579C24.29 9.3966 24.3954 9.60742 24.5008 9.81823C24.0792 9.92364 23.6576 10.1345 23.3413 10.6615C22.3927 12.2426 21.1277 13.9292 20.8115 15.7211C20.4953 17.9347 22.3926 19.6212 24.5008 19.0942C26.3981 18.5671 27.136 17.1968 27.5577 15.4049C28.0847 13.6129 28.5064 11.3994 27.8739 9.60741C27.8739 9.50201 27.7684 9.3966 27.663 9.29119C27.9793 9.29119 28.4009 9.08038 28.7171 8.76415C29.8766 7.39385 31.5632 5.91813 32.0903 4.12619C33.0389 1.80721 31.4578 -0.195547 29.1388 0.0152697ZM29.3497 3.38834C29.3497 3.38834 29.4551 3.38834 29.3497 3.38834C29.4551 3.28293 29.3497 3.38834 29.3497 3.38834C29.4551 3.49374 29.4551 3.49374 29.3497 3.38834Z" fill="#A5E1D2"/>
    <path d="M31.6692 9.39638C30.9313 7.81526 26.6096 6.33954 26.188 6.12873H26.0825C25.8717 6.02332 25.6609 6.02331 25.4501 5.91791C25.1338 5.8125 24.9231 5.8125 24.6069 5.8125C24.5015 5.8125 24.2906 5.8125 24.1852 5.8125H24.0798C23.0257 5.8125 21.7608 5.91791 20.9176 6.55036C19.7581 7.39363 19.7581 9.08016 19.8635 9.71261C20.4959 12.9803 28.7178 13.7181 29.3502 13.6127C29.9827 13.6127 31.2475 13.2965 31.6692 12.7694C32.5124 11.8208 32.1962 10.4505 31.6692 9.39638Z" fill="#14555A"/>
</svg>
