<svg width="158" height="128" viewBox="0 0 158 128" fill="none"
    xmlns="http://www.w3.org/2000/svg">
    <g clip-path="url(#clip0_1561_135509)">
        <path opacity="0.5625" d="M41.1761 30.418C41.1761 30.9049 41.1382 31.3919 41.1004 31.8789C41.1004 31.9538 41.1004 32.0287 41.1761 32.0287C41.4413 31.7291 41.9716 31.7291 42.2747 31.9913C42.6156 32.2535 42.7292 32.6281 42.805 33.0402C42.8807 33.3773 42.8429 33.7893 42.6156 34.0516C42.3883 34.2763 42.0474 34.3887 41.7443 34.4262C41.5549 34.4262 41.3276 34.4636 41.1004 34.4262C40.8731 34.3887 40.7216 34.2389 40.6079 34.0516" fill="#007272"/>
        <path opacity="0.5625" d="M41.2141 30.3057C41.8202 30.5302 42.5021 30.5677 43.1081 30.4554C43.1839 30.4554 43.2218 30.4179 43.2975 30.3805" fill="#007272"/>
        <path opacity="0.5625" d="M46.631 31.3542C46.5174 31.2418 46.2901 31.2418 46.1007 31.2792C45.7219 31.3916 45.3431 31.6164 45.0779 31.9161C44.8128 32.2157 44.6612 32.6653 44.6991 33.0398C44.737 33.3021 44.8506 33.5643 45.0022 33.789C45.2294 34.0887 45.5325 34.3884 45.8734 34.5008C46.2143 34.6506 46.6689 34.6132 46.9719 34.3884C47.275 34.1636 47.4644 33.7516 47.4644 33.3395C47.4644 32.9275 47.3129 32.5903 47.1235 32.2532C46.9719 31.991 46.8204 31.7662 46.5553 31.6164C46.328 31.4665 45.9871 31.3542 45.7219 31.4291" fill="#007272"/>
        <path d="M65.988 36.4113C65.9122 35.3999 65.8364 34.9878 64.8894 35.25C56.139 37.4227 55.6844 32.2532 48.6008 29.2939C45.7597 28.0952 43.146 27.9079 40.267 28.3574C38.1078 28.8819 37.7669 28.3949 37.5775 29.8933C37.1987 33.6018 37.1987 37.7224 37.6154 41.4683C37.729 42.3674 38.1457 43.3413 38.8655 43.1915C49.2826 41.5807 50.9115 50.9831 60.2301 50.5711C62.5787 50.4962 66.5183 50.0466 66.7077 49.8219C66.935 49.5222 66.291 41.0563 65.988 36.4113Z" fill="#28B482"/>
        <path d="M43.2975 33.302C43.4491 32.7026 43.3354 32.1407 42.8808 31.6912C42.6157 31.4664 42.3126 31.3166 41.9717 31.2791C41.8202 31.2417 41.7065 31.2791 41.555 31.3166C41.5929 31.0169 41.5929 30.7172 41.5929 30.3801C42.2369 30.5299 42.9187 30.5299 43.5248 30.3426C43.9415 30.2303 43.6385 29.5934 43.2218 29.7433C42.6536 29.9306 41.9338 29.8182 41.3656 29.6309C41.2899 29.6309 41.2141 29.5934 41.1762 29.6309C41.0626 29.6684 40.9111 29.7433 40.9111 29.9306C40.8732 30.4925 40.9111 31.0918 40.8353 31.6537C40.8353 31.841 40.9868 31.9909 41.1383 32.0283C41.3277 32.0658 41.5171 31.9534 41.7066 31.9534C42.1611 31.9534 42.502 32.1782 42.6536 32.6277C42.9187 33.6391 41.4793 34.3508 40.9489 33.3769C40.7595 32.9648 40.1534 33.302 40.3429 33.6766C41.0247 34.9502 42.9187 34.7629 43.2975 33.302Z" fill="#A5E1D2"/>
        <path d="M45.5703 33.9389C45.0021 33.5643 44.6991 32.8151 45.0021 32.1782C45.1536 31.8786 45.3809 31.6163 45.9491 31.5414C46.6689 31.4665 47.3507 32.1033 47.3128 33.0024C47.2371 33.8265 46.2522 34.3509 45.5703 33.9389ZM47.9947 33.0773C48.0704 31.8411 46.9719 30.4176 45.6461 30.9046H45.6082C45.1536 31.017 44.6991 31.2792 44.4339 31.6913C43.7899 32.6652 44.2445 34.2011 45.3052 34.6131C46.4416 35.1376 47.9189 34.276 47.9947 33.0773Z" fill="#A5E1D2"/>
        <path fill-rule="evenodd" clip-rule="evenodd" d="M45.7599 113.016C45.7599 113.016 42.9188 113.016 32.4638 115.488C22.0087 117.961 8.7505 120.021 2.1214 108.895C-4.50771 97.7697 5.90946 91.5888 11.137 89.5286C16.3645 87.4683 44.3204 75.1066 129.703 84.5839C141.067 86.2321 154.364 86.7191 157.697 99.2681C161.031 111.817 133.037 110.581 133.037 110.581C133.037 110.581 123.567 111.405 120.233 119.646C116.9 127.887 94.6258 132.832 68.5261 120.882C55.7225 113.877 45.7599 113.016 45.7599 113.016Z" fill="#F2F4EC"/>
        <path fill-rule="evenodd" clip-rule="evenodd" d="M59.2208 33.1952C53.9654 36.4567 40.9359 47.078 37.2745 73.7585C36.9336 76.1185 36.3275 78.441 35.3805 80.6136C32.5015 87.3939 29.0544 101.554 47.9189 105.225C49.1059 105.428 50.3941 105.667 51.7753 105.922C64.6323 108.302 85.5512 112.173 107.922 103.277C111.899 101.479 119.627 97.9575 114.21 82.599C113.377 80.2016 112.771 77.6918 112.505 75.1445C111.606 66.0611 108.516 45.272 89.0984 32.3891L88.5427 31.9655C88.6159 31.8477 88.7137 31.6925 88.8328 31.5035L88.833 31.5032C91.8847 26.6601 108.965 -0.445819 86.8602 6.78051C85.4965 4.53293 74.7005 -7.37927 63.109 7.00527C60.4582 5.99415 41.263 -0.295754 61.4249 31.963L61.0245 32.1845C60.6802 32.3533 60.1354 32.6384 59.436 33.0631L59.2073 33.1896C59.2118 33.1915 59.2163 33.1934 59.2208 33.1952Z" fill="#007272"/>
        <path opacity="0.4" d="M94.6257 100.992C96.9743 98.5196 99.3229 96.0473 101.141 93.2003C102.959 90.3534 104.247 87.0569 104.247 83.6855C106.899 86.083 103.338 94.4365 100.118 98.6694C99.0198 100.093 97.6561 101.479 95.8757 101.854C95.5727 101.928 95.2696 101.966 94.9666 101.816C94.7014 101.666 94.512 101.329 94.7014 101.067" fill="#14555A"/>
        <path opacity="0.4" d="M57.086 100.28C54.548 98.1451 52.01 95.9725 50.0402 93.3128C47.4265 89.7916 45.987 85.4463 45.9491 81.0635C45.6082 82.412 45.4567 83.798 45.5324 85.1466C45.6082 86.4577 45.8734 87.7688 46.2143 89.0799C46.5552 90.4659 47.0098 91.8519 47.6537 93.1255C49.169 96.1598 51.7827 98.4448 54.3586 100.692C54.8511 101.142 55.4193 101.591 56.1011 101.554C56.7451 101.517 57.3133 100.617 56.783 100.205" fill="#14555A"/>
        <path opacity="0.4" d="M69.8518 37.6094C69.1699 38.0214 68.4881 38.4335 67.9199 38.9579C67.4653 39.37 67.0865 39.8944 66.6319 40.3065C64.9273 41.9922 62.4651 42.629 60.1165 43.1909C60.3437 44.0525 62.806 43.4906 64.0939 43.0785C65.3819 42.6664 66.5562 41.9547 67.6168 41.1306C68.7154 40.2316 69.9654 39.0328 69.8518 37.6094Z" fill="#14555A"/>
        <path opacity="0.4" d="M79.89 37.2351C79.284 38.0592 80.7613 42.8166 81.9735 45.1391C83.1478 47.4616 86.7465 51.2076 87.542 50.3835C85.5343 48.1733 83.9812 45.5512 83.0342 42.7417C82.4281 41.0185 82.0114 39.1455 80.8749 37.7221C80.6098 37.4224 80.2689 37.1227 79.89 37.2351Z" fill="#14555A"/>
        <path opacity="0.4" d="M72.9581 28.8437C73.9429 29.1434 74.7006 29.3307 75.5339 28.7688C76.0643 28.3942 76.3294 27.7948 76.4809 27.1954C77.1249 25.0228 76.8976 22.6628 76.3673 20.4527C75.837 18.2426 75.0415 16.1074 74.549 13.8972C75.3066 12.8484 76.6325 17.868 77.3143 20.0406C77.9583 22.1384 78.5265 24.2361 79.0568 26.3713C79.2084 26.9332 79.322 27.4951 79.6629 27.9821C80.0796 28.6189 80.7615 29.1059 81.1781 29.7052C81.4054 30.0424 81.216 30.5668 80.7993 30.6792C77.8825 31.5408 75.7991 31.3909 71.4049 30.5668C71.1777 30.5294 71.1398 30.2297 71.1398 30.0049C71.1019 29.1434 72.1626 28.4691 72.9581 28.8437Z" fill="#14555A"/>
        <path d="M103.566 37.6467C102.732 38.8829 99.8154 38.4333 97.0501 36.6353C94.2848 34.8372 92.6938 32.3274 93.5272 31.1287C93.7166 30.829 94.4742 29.6303 94.853 29.5179C96.141 29.1433 97.8835 30.7541 100.043 32.1401C102.278 33.601 104.475 34.575 104.513 35.8861C104.513 36.2232 103.717 37.4219 103.566 37.6467Z" fill="#007272"/>
        <path d="M104.331 36.5296C105.159 35.2851 103.577 32.8109 100.798 31.0033C98.0186 29.1958 95.0946 28.7393 94.2669 29.9839C93.4392 31.2284 95.0212 33.7026 97.8004 35.5102C100.58 37.3177 103.504 37.7742 104.331 36.5296Z" fill="#A5E1D2"/>
        <path d="M45.5865 59.5608C45.0246 60.6827 42.5182 60.5832 39.9861 59.3379C37.4911 58.0845 35.8953 56.1721 36.4572 55.0502C36.5926 54.7901 37.0066 53.7008 37.3311 53.5909C38.3538 53.135 40.0969 54.324 42.0576 55.2731C44.0717 56.2872 46.0321 56.891 46.1604 57.9757C46.2634 58.2601 45.7014 59.3819 45.5865 59.5608Z" fill="#14555A"/>
        <path d="M46.108 58.5602C46.6794 57.4318 45.1106 55.5108 42.6039 54.2695C40.0972 53.0283 37.602 52.9368 37.0306 54.0652C36.4592 55.1936 38.028 57.1146 40.5347 58.3559C43.0414 59.5971 45.5366 59.6886 46.108 58.5602Z" fill="#A5E1D2"/>
        <path d="M133.075 73.0095C133.984 74.1708 132.658 76.793 130.082 78.8533C127.506 80.9136 124.627 81.6253 123.68 80.464C123.453 80.2018 122.468 79.1904 122.506 78.8158C122.506 77.5047 124.665 76.2311 126.673 74.6203C128.756 72.9721 130.385 71.2115 131.673 71.5861C131.976 71.6985 132.923 72.8222 133.075 73.0095Z" fill="#007272"/>
        <path d="M129.18 77.8263C131.802 75.7674 133.167 73.1527 132.23 71.9862C131.293 70.8197 128.409 71.5432 125.787 73.6021C123.166 75.661 121.801 78.2757 122.738 79.4422C123.675 80.6087 126.559 79.8852 129.18 77.8263Z" fill="#A5E1D2"/>
        <path d="M31.4993 75.0088C32.1947 76.2641 30.4807 78.5407 27.6385 80.0336C24.8329 81.5355 21.966 81.7473 21.2705 80.492C21.1058 80.219 20.3733 79.109 20.4292 78.7366C20.6709 77.4834 22.9513 76.6617 25.1406 75.4309C27.4495 74.1913 29.2901 72.7962 30.428 73.3892C30.694 73.5715 31.3713 74.745 31.4993 75.0088Z" fill="#007272"/>
        <path d="M26.9428 78.8243C29.7755 77.3063 31.5062 75.0436 30.8084 73.7703C30.1107 72.4971 27.2487 72.6954 24.4161 74.2134C21.5834 75.7314 19.8527 77.9941 20.5505 79.2674C21.2482 80.5406 24.1102 80.3423 26.9428 78.8243Z" fill="#A5E1D2"/>
        <path d="M106.407 121.07C106.407 122.756 103.338 124.179 99.5123 124.142C95.7243 124.142 92.6181 122.756 92.6181 121.07C92.6181 120.695 92.4665 119.122 92.7317 118.747C93.7166 117.586 96.5576 117.961 99.4744 117.923C102.581 117.923 105.27 117.511 106.141 118.747C106.407 119.085 106.444 120.733 106.407 121.07Z" fill="#007272"/>
        <path d="M99.5185 122.456C103.326 122.449 106.41 121.068 106.407 119.372C106.403 117.675 103.314 116.306 99.5065 116.313C95.6989 116.32 92.6149 117.701 92.6182 119.398C92.6215 121.094 95.7109 122.464 99.5185 122.456Z" fill="#A5E1D2"/>
        <path d="M72.0109 76.8299L68.3744 71.8477C68.2986 71.7354 68.1092 71.6979 67.9956 71.8103L66.9349 72.9715C66.897 73.009 66.8591 73.0839 66.8591 73.1214V76.6801C66.8591 76.8299 66.7455 76.9048 66.6319 76.9048H63.9802C63.8287 76.9048 63.7529 76.7924 63.7529 76.6801V58.6994C63.7529 58.5495 63.8666 58.4746 63.9802 58.4746H66.6319C66.7834 58.4746 66.8591 58.587 66.8591 58.6994V68.7011C66.8591 68.9259 67.1622 69.0383 67.2758 68.851L71.5185 63.8314C71.5563 63.7939 71.6321 63.7564 71.7079 63.7564H74.8898C75.1171 63.7564 75.2308 64.0187 75.0792 64.1685L70.1926 69.4503C70.1169 69.5252 70.1169 69.6751 70.1926 69.75L75.5338 76.5677C75.6474 76.7175 75.5338 76.9423 75.3444 76.9423H72.2003C72.1245 76.9048 72.0488 76.8674 72.0109 76.8299Z" fill="#A5E1D2"/>
        <path d="M85.4584 63.8313V66.0039C85.4584 66.1538 85.3069 66.2662 85.1554 66.2287C84.8523 66.1912 84.5114 66.1538 84.1326 66.1538C83.0341 66.1538 82.2007 66.4535 81.5946 67.0154C80.9885 67.5773 80.6855 68.4014 80.6855 69.5252V76.68C80.6855 76.8298 80.5718 76.9422 80.4203 76.9422H77.8065C77.655 76.9422 77.5414 76.8298 77.5414 76.68V63.9811C77.5414 63.8313 77.655 63.7189 77.8065 63.7189H80.0415C80.193 63.7189 80.3067 63.8313 80.3067 63.9811V64.9925C80.3067 65.2173 80.6097 65.3297 80.7612 65.1424C81.0643 64.7303 81.4431 64.3932 81.8977 64.131C82.5795 63.7189 83.375 63.4941 84.2084 63.4941C84.5872 63.4941 84.9281 63.5316 85.2311 63.5691C85.3827 63.6065 85.4584 63.7189 85.4584 63.8313Z" fill="#A5E1D2"/>
        <path d="M135.84 39.7445C135.461 39.0703 135.31 39.1826 134.741 39.6696C129.703 43.9026 125.423 41.6924 119.627 42.6664C117.278 43.041 115.498 44.1648 113.831 45.6632C113.225 46.3374 112.278 46.8993 112.733 47.7235C114.096 50.2333 115.65 53.0427 116.975 55.4402C117.316 56.0395 118.377 58.0624 118.642 57.8751C124.665 52.5558 132.999 56.8262 138.832 52.7431C140.31 51.7317 142.431 50.0085 142.469 49.3342C142.583 47.9857 137.545 42.7788 135.84 39.7445Z" fill="#A5E1D2"/>
        <path d="M115.498 48.8471C115.043 48.3226 114.816 47.536 114.551 46.9366C114.437 46.7119 114.059 46.7119 113.983 46.9741C113.907 47.1614 113.869 47.2363 113.831 47.4236C113.718 47.7607 114.172 47.7982 114.286 47.4611C114.475 47.948 114.854 48.8096 115.157 49.2217C115.384 49.4839 115.763 49.1467 115.498 48.8471Z" fill="#007272"/>
        <path d="M116.028 47.7606C115.65 47.5733 115.347 47.0114 115.384 46.5619C115.384 46.3372 115.422 46.1499 115.725 46.0749C116.104 45.9251 116.597 46.3746 116.748 47.0114C116.862 47.6108 116.521 48.0228 116.028 47.7606ZM115.46 45.6254C115.46 45.6254 115.422 45.6254 115.46 45.6254C115.233 45.7753 115.006 45.9626 114.93 46.2997C114.778 47.0863 115.309 48.0978 115.991 48.3225C116.71 48.5473 117.392 47.7981 117.165 46.974C116.975 46.0749 116.104 45.1759 115.46 45.6254Z" fill="#007272"/>
        <path d="M118.074 46.5997C117.695 46.4124 117.354 45.888 117.354 45.401C117.354 45.1763 117.43 44.989 117.657 44.914C118.074 44.8017 118.566 45.1763 118.718 45.8131C118.945 46.4124 118.566 46.862 118.074 46.5997ZM119.21 45.7756C118.983 44.914 118.074 44.015 117.468 44.4645H117.43C117.203 44.6144 117.013 44.8391 116.938 45.1388C116.786 45.888 117.354 46.9369 118.036 47.1242C118.794 47.4239 119.438 46.6747 119.21 45.7756Z" fill="#007272"/>
        <path d="M120.347 45.8878C119.968 45.7005 119.627 45.1761 119.627 44.6891C119.627 44.4643 119.703 44.277 119.93 44.2021C120.347 44.0897 120.839 44.4643 120.991 45.1012C121.18 45.7005 120.839 46.1126 120.347 45.8878ZM121.483 45.0637C121.256 44.2021 120.347 43.3031 119.741 43.7526H119.703C119.476 43.9024 119.286 44.1272 119.21 44.4269C119.059 45.1761 119.627 46.225 120.309 46.4123C121.067 46.6745 121.71 45.9253 121.483 45.0637Z" fill="#007272"/>
        <path d="M93.8682 81.1004C93.6409 80.9506 93.7546 80.6134 94.0197 80.6134C99.7776 80.1639 105.384 78.9652 110.233 77.4668C110.233 77.4668 113.642 78.628 116.218 88.892C116.597 90.353 117.581 93.5745 118.377 94.8856C120.195 97.8449 123.264 100.954 127.468 102.602C127.696 102.677 127.696 103.014 127.468 103.089C127.468 103.089 122.089 105.374 119.968 106.049C116.256 107.21 111.483 108.184 111.483 108.184C111.483 108.184 103.111 104.85 100.952 95.5599C98.679 85.8578 95.2698 82.2242 93.8682 81.1004Z" fill="#28B482"/>
        <path d="M108.225 83.385C108.793 83.1977 109.172 82.8231 109.323 82.2612C109.361 81.9241 109.323 81.6619 109.21 81.3622C109.134 81.2498 109.058 81.1749 108.945 81.0625C109.21 80.9127 109.475 80.7629 109.74 80.6505C109.93 81.2498 110.271 81.7743 110.725 82.1489C111.028 82.4111 111.407 81.8492 111.066 81.6244C110.611 81.2498 110.384 80.6505 110.233 80.126C110.233 80.0511 110.195 80.0137 110.119 79.9762C110.043 79.8638 109.892 79.8264 109.778 79.9013C109.323 80.1635 108.831 80.4632 108.339 80.6879C108.187 80.7629 108.111 80.9876 108.187 81.1375C108.263 81.2873 108.452 81.3997 108.528 81.5495C108.755 81.9241 108.755 82.2987 108.452 82.6358C107.77 83.3476 106.482 82.5235 107.013 81.6619C107.202 81.3248 106.672 80.9502 106.482 81.3248C105.801 82.4111 106.899 83.8346 108.225 83.385Z" fill="#A5E1D2"/>
        <path d="M108.869 85.4833C108.869 84.884 109.361 84.2472 110.005 84.1723C110.308 84.1348 110.611 84.1723 110.99 84.5843C111.407 85.1088 111.218 86.0078 110.46 86.3824C109.778 86.7944 108.869 86.27 108.869 85.4833ZM110.763 87.0192C111.786 86.4573 112.43 84.9215 111.369 84.0973L111.331 84.0599C111.028 83.7602 110.574 83.498 110.119 83.498C109.021 83.4605 107.998 84.5843 108.149 85.6332C108.339 86.7944 109.74 87.5436 110.763 87.0192Z" fill="#A5E1D2"/>
        <path d="M29.8119 108.446C29.8498 109.87 27.2739 111.106 24.0162 111.143C20.7963 111.218 18.1826 110.057 18.1447 108.634C18.1447 108.296 17.9932 106.985 18.2205 106.686C19.0159 105.712 21.4403 105.974 23.9404 105.899C26.5542 105.862 28.827 105.449 29.5846 106.498C29.774 106.798 29.8119 108.184 29.8119 108.446Z" fill="#007272"/>
        <path d="M23.9486 109.752C27.1697 109.696 29.76 108.476 29.734 107.028C29.708 105.58 27.0757 104.453 23.8545 104.509C20.6334 104.566 18.0431 105.785 18.0691 107.233C18.0951 108.681 20.7274 109.809 23.9486 109.752Z" fill="#A5E1D2"/>
        <path d="M60.7066 108.767C61.8119 109.367 63.8313 107.942 65.2239 105.532C66.6165 103.122 66.8543 100.65 65.7823 100.032C65.5407 99.9063 64.5506 99.2017 64.2481 99.2789C63.1352 99.45 62.3542 101.404 61.2318 103.285C60.1122 105.25 58.8424 106.784 59.3179 107.807C59.4444 108.038 60.5164 108.656 60.7066 108.767Z" fill="#14555A"/>
        <path d="M64.2592 104.859C65.6264 102.415 65.8147 99.9301 64.6796 99.3091C63.5446 98.6882 61.5162 100.166 60.149 102.61C58.7818 105.054 58.5936 107.539 59.7286 108.159C60.8636 108.78 62.892 107.303 64.2592 104.859Z" fill="#A5E1D2"/>
    </g>
    <defs>
        <clipPath id="clip0_1561_135509">
            <rect width="158" height="128" fill="white"/>
        </clipPath>
    </defs>
</svg>
