<svg width="145" height="145" viewBox="0 0 145 145" fill="none"
    xmlns="http://www.w3.org/2000/svg">
    <g clip-path="url(#clip0)">
        <path d="M0 72.2444C0 32.3449 32.6005 0 72.5 0C112.399 0 145 32.3449 145 72.2444C145 112.144 112.399 144.489 72.5 144.489C32.6005 144.489 0 112.144 0 72.2444Z" fill="#14555A"/>
        <path d="M130.835 144.168C130.449 141.216 129.225 131.849 129.354 130.245C129.547 128.513 129.29 127.807 129.29 126.075C129.29 124.021 129.547 118.375 129.29 116.258C128.066 106.762 126.907 96.176 125.684 83.9214C85.5707 83.8572 58.5281 82.959 18.4792 80.7134C19.767 85.6537 17.5779 99.3198 18.2861 109.778C18.5437 114.077 18.9944 114.59 18.93 115.616C18.8656 116.964 17.4491 118.504 17.3203 119.915C16.8052 126.267 16.9984 152.829 17.7066 159.695C17.8354 161.17 20.0246 161.299 19.9602 161.684C18.6724 175.67 19.1875 192.93 19.0587 202.04C18.8012 219.556 17.449 215.193 25.5618 218.594C32.7732 221.673 71.47 221.353 72.629 217.824C74.5606 212.049 73.2084 165.597 75.14 152.252C75.4619 150.006 73.6591 134.415 75.9127 134.287C78.5526 134.095 79.454 153.92 80.4842 163.416C84.0255 197.357 83.1884 191.711 83.7679 216.412C83.7679 216.926 94.9069 221.353 104.951 221.353C104.951 221.353 119.696 220.903 124.203 219.492C128.066 218.337 138.175 217.631 137.853 211.857C136.501 189.208 134.054 167.009 130.835 144.168Z" fill="#007272"/>
        <path d="M117.829 129.155C117.829 127.615 119.052 126.331 120.662 126.331C122.207 126.331 123.495 127.615 123.495 129.155C123.495 130.694 122.207 131.978 120.662 131.978C119.116 132.042 117.829 130.759 117.829 129.155ZM112.742 130.694C111.261 130.181 110.488 128.513 111.004 127.101C111.519 125.626 113.193 124.856 114.674 125.369C116.154 125.882 116.863 127.55 116.412 128.962C115.961 130.117 114.867 130.823 113.708 130.823C113.386 130.887 113.064 130.823 112.742 130.694ZM125.169 128.962C124.139 127.807 124.267 126.011 125.426 124.984C126.585 123.958 128.388 124.086 129.418 125.241C130.448 126.46 130.32 128.192 129.161 129.219C128.646 129.668 127.937 129.924 127.293 129.924C126.521 129.989 125.748 129.604 125.169 128.962ZM105.788 125.947C104.758 124.792 104.822 122.995 105.981 121.969C107.14 120.942 108.943 121.07 109.973 122.225C111.068 123.38 110.939 125.177 109.78 126.203C109.265 126.652 108.557 126.909 107.913 126.909C107.14 126.909 106.368 126.588 105.788 125.947ZM101.539 119.145C100.959 117.67 101.603 116.002 103.02 115.424C104.5 114.783 106.174 115.488 106.818 116.9C107.398 118.311 106.754 119.98 105.337 120.621C104.951 120.749 104.565 120.814 104.179 120.814C103.084 120.878 101.989 120.236 101.539 119.145ZM99.285 111.831C98.8987 110.291 99.9289 108.752 101.474 108.431C103.019 108.11 104.565 109.072 104.887 110.612C105.209 112.152 104.243 113.628 102.698 114.013C102.504 114.077 102.311 114.077 102.118 114.077C100.766 114.077 99.607 113.179 99.285 111.831ZM98.3192 104.324C98.2548 102.72 99.5426 101.437 101.088 101.437C102.633 101.373 103.921 102.592 103.985 104.196C103.985 104.196 103.985 104.196 103.985 104.26C104.05 105.8 102.762 107.083 101.217 107.148C101.152 107.212 101.152 107.212 101.152 107.212C99.607 107.083 98.3192 105.8 98.3192 104.324Z" fill="#00343E"/>
        <path d="M39.9198 123.701C39.8554 123.508 40.1774 121.712 40.1774 121.455C40.113 117.477 40.8856 116.964 35.2195 116.258C30.3905 115.617 30.0686 116.002 25.2395 115.424C24.7244 115.36 23.6942 116.002 24.2093 116.066C27.7506 116.836 24.7245 116.322 28.2658 117.028C29.6823 117.285 35.5415 117.798 36.8937 118.376C38.8253 119.145 37.4087 120.749 38.117 122.482C31.2275 120.749 27.9438 123.188 21.1188 120.814C20.4105 120.557 19.2515 120.493 18.8008 121.006C18.7364 120.172 19.1872 119.98 19.1872 119.98C20.2818 118.247 19.3159 117.67 18.9296 115.937C18.4789 116.707 17.2556 119.145 17.2556 120.172C17.1912 121.519 17.1268 134.993 17.0624 140.254C16.998 147.953 17.3199 158.732 17.835 160.144C17.8994 160.336 18.157 160.657 18.5433 160.85C19.1872 161.17 19.8954 161.427 19.9598 161.62C19.831 162.582 27.9438 163.224 28.0726 163.031C28.8452 163.159 30.3262 160.85 31.0988 160.721C36.958 159.566 31.6783 159.502 27.9438 159.695C25.8834 159.759 25.819 160.144 23.7587 159.695C21.6983 159.117 20.99 154.819 20.3461 153.856C19.6378 152.765 19.8954 141.666 19.831 138.843C19.7023 135.57 19.7023 125.433 19.5735 123.123C19.6379 123.188 19.7023 123.252 19.831 123.316C26.141 124.984 29.2959 123.829 35.799 124.599C38.117 124.856 37.0868 134.287 37.1511 136.597C37.2155 138.073 37.0224 139.613 36.958 141.088C36.8293 144.553 36.7005 147.953 36.3142 151.354C36.2498 151.867 37.0868 151.995 37.2156 151.482" fill="#14555A"/>
        <path d="M24.0162 -8.91846C22.9217 23.3541 20.3461 55.8834 17.3843 91.2356C17.0624 94.8928 18.5433 94.4437 22.2134 95.2136C61.8759 103.234 94.7134 99.5765 124.653 95.3419C127.551 94.957 128.967 95.0211 128.645 92.0698C126.392 70.1911 126.907 58.8347 124.589 35.7371C123.108 21.0444 121.627 9.81634 120.018 -9.43173C119.889 -10.6508 121.176 -11.2282 122.142 -10.5225C134.376 -1.60419 145 7.24992 152.791 12.3827C153.306 12.7035 153.628 13.5376 154.4 12.896C164.96 3.84943 169.982 -1.98914 177.58 -12.1906C178.03 -12.8322 177.837 -13.2813 177.322 -13.923C171.656 -20.5315 167.278 -25.3435 158.843 -35.2883C154.207 -40.8061 141.652 -55.178 136.179 -60.5033C128.13 -68.395 128.903 -68.01 117.313 -70.1915C115.06 -70.6406 101.088 -71.8596 97.5464 -73.3353C96.7094 -73.6561 96.7738 -73.592 96.4519 -72.6937C95.1641 -69.2932 89.5624 -60.7599 82.0935 -59.0917C68.7653 -56.1404 58.7209 -61.1449 54.3426 -73.6561C54.1494 -74.2336 54.0207 -74.5544 53.3768 -74.4902C41.0145 -72.822 24.982 -69.7424 19.5735 -68.2667C13.843 -66.6627 -7.72666 -31.3104 -16.5477 -13.6663C-17.7067 -11.3565 -24.2098 -0.898422 -24.7249 0.192299C-25.6907 2.37375 -26.3346 1.98878 -24.403 3.40031C-15.9039 9.49554 -4.95804 15.1417 2.8972 17.5798C3.47668 17.7722 4.12055 17.6439 4.50688 17.1948C9.85102 10.7146 17.4487 -2.37411 20.99 -7.50693C21.6982 -8.59765 24.0806 -10.33 24.0162 -8.91846Z" fill="#F2F4EC"/>
        <path d="M188.461 133.068C173.266 107.083 145.901 82.6382 118.279 71.8592C118.215 71.8592 118.151 71.7951 118.086 71.7951C117.249 71.4743 116.412 71.1535 115.575 70.8327C111.519 69.357 108.814 75.5805 112.871 77.1203C140.751 87.3218 166.763 110.163 181.894 136.019C184.083 139.869 190.651 136.854 188.461 133.068Z" fill="#28B482"/>
        <path d="M100.637 52.9321C101.217 53.2529 101.603 53.6378 101.925 54.2794C102.376 55.1777 101.925 54.921 102.762 55.8193C106.432 56.91 111.776 60.4388 114.352 62.5561C115.06 63.1335 116.412 65.315 116.798 66.1491C117.442 67.4964 117.571 68.9721 117.12 71.0252C117.12 71.1535 115.768 78.2753 110.36 80.2643C106.883 81.5475 103.084 80.5851 99.4781 79.3019C97.4177 78.532 95.3573 78.0187 93.4257 76.9922C90.0776 78.8528 86.5363 76.4147 86.2144 72.116C85.9568 68.523 87.4377 64.9301 89.0474 61.8504C90.979 58.1932 93.2326 54.8569 97.1602 52.6754C98.2548 52.0338 99.6069 52.3546 100.637 52.9321Z" fill="#28B482"/>
        <path d="M102.247 55.1136C102.375 56.0118 102.504 56.7176 102.504 57.5516C102.89 65.8283 100.186 72.6935 92.4598 77.4413C91.8803 77.7621 90.335 77.698 90.2706 77.4413C90.2062 77.2488 91.6871 76.2864 91.8803 76.094C99.6711 70.9611 102.311 62.4278 100.379 53.0604C100.251 52.483 101.088 53.1246 101.538 53.6379C101.667 53.8304 102.182 54.6645 102.247 55.1136Z" fill="#006E70"/>
        <path d="M105.531 57.0383C107.656 65.1866 104.243 73.3991 97.2892 78.3394C96.7097 78.7244 95.8083 78.2753 95.6151 78.0186C95.4864 77.8903 96.1946 77.3129 96.3878 77.1846C103.02 72.5009 105.917 64.9299 104.05 57.2307C104.05 57.1024 103.921 56.3325 103.985 56.3325C104.565 56.3967 105.466 56.7175 105.531 57.0383Z" fill="#006E70"/>
        <path d="M122.915 73.9765C122.657 76.158 121.885 78.1469 120.597 79.9434C120.211 80.5208 119.309 79.815 119.76 79.3018C120.983 77.6978 121.627 75.9013 121.885 73.9123C121.949 73.1424 122.979 73.2707 122.915 73.9765Z" fill="#006E70"/>
        <path d="M117.893 71.8593C117.442 73.9766 116.605 75.9014 115.253 77.6337C114.803 78.2111 113.901 77.5054 114.352 76.928C115.575 75.3881 116.348 73.6557 116.734 71.6668C116.927 70.961 118.086 71.0894 117.893 71.8593Z" fill="#006E70"/>
        <path d="M95.6151 62.8127C96.1302 62.5561 96.4521 62.171 96.6453 61.7219C96.9672 61.2086 97.2248 60.6954 97.0961 60.0538C97.0961 60.0538 97.0961 60.0538 97.0961 59.9896C97.0317 59.5405 96.7741 59.2839 96.4522 59.0914L96.3877 59.0272H96.3234C95.937 58.8989 95.5507 58.9631 95.2288 59.0914C93.8767 59.6047 93.0396 61.5936 94.4561 62.6202C94.6493 62.8768 95.2288 63.0052 95.6151 62.8127Z" fill="#1F3740"/>
        <path d="M92.6534 68.7795C93.1685 68.1379 93.6192 67.2397 93.426 66.4056C93.2972 65.8924 92.9753 65.5074 92.4602 65.4432C91.108 65.1866 90.3998 66.6622 90.3354 67.8171C90.3354 68.3304 90.593 68.7154 90.9793 68.9079C91.43 69.357 92.2671 69.2928 92.6534 68.7795Z" fill="#1F3740"/>
        <path d="M133.797 93.0963C136.501 87.5144 138.561 85.4613 143.455 79.4944C162.642 56.0117 179.576 45.297 195.286 23.1617L171.077 10.073C156.139 30.6043 149.507 55.4984 132.058 69.9345C129.032 70.7686 124.46 68.9721 121.499 68.138C119.889 67.6889 118.923 68.3305 117.313 69.2288C117.313 69.2288 117.313 69.6137 117.12 70.8328C117.12 70.9611 116.991 71.346 116.991 71.346C117.313 71.6668 118.472 72.116 118.472 72.116C118.472 72.116 121.177 73.335 121.756 74.1049C122.4 75.0032 124.203 80.5851 117.442 78.8528C116.348 78.5961 114.609 77.5054 113.901 77.3129C113.901 77.3129 113.064 78.8528 109.716 80.5209C107.076 81.8683 114.352 93.8663 119.567 95.7911C121.627 96.561 125.748 96.2402 128.903 96.1119C130.899 95.9194 132.96 94.8928 133.797 93.0963ZM122.142 72.1801H122.207C122.207 72.1801 122.207 72.2443 122.142 72.1801C122.142 72.2443 122.142 72.1801 122.142 72.1801Z" fill="#A5E1D2"/>
        <path d="M73.5304 50.4939C72.8866 50.6864 72.3715 50.9431 71.9207 51.4563C71.2769 52.2263 71.7276 52.098 70.6974 52.7396C66.8342 52.8037 60.653 54.7286 57.5624 56.1401C56.7254 56.525 54.7937 58.2574 54.2143 58.9631C53.2484 60.118 52.669 61.5295 52.6046 63.6468C52.6046 63.7751 51.8963 71.0894 56.661 74.4899C59.7516 76.6713 63.6792 76.7996 67.5425 76.4788C69.796 76.2864 71.9208 76.3505 74.0456 75.8372C76.7498 78.5961 80.935 77.1205 82.4159 73.0784C83.7036 69.6137 83.1885 65.7641 82.4803 62.2994C81.6432 58.1932 80.3555 54.4078 77.1362 51.1998C76.0416 50.3015 74.6894 50.1731 73.5304 50.4939Z" fill="#28B482"/>
        <path d="M71.3412 52.1621C67.6067 61.1446 67.7998 69.1646 74.6893 76.6072C75.14 77.1204 76.6853 77.4413 76.8141 77.1846C76.9429 76.9921 75.7839 75.6447 75.5907 75.4523C69.4095 68.3305 69.2164 59.2839 73.6591 50.7506C73.9166 50.2373 72.9508 50.6223 72.3714 51.0072C72.2426 51.0714 71.5343 51.7772 71.3412 52.1621Z" fill="#006E70"/>
        <path d="M67.6712 53.1245C63.3572 60.4388 64.3875 69.357 69.796 76.0938C70.2467 76.6713 71.2769 76.4147 71.5344 76.2864C71.6632 76.158 71.1481 75.4523 71.0194 75.2598C65.8684 68.9079 65.1601 60.6954 69.0233 53.7661C69.0877 53.6378 69.4096 52.932 69.2809 52.8679C68.7014 52.8037 67.8 52.8679 67.6712 53.1245Z" fill="#006E70"/>
        <path d="M46.037 64.8017C45.6507 66.9831 45.8439 69.1646 46.6809 71.2177C46.9385 71.8593 47.9686 71.4744 47.7111 70.8328C47.0028 68.9079 46.8097 66.9832 47.196 64.9942C47.2604 64.2884 46.1658 64.0959 46.037 64.8017Z" fill="#006E70"/>
        <path d="M51.5099 64.096C51.3167 66.2774 51.6387 68.3947 52.4757 70.4479C52.7332 71.1536 53.8278 70.7045 53.5703 69.9987C52.7976 68.1381 52.5401 66.2132 52.6689 64.2243C52.6689 63.5185 51.5743 63.3902 51.5099 64.096Z" fill="#006E70"/>
        <path d="M78.6166 70.6404C81.6428 70.3837 84.669 70.0629 87.6952 69.7421C90.7214 69.4213 90.0776 64.7377 87.0514 65.0585C84.0252 65.3793 80.999 65.7001 77.9728 65.9567C74.8822 66.2134 75.5905 70.897 78.6166 70.6404Z" fill="#B6D5CC"/>
        <path d="M77.2644 61.9786C80.4838 61.5295 83.7675 61.1445 86.9869 60.8237C90.0131 60.5029 89.3049 55.8192 86.2787 56.14C83.0593 56.4608 79.7756 56.8458 76.5562 57.2949C73.53 57.7441 74.2382 62.4277 77.2644 61.9786Z" fill="#B6D5CC"/>
        <path d="M-237.138 325.87C-220.977 325.741 -124.525 325.164 -109.008 320.994C-83.8322 314.193 -55.7593 295.522 -43.8477 271.911C-34.1896 252.791 -30.1332 230.079 -25.3686 209.355C-14.8091 163.737 -9.65805 91.4282 43.0107 74.3616C47.9685 72.7576 45.9725 65.2508 40.8215 66.534C-2.83302 77.7621 -17.127 130.758 -25.3042 169.19C-30.0689 191.518 -34.8335 213.846 -40.6927 235.917C-43.1394 245.156 -45.5861 254.652 -49.3206 263.506C-56.3388 280.188 -70.1177 291.352 -85.0555 300.847C-106.625 314.642 -211.061 317.721 -237.138 318.299V325.87Z" fill="#28B482"/>
        <path d="M140.622 87.0654C140.686 87.0654 140.686 87.0012 140.622 87.0012C140.557 87.0012 140.557 87.0654 140.622 87.0654Z" fill="#008F72"/>
        <path d="M389.414 334.916C381.494 334.852 307.964 334.339 300.495 333.12C289.614 331.323 275.835 328.051 266.499 321.892C251.883 312.204 242.611 296.292 237.589 280.059C226.965 245.798 220.204 210.51 208.035 176.633C196.381 144.232 178.417 107.212 146.867 89.6959C145.58 88.9901 144.163 90.7224 145.258 91.749C174.167 119.081 191.359 149.622 203.657 187.348C209.774 206.211 215.697 225.395 220.784 244.579C225.227 261.196 227.738 278.455 234.434 294.431C243.706 316.566 260.639 331.452 283.561 337.354C296.31 340.627 376.472 341.653 389.414 341.781V334.916Z" fill="#28B482"/>
        <path d="M-24.4672 3.4646C-24.4672 3.4646 -28.3305 9.7523 -32.3869 16.2966C-35.2843 20.7879 -40.9504 27.5247 -37.2159 35.2239C-33.2239 43.6289 -22.278 38.3036 -23.2438 30.3478C-23.2438 30.3478 -23.1795 30.3477 -23.1795 30.2835C-19.9601 31.8875 -11.461 41.9607 -8.43478 33.1707C-8.43478 33.1707 -0.708359 22.841 2.06029 17.3873C2.06029 17.3873 -9.33622 13.1528 -24.4672 3.4646Z" fill="#A5E1D2"/>
        <path d="M-16.4185 18.7346C3.99222 33.9406 17.0629 44.4629 37.2161 60.3746C41.7232 63.9034 48.4838 57.8724 53.184 60.6313C53.184 60.6313 51.3812 69.1004 55.3732 72.7576C57.3048 74.554 62.5202 76.3505 62.9065 77.3771C63.7435 79.8793 59.6871 80.7134 59.3652 81.9966C58.5282 85.1405 55.8239 83.9214 54.7294 85.9104C53.6348 87.8994 51.6388 88.156 46.8741 87.5144C44.8781 87.2578 43.0108 86.1029 41.3368 84.5631C37.216 80.7776 37.0228 77.8903 32.3226 75.1315C3.21954 58.129 -12.0402 55.4984 -35.606 37.4694" fill="#A5E1D2"/>
    </g>
    <defs>
        <clipPath id="clip0">
            <path d="M0 72.2444C0 32.3449 32.6005 0 72.5 0C112.399 0 145 32.3449 145 72.2444C145 112.144 112.399 144.489 72.5 144.489C32.6005 144.489 0 112.144 0 72.2444Z" fill="white"/>
        </clipPath>
    </defs>
</svg>
