<svg width="116" height="200" viewBox="0 0 116 200" fill="none" xmlns="http://www.w3.org/2000/svg">
<path opacity="0.33" d="M24.4568 163.763C20.9939 163.763 17.3354 164.307 14.6085 166.266C13.1962 167.281 12.1794 168.089 11.6987 169.835C10.9245 172.674 12.6091 173.774 11.6987 174.709C11.1244 175.52 10.4991 175.814 7.61903 176.986C3.7563 178.941 0.561454 181.949 0.161569 187.061C-0.36594 193.885 5.3133 196.919 10.8649 197.051H11.6774C16.7824 197.051 21.6788 195.925 26.6051 194.794C31.5314 193.664 36.4491 192.542 41.537 192.542C43.1349 192.538 44.7307 192.657 46.3101 192.899C53.6102 194.029 62.0503 199.999 69.8651 199.999C71.5157 200.015 73.1538 199.712 74.6892 199.107C78.7604 197.48 80.5854 192.993 84.9459 191.603C86.6185 191.1 88.3596 190.861 90.1061 190.894C91.8078 190.894 93.5094 191.055 95.211 191.221C96.9127 191.387 98.6143 191.548 100.316 191.548C101.076 191.551 101.836 191.511 102.592 191.429C107.99 190.83 116.426 186.543 115.843 179.663C115.12 171.165 105.004 167.694 98.5845 166.177C94.8947 165.365 91.1231 164.983 87.3452 165.038C80.0324 165.038 72.4261 166.1 65.6833 166.631C61.8546 166.937 58.0004 167.171 54.1589 167.171C51.7809 167.171 49.4029 167.082 47.0248 166.865C40.784 166.291 34.6879 164.566 28.4769 163.963C27.2007 163.84 25.8393 163.75 24.4355 163.75" fill="#A5E1D2"/>
<path d="M54.0527 84.0502H61.4038C61.7397 84.028 62.0708 84.1392 62.3249 84.3597C62.5791 84.5801 62.7358 84.8919 62.7609 85.2272L62.2334 129.418C62.2334 130.268 62.2546 131.117 62.2972 131.967L63.1225 152.01C63.2841 154.56 63.3366 157.109 63.2799 159.659L62.7821 178.261C62.7821 178.911 61.8718 179.294 61.4251 179.442C59.0366 180.22 56.4625 180.22 54.074 179.442C53.6231 179.302 52.7169 178.911 52.7169 178.261L53.7464 162.539C53.8734 160.043 53.8364 157.54 53.6358 155.048C53.2104 149.524 52.4191 134.742 52.3979 130.51C52.3724 126.613 52.8913 108.075 53.2912 101.981C53.5897 97.486 53.6224 92.977 53.3891 88.4778L52.7169 85.2357C52.742 84.9004 52.8987 84.5886 53.1528 84.3682C53.407 84.1477 53.7381 84.0365 54.074 84.0587" fill="#00333D"/>
<path d="M26.8902 46.9472L28.3663 112.885C28.3714 113.097 28.4391 113.304 28.5609 113.478C28.6827 113.653 28.8532 113.788 29.0513 113.866L39.0697 117.894C39.2412 117.962 39.4274 117.984 39.61 117.958L85.2778 111.827C85.5389 111.789 85.7776 111.658 85.949 111.458C86.1205 111.258 86.2131 111.002 86.2094 110.739C86.2094 110.739 85.7585 98.2634 85.6947 94.1036C85.6479 91.1292 85.6947 85.1295 85.6266 82.1381C85.5458 78.8663 85.2012 72.327 85.1374 69.0552C85.0778 66.0383 85.1076 56.9963 85.1076 56.9963C84.9831 56.9523 84.8525 56.928 84.7205 56.924L36.764 56.6054C36.7276 56.6091 36.6909 56.6041 36.6568 56.5908C36.6228 56.5775 36.5924 56.5562 36.5683 56.5289L27.3156 46.756C27.2813 46.72 27.237 46.6952 27.1884 46.6849C27.1398 46.6745 27.0892 46.679 27.0433 46.6979C26.9973 46.7167 26.9581 46.7489 26.9308 46.7904C26.9035 46.8318 26.8893 46.8806 26.8902 46.9302" fill="#007373"/>
<path d="M39.5718 117.962H39.3336L39.0699 117.898L28.5367 113.649C28.4914 113.632 28.4522 113.602 28.4241 113.563C28.3961 113.524 28.3805 113.477 28.3793 113.428L26.9414 49.4541C26.9416 49.4237 26.9507 49.394 26.9675 49.3686C26.9843 49.3432 27.0081 49.3233 27.036 49.3111C27.0639 49.299 27.0947 49.2952 27.1247 49.3002C27.1548 49.3052 27.1827 49.3188 27.2052 49.3394L38.402 60.2383C38.402 60.2383 39.1634 68.3923 38.7891 73.8651C38.4147 79.3379 39.1209 86.8333 39.2145 90.0796C39.3081 93.3259 39.0699 101.233 39.1634 103.09C39.257 104.947 39.5889 117.962 39.5889 117.962" fill="#145459"/>
<path d="M64.1519 65.1162C63.9987 64.9123 63.2457 64.4619 63.033 64.1729C62.7608 63.7948 62.9352 63.2042 62.5055 63.2891C61.978 63.3954 61.1144 63.5781 60.5869 63.6801C60.4838 63.7051 60.3896 63.758 60.3146 63.8329C60.2395 63.9079 60.1866 64.002 60.1615 64.105C60.0911 64.3046 60.0744 64.5192 60.1132 64.7273C60.1521 64.9354 60.245 65.1296 60.3827 65.2905C60.8081 65.8428 62.3183 66.0213 61.6589 66.9901C61.3612 67.415 60.8379 67.6062 60.6082 68.1204C60.5129 68.3206 60.4667 68.5407 60.4733 68.7623C60.48 68.984 60.5393 69.2009 60.6465 69.3951C60.7121 69.5057 60.8117 69.5923 60.9305 69.642C61.0492 69.6918 61.1808 69.702 61.3059 69.6713L62.8884 69.3568C62.9553 69.3481 63.0198 69.3259 63.0778 69.2916C63.1359 69.2572 63.1864 69.2114 63.2262 69.157C63.266 69.1025 63.2942 69.0405 63.3093 68.9748C63.3244 68.9091 63.3259 68.841 63.3138 68.7747C63.3157 68.7478 63.3157 68.7209 63.3138 68.694V68.6685C63.3092 68.6099 63.2949 68.5524 63.2713 68.4985C63.1139 68.1586 64.1561 67.483 64.322 67.2238C64.5426 66.9022 64.6504 66.5167 64.6283 66.1275C64.5859 65.7594 64.4382 65.4113 64.2029 65.1247" fill="#145459"/>
<path d="M71.9837 21.015L76.2378 44.8778C76.2499 44.9444 76.2484 45.0127 76.2334 45.0787C76.2184 45.1447 76.1901 45.2069 76.1504 45.2617C76.1106 45.3165 76.0602 45.3627 76.0021 45.3975C75.944 45.4323 75.8795 45.455 75.8124 45.4642L27.0135 50.4569L22.8828 29.5174L22.9381 24.8434C22.9381 24.8434 30.9784 24.5034 33.6542 24.3037C37.4319 24.0233 44.9701 23.2075 48.7393 22.8251C51.6406 22.5276 57.4432 21.9752 60.3487 21.7373C63.2543 21.4993 71.9837 21.0022 71.9837 21.0022" fill="#145459"/>
<path d="M25.4901 49.7558L21.9507 28.6888L22.9376 24.8561L27.5533 50.9923L25.4901 49.7558Z" fill="#00333D"/>
<path d="M85.1077 56.9962L75.5445 45.239L27.0137 50.4569L38.4657 62.2184C38.4657 62.2184 45.8168 61.6193 48.2502 61.3686C51.7173 60.9861 58.6259 59.9919 62.093 59.5967C65.5601 59.2015 72.4177 58.5939 75.8551 58.2072C78.1735 57.948 85.0992 57.0217 85.0992 57.0217" fill="#00333D"/>
<path d="M26.6224 48.7955C26.6947 49.1567 26.5628 49.4881 26.333 49.5306C26.1032 49.5731 25.8564 49.3181 25.7883 48.957C25.7202 48.5958 25.8479 48.2643 26.0777 48.2176C26.3075 48.1709 26.5543 48.4301 26.6224 48.7955Z" fill="#007373"/>
<path d="M47.535 23.4497L47.1819 21.0787C47.1694 20.9929 47.1746 20.9056 47.197 20.8219C47.2195 20.7382 47.2588 20.6599 47.3125 20.5919C47.3663 20.5239 47.4333 20.4676 47.5096 20.4264C47.5859 20.3851 47.6698 20.3598 47.7562 20.3521L49.1686 20.2331C49.3339 20.22 49.4978 20.2716 49.6257 20.3771C49.7535 20.4826 49.8352 20.6336 49.8535 20.7982L50.13 23.2585L51.6572 23.1395L50.9808 19.1326C50.9617 18.9865 50.8879 18.8531 50.7742 18.7593C50.6605 18.6655 50.5155 18.6182 50.3682 18.6269L45.7993 19.0519C45.718 19.0637 45.6399 19.0917 45.5697 19.1343C45.4994 19.1769 45.4384 19.2332 45.3904 19.2998C45.3424 19.3664 45.3083 19.4419 45.2901 19.522C45.2719 19.602 45.27 19.6849 45.2846 19.7657L45.7653 23.0248C45.7895 23.184 45.8732 23.3281 45.9994 23.4282C46.1257 23.5283 46.2852 23.577 46.4459 23.5644L48.5262 23.3987L47.535 23.4497Z" fill="#145459"/>
<path d="M54.6353 83.3322C54.5987 83.3364 54.5654 83.3548 54.5423 83.3834C54.5192 83.4121 54.5083 83.4486 54.5119 83.4851C54.5459 83.9993 54.6693 85.8221 54.7033 86.4977C54.7757 87.8744 54.9033 91.6731 54.9288 92.5612C54.9298 92.5854 54.9358 92.6091 54.9463 92.631C54.9569 92.6528 54.9718 92.6723 54.9901 92.6882C55.0084 92.7041 55.0297 92.7161 55.0529 92.7235C55.076 92.7309 55.1003 92.7335 55.1245 92.7311C56.0008 92.6632 59.7232 92.3657 61.0802 92.1958C62.5947 92.0046 65.4237 91.6264 66.9382 91.4224C68.0272 91.278 71.239 90.9975 72.0431 90.9168C72.0928 90.9127 72.1393 90.8905 72.1738 90.8545C72.2082 90.8185 72.2283 90.7711 72.2303 90.7213C72.2515 89.965 72.3324 87.0246 72.3068 86.0473C72.2728 84.9426 72.0643 81.7982 72.0346 81.3096C72.034 81.3003 72.0316 81.2911 72.0274 81.2828C72.0232 81.2744 72.0174 81.267 72.0102 81.2611C72.003 81.2551 71.9946 81.2506 71.9857 81.248C71.9767 81.2454 71.9673 81.2447 71.958 81.2458C71.2476 81.3223 65.2535 81.9639 63.186 82.2189C61.1909 82.4611 55.5882 83.2217 54.6523 83.3492" fill="#A6E0D1"/>
<path d="M84.0526 6.95472C83.8946 6.85788 83.7811 6.70292 83.7366 6.52328C83.692 6.34364 83.7199 6.1537 83.8143 5.99442C83.8859 5.87686 83.9907 5.7831 84.1156 5.72495C84.2405 5.66681 84.3798 5.64688 84.516 5.66768C84.6523 5.68848 84.7793 5.74908 84.881 5.84184C84.9828 5.9346 85.0548 6.05536 85.0879 6.18892C85.1211 6.32247 85.1139 6.46283 85.0673 6.59231C85.0206 6.72179 84.9367 6.83458 84.8259 6.91648C84.7152 6.99838 84.5827 7.04571 84.4451 7.05252C84.3074 7.05932 84.1709 7.02529 84.0526 6.95472Z" fill="#A6E0D1"/>
<path d="M85.9454 8.6289C85.8434 8.48345 85.8004 8.30475 85.8252 8.12889C85.85 7.95302 85.9407 7.79311 86.079 7.68144C86.2173 7.56977 86.3929 7.51468 86.5703 7.52728C86.7477 7.53989 86.9137 7.61925 87.0348 7.74934C87.0922 7.82061 87.1348 7.90252 87.1603 7.99034C87.1858 8.07816 87.1937 8.17015 87.1834 8.261C87.1731 8.35186 87.1449 8.43978 87.1004 8.5197C87.0559 8.59961 86.996 8.66995 86.9242 8.72663C86.807 8.83137 86.6559 8.89023 86.4986 8.89235C86.3941 8.89089 86.2911 8.86654 86.197 8.82102C86.1029 8.7755 86.0199 8.70992 85.9539 8.6289" fill="#A6E0D1"/>
<path d="M87.192 10.8469C87.131 10.6733 87.1416 10.4827 87.2214 10.317C87.3012 10.1512 87.4437 10.0239 87.6175 9.96307C87.7913 9.90222 87.9822 9.9128 88.1482 9.99249C88.3142 10.0722 88.4417 10.2144 88.5026 10.388C88.5607 10.5628 88.5488 10.7533 88.4695 10.9196C88.3902 11.0859 88.2496 11.2151 88.0771 11.2803C88.0042 11.2951 87.9301 11.3036 87.8558 11.3058C87.7125 11.3063 87.5725 11.2624 87.4551 11.1802C87.3378 11.0981 87.2488 10.9816 87.2005 10.8469" fill="#A6E0D1"/>
<path d="M87.6218 13.3581C87.6185 13.2203 87.6561 13.0847 87.73 12.9683C87.8039 12.8519 87.9107 12.76 88.0368 12.7042C88.163 12.6484 88.303 12.6312 88.4389 12.6548C88.5749 12.6783 88.7008 12.7417 88.8007 12.8367C88.9007 12.9317 88.9701 13.0542 89.0004 13.1887C89.0306 13.3232 89.0202 13.4636 88.9706 13.5921C88.9209 13.7207 88.8342 13.8317 88.7213 13.911C88.6085 13.9904 88.4746 14.0346 88.3367 14.038C88.1545 14.038 87.9795 13.9669 87.8491 13.8399C87.7187 13.7129 87.6432 13.54 87.6388 13.3581" fill="#A6E0D1"/>
<path d="M87.8812 16.7871C87.7916 16.7691 87.7065 16.7332 87.6311 16.6816C87.5556 16.63 87.4914 16.5638 87.4421 16.4868C87.3929 16.4099 87.3597 16.3239 87.3445 16.2338C87.3292 16.1438 87.3323 16.0516 87.3536 15.9628C87.3736 15.8717 87.4116 15.7856 87.4656 15.7095C87.5195 15.6334 87.5882 15.5688 87.6675 15.5197C87.7469 15.4706 87.8353 15.4378 87.9276 15.4234C88.0198 15.4091 88.1141 15.4133 88.2046 15.4359C88.2961 15.4553 88.3828 15.493 88.4593 15.5467C88.5358 15.6005 88.6007 15.6691 88.65 15.7485C88.6993 15.8278 88.732 15.9164 88.7461 16.0087C88.7603 16.101 88.7556 16.1953 88.7323 16.2857C88.6986 16.4429 88.6124 16.5839 88.488 16.6858C88.3635 16.7877 88.2081 16.8444 88.0472 16.8466C87.9952 16.8425 87.9438 16.8325 87.894 16.8169" fill="#A6E0D1"/>
<path d="M86.924 19.4088C86.8384 19.3755 86.7603 19.3256 86.6942 19.262C86.628 19.1983 86.5752 19.1222 86.5388 19.038C86.5024 18.9538 86.4831 18.8632 86.482 18.7715C86.4809 18.6798 86.4981 18.5888 86.5325 18.5038C86.6058 18.3353 86.7416 18.2018 86.9114 18.1312C87.0813 18.0607 87.2719 18.0587 87.4431 18.1256C87.5941 18.184 87.7199 18.2932 87.7987 18.4345C87.8775 18.5757 87.9043 18.74 87.8744 18.899C87.8446 19.0579 87.7601 19.2013 87.6355 19.3045C87.5109 19.4078 87.354 19.4642 87.1921 19.464C87.0997 19.4662 87.008 19.4473 86.924 19.4088Z" fill="#A6E0D1"/>
<path d="M85.6521 21.8903C85.5698 21.8477 85.4968 21.7891 85.4375 21.7178C85.3782 21.6466 85.3338 21.5642 85.307 21.4756C85.2802 21.3869 85.2714 21.2938 85.2813 21.2017C85.2911 21.1096 85.3193 21.0204 85.3643 20.9394C85.4093 20.8584 85.4701 20.7872 85.5431 20.73C85.6161 20.6729 85.6998 20.631 85.7894 20.6067C85.8789 20.5825 85.9724 20.5764 86.0643 20.5889C86.1562 20.6013 86.2447 20.6321 86.3245 20.6793C86.4871 20.7682 86.6079 20.9177 86.6605 21.0953C86.7131 21.2728 86.6933 21.4639 86.6053 21.6268C86.5399 21.7318 86.4491 21.8187 86.3413 21.8796C86.2335 21.9404 86.1121 21.9733 85.9883 21.9753C85.871 21.9749 85.7555 21.9457 85.6521 21.8903Z" fill="#A6E0D1"/>
<path d="M84.3846 24.3887C84.2179 24.3072 84.0903 24.1632 84.0297 23.988C83.9691 23.8128 83.9804 23.6208 84.0612 23.4539C84.1408 23.2849 84.2843 23.1544 84.4603 23.091C84.6362 23.0276 84.8302 23.0367 84.9995 23.1161C85.1688 23.1956 85.2995 23.3389 85.363 23.5146C85.4264 23.6904 85.4174 23.884 85.3378 24.0531C85.2808 24.1722 85.1917 24.2731 85.0804 24.3444C84.9691 24.4157 84.8402 24.4546 84.708 24.4567C84.6024 24.4546 84.4982 24.4315 84.4016 24.3887" fill="#A6E0D1"/>
<path d="M83.3635 26.9807C83.2775 26.9486 83.1986 26.8999 83.1313 26.8374C83.0641 26.7749 83.0099 26.6997 82.9718 26.6163C82.9337 26.5328 82.9124 26.4427 82.9091 26.351C82.9059 26.2594 82.9207 26.168 82.9529 26.082C82.985 25.9961 83.0338 25.9173 83.0964 25.8502C83.159 25.7831 83.2343 25.729 83.3178 25.6909C83.4014 25.6528 83.4917 25.6315 83.5835 25.6283C83.6753 25.6251 83.7668 25.6399 83.8529 25.672C83.9414 25.6999 84.0232 25.7457 84.0933 25.8066C84.1633 25.8675 84.22 25.9421 84.26 26.0258C84.2999 26.1095 84.3221 26.2005 84.3253 26.2931C84.3284 26.3858 84.3125 26.4781 84.2784 26.5643C84.2301 26.699 84.1411 26.8155 84.0237 26.8977C83.9064 26.9798 83.7664 27.0237 83.6231 27.0232C83.5419 27.0221 83.4614 27.0078 83.3848 26.9807" fill="#A6E0D1"/>
<path d="M82.6232 29.6746C82.4499 29.6224 82.3033 29.5059 82.2135 29.3489C82.1238 29.192 82.0978 29.0067 82.141 28.8312C82.1841 28.6557 82.293 28.5034 82.4453 28.4057C82.5976 28.3081 82.7816 28.2725 82.9593 28.3064C83.1377 28.3544 83.2901 28.4702 83.384 28.629C83.4778 28.7879 83.5057 28.9771 83.4615 29.1562C83.4275 29.3075 83.3427 29.4427 83.2212 29.5394C83.0997 29.636 82.9487 29.6882 82.7934 29.6873C82.7368 29.6938 82.6797 29.6938 82.6232 29.6873" fill="#A6E0D1"/>
<path d="M82.2318 32.4365C82.0491 32.4141 81.8825 32.321 81.7679 32.1771C81.6533 32.0333 81.5999 31.8502 81.6191 31.6674C81.626 31.5763 81.6511 31.4875 81.6929 31.4062C81.7348 31.325 81.7925 31.2529 81.8627 31.1943C81.933 31.1356 82.0142 31.0917 82.1017 31.0649C82.1892 31.0382 82.2812 31.0292 82.3722 31.0386C82.55 31.0581 82.7136 31.1446 82.8297 31.2804C82.9457 31.4162 83.0055 31.5912 82.9969 31.7695C82.9882 31.9479 82.9116 32.1162 82.7829 32.2401C82.6542 32.3641 82.483 32.4343 82.3042 32.4365H82.2318Z" fill="#A6E0D1"/>
<path d="M95.9982 33.0357C95.8153 33.027 95.6427 32.9485 95.5161 32.8165C95.3894 32.6844 95.3183 32.5089 95.3174 32.3261C95.319 32.2346 95.3388 32.1443 95.3754 32.0603C95.412 31.9764 95.4648 31.9005 95.5308 31.837C95.5968 31.7735 95.6747 31.7236 95.76 31.6901C95.8453 31.6566 95.9364 31.6403 96.028 31.642C96.1206 31.6419 96.2121 31.6605 96.2973 31.6967C96.3824 31.733 96.4593 31.786 96.5233 31.8527C96.5873 31.9194 96.6372 31.9984 96.6698 32.0849C96.7024 32.1713 96.7172 32.2635 96.7131 32.3558C96.7087 32.5377 96.6332 32.7106 96.5028 32.8376C96.3724 32.9646 96.1974 33.0357 96.0153 33.0357H95.9982Z" fill="#A6E0D1"/>
<path d="M92.561 32.4748C92.5488 32.2932 92.6069 32.114 92.7233 31.974C92.8397 31.834 93.0055 31.7441 93.1865 31.7227C93.282 31.7077 93.3797 31.7126 93.4733 31.737C93.5669 31.7615 93.6544 31.805 93.7303 31.8648C93.8063 31.9247 93.869 31.9995 93.9146 32.0847C93.9603 32.1699 93.9877 32.2636 93.9954 32.3599C94.003 32.4562 93.9907 32.553 93.9591 32.6443C93.9275 32.7356 93.8773 32.8194 93.8118 32.8904C93.7462 32.9615 93.6666 33.0182 93.5781 33.0571C93.4895 33.0959 93.3939 33.1161 93.2971 33.1164H93.2418C93.0656 33.1179 92.8955 33.0525 92.7659 32.9333C92.6362 32.8142 92.5569 32.6502 92.5439 32.4748" fill="#A6E0D1"/>
<path d="M98.6656 33.2736C98.4845 33.2385 98.3246 33.1337 98.2203 32.9819C98.116 32.83 98.0757 32.6433 98.1081 32.462C98.123 32.3713 98.1559 32.2844 98.2048 32.2064C98.2536 32.1285 98.3176 32.0611 98.3928 32.0081C98.4681 31.9551 98.5532 31.9176 98.6431 31.8977C98.733 31.8779 98.826 31.8762 98.9166 31.8926C99.0984 31.9269 99.2597 32.0301 99.3669 32.1806C99.474 32.3312 99.5185 32.5173 99.4911 32.7C99.461 32.8623 99.3746 33.0089 99.2469 33.1138C99.1192 33.2188 98.9586 33.2753 98.7932 33.2736H98.6656Z" fill="#A6E0D1"/>
<path d="M89.7996 32.9932C89.7769 32.9033 89.7723 32.8098 89.7862 32.7181C89.8 32.6265 89.8321 32.5385 89.8804 32.4593C89.9288 32.3802 89.9924 32.3115 90.0677 32.2572C90.143 32.203 90.2283 32.1642 90.3188 32.1433C90.4099 32.1177 90.5052 32.111 90.599 32.1236C90.6928 32.1362 90.783 32.1678 90.8641 32.2165C90.9452 32.2652 91.0155 32.3299 91.0706 32.4067C91.1257 32.4836 91.1645 32.5708 91.1845 32.6632C91.2046 32.7555 91.2055 32.851 91.1873 32.9437C91.169 33.0364 91.1319 33.1244 91.0784 33.2023C91.0248 33.2802 90.9558 33.3463 90.8756 33.3965C90.7955 33.4468 90.7059 33.4801 90.6124 33.4945C90.5636 33.5138 90.5117 33.5239 90.4592 33.5243C90.3018 33.5239 90.1493 33.4697 90.0269 33.3708C89.9046 33.2719 89.8199 33.1341 89.7869 32.9804" fill="#A6E0D1"/>
<path d="M101.167 34.0257C101.043 33.9676 100.939 33.8741 100.868 33.757C100.797 33.6399 100.762 33.5044 100.768 33.3677C100.774 33.2309 100.821 33.0991 100.902 32.9887C100.983 32.8784 101.095 32.7945 101.224 32.7477C101.353 32.7008 101.493 32.6932 101.626 32.7256C101.759 32.7581 101.879 32.8292 101.972 32.9301C102.065 33.0309 102.126 33.1569 102.147 33.2921C102.168 33.4274 102.148 33.5658 102.09 33.69C102.036 33.8131 101.949 33.9184 101.837 33.9936C101.726 34.0688 101.595 34.1109 101.461 34.1149C101.359 34.1141 101.259 34.0909 101.167 34.0469" fill="#A6E0D1"/>
<path d="M87.1497 33.8557C87.0906 33.681 87.1019 33.49 87.1813 33.3235C87.2608 33.1569 87.4021 33.0278 87.5753 32.9634C87.7502 32.9021 87.9424 32.9123 88.1098 32.9919C88.2772 33.0715 88.4063 33.214 88.4689 33.3884C88.5011 33.4747 88.5156 33.5667 88.5115 33.6588C88.5075 33.7509 88.4849 33.8412 88.4452 33.9244C88.4055 34.0076 88.3495 34.0821 88.2805 34.1433C88.2114 34.2045 88.1308 34.2512 88.0433 34.2807C87.9669 34.3082 87.8863 34.3225 87.805 34.3232C87.6613 34.3227 87.5213 34.278 87.404 34.1951C87.2867 34.1122 87.1979 33.9952 87.1497 33.86" fill="#A6E0D1"/>
<path d="M81.5936 34.595C81.5759 34.4116 81.6313 34.2286 81.7478 34.0856C81.8642 33.9426 82.0324 33.8512 82.2159 33.8311C82.3993 33.811 82.5834 33.8638 82.7281 33.9782C82.8729 34.0925 82.9667 34.2592 82.9893 34.4421C83.0073 34.6253 82.9529 34.8084 82.8376 34.9521C82.7223 35.0958 82.5553 35.1888 82.3723 35.2112H82.2872C82.1163 35.2104 81.9515 35.1473 81.8238 35.0339C81.6962 34.9205 81.6143 34.7644 81.5936 34.595Z" fill="#A6E0D1"/>
<path d="M84.6482 35.0965C84.6045 35.0151 84.5775 34.926 84.5686 34.8341C84.5598 34.7423 84.5693 34.6496 84.5966 34.5614C84.6239 34.4733 84.6685 34.3914 84.7278 34.3206C84.787 34.2498 84.8598 34.1914 84.9418 34.1489C85.0223 34.1056 85.1106 34.0788 85.2017 34.0702C85.2927 34.0615 85.3845 34.0711 85.4718 34.0984C85.559 34.1258 85.6399 34.1702 85.7096 34.2293C85.7794 34.2883 85.8366 34.3607 85.8779 34.4421C85.9636 34.6055 85.9823 34.7958 85.9298 34.9727C85.8774 35.1496 85.7581 35.2992 85.5971 35.3897C85.4946 35.4435 85.3809 35.4726 85.2652 35.4746C85.1384 35.4771 85.0136 35.4442 84.9046 35.3797C84.7955 35.3151 84.7068 35.2214 84.6482 35.1092" fill="#A6E0D1"/>
<path d="M103.162 35.4873C103.073 35.3836 103.016 35.2556 102.999 35.1197C102.983 34.9838 103.007 34.8459 103.068 34.7236C103.13 34.6013 103.227 34.5 103.346 34.4325C103.465 34.3651 103.602 34.3344 103.739 34.3445C103.876 34.3546 104.006 34.405 104.115 34.4893C104.223 34.5735 104.303 34.6879 104.346 34.8179C104.389 34.948 104.393 35.0878 104.356 35.2198C104.32 35.3518 104.245 35.4701 104.141 35.5595C104.074 35.6236 103.995 35.6729 103.908 35.7042C103.821 35.7355 103.728 35.7482 103.636 35.7413C103.543 35.7345 103.453 35.7084 103.372 35.6646C103.29 35.6209 103.219 35.5604 103.162 35.4873Z" fill="#A6E0D1"/>
<path d="M82.2614 37.4547C82.2215 37.3335 82.2147 37.2038 82.2416 37.0791C82.2686 36.9544 82.3283 36.8391 82.4146 36.7451C82.3832 36.7153 82.3546 36.6826 82.3295 36.6474C82.2758 36.5722 82.2376 36.4872 82.2171 36.3972C82.1966 36.3073 82.1942 36.2141 82.21 36.1232C82.2259 36.0323 82.2596 35.9454 82.3094 35.8676C82.3591 35.7898 82.4238 35.7227 82.4997 35.6701C82.5736 35.6169 82.6574 35.579 82.7462 35.5588C82.8349 35.5385 82.9269 35.5362 83.0165 35.5521C83.1062 35.5679 83.1918 35.6016 83.2682 35.651C83.3446 35.7005 83.4103 35.7648 83.4614 35.84C83.5588 35.9683 83.6068 36.1273 83.5967 36.2879C83.5865 36.4486 83.5189 36.6003 83.4061 36.7153C83.4875 36.7988 83.5499 36.8988 83.5891 37.0085C83.6478 37.1816 83.6361 37.3707 83.5565 37.5352C83.4769 37.6997 83.3358 37.8264 83.1635 37.8881C83.0915 37.9156 83.0151 37.93 82.938 37.9306C82.7923 37.9312 82.6502 37.8853 82.5324 37.7997C82.4145 37.7142 82.3271 37.5933 82.2827 37.4547" fill="#A6E0D1"/>
<path d="M104.226 37.6502C104.206 37.5603 104.204 37.4673 104.221 37.3767C104.238 37.2862 104.273 37.1999 104.323 37.1231C104.374 37.0462 104.44 36.9803 104.517 36.9292C104.593 36.8782 104.68 36.843 104.77 36.8259C104.86 36.8077 104.953 36.8075 105.043 36.8251C105.133 36.8427 105.219 36.8779 105.295 36.9286C105.372 36.9793 105.437 37.0445 105.489 37.1206C105.54 37.1967 105.576 37.282 105.594 37.3719C105.612 37.4617 105.612 37.5542 105.594 37.6442C105.577 37.7341 105.542 37.8197 105.491 37.8961C105.44 37.9724 105.375 38.038 105.299 38.0892C105.222 38.1403 105.137 38.1759 105.047 38.1941H104.906C104.746 38.1942 104.59 38.1389 104.466 38.0374C104.342 37.9359 104.257 37.7945 104.226 37.6374" fill="#A6E0D1"/>
<path d="M80.2237 38.4618C80.0988 38.3236 80.0332 38.1419 80.0412 37.9559C80.0491 37.7699 80.13 37.5945 80.2663 37.4675C80.4061 37.3451 80.5886 37.2827 80.7742 37.2938C80.9599 37.3049 81.1336 37.3887 81.2578 37.527C81.3743 37.665 81.4326 37.8428 81.4204 38.0229C81.4083 38.2031 81.3265 38.3715 81.1925 38.4926C81.0585 38.6138 80.8826 38.6783 80.7019 38.6725C80.5211 38.6668 80.3497 38.5912 80.2237 38.4618Z" fill="#A6E0D1"/>
<path d="M83.474 40.1189C83.4247 40.0418 83.3916 39.9555 83.3769 39.8652C83.3622 39.7749 83.3661 39.6825 83.3884 39.5938C83.4107 39.505 83.451 39.4218 83.5067 39.3492C83.5624 39.2765 83.6324 39.216 83.7123 39.1713C83.8722 39.0758 84.0634 39.0471 84.2444 39.0917C84.4253 39.1363 84.5813 39.2504 84.6783 39.4093C84.7246 39.4881 84.7547 39.5752 84.7669 39.6657C84.7791 39.7563 84.7731 39.8483 84.7494 39.9365C84.7256 40.0247 84.6845 40.1072 84.6285 40.1794C84.5724 40.2516 84.5026 40.3119 84.423 40.3568C84.3179 40.4209 84.1971 40.4547 84.074 40.4546C83.9532 40.4568 83.8339 40.4269 83.7285 40.3679C83.623 40.3089 83.5352 40.223 83.474 40.1189Z" fill="#A6E0D1"/>
<path d="M78.2844 40.4801C78.1624 40.353 78.0931 40.1846 78.0904 40.0086C78.0877 39.8326 78.1518 39.6621 78.2698 39.5314C78.3878 39.4006 78.551 39.3193 78.7266 39.3038C78.9021 39.2882 79.0771 39.3396 79.2163 39.4475C79.3539 39.5693 79.4375 39.7406 79.4487 39.9239C79.4598 40.1071 79.3977 40.2873 79.2759 40.4248C79.2096 40.4961 79.1292 40.5529 79.0399 40.5916C78.9505 40.6304 78.8541 40.6503 78.7567 40.65C78.5841 40.6508 78.4168 40.5906 78.2844 40.4801Z" fill="#A6E0D1"/>
<path d="M104.715 40.956C104.623 40.936 104.537 40.8979 104.461 40.8442C104.384 40.7904 104.319 40.7219 104.27 40.6427C104.22 40.5636 104.187 40.4753 104.172 40.3832C104.157 40.2911 104.161 40.1969 104.183 40.1061C104.201 40.0172 104.238 39.9329 104.29 39.8584C104.342 39.7839 104.408 39.7207 104.485 39.6726C104.563 39.6246 104.649 39.5926 104.739 39.5788C104.828 39.5649 104.92 39.5694 105.008 39.592C105.179 39.6247 105.331 39.7203 105.433 39.8599C105.536 39.9994 105.583 40.1725 105.563 40.3447C105.544 40.5169 105.46 40.6755 105.329 40.7888C105.198 40.9021 105.029 40.9618 104.855 40.956C104.804 40.9618 104.753 40.9618 104.702 40.956" fill="#A6E0D1"/>
<path d="M85.2776 42.4644C85.2109 42.3998 85.1579 42.3225 85.1217 42.2371C85.0856 42.1517 85.0669 42.06 85.0669 41.9672C85.0669 41.8745 85.0856 41.7827 85.1217 41.6973C85.1579 41.6119 85.2109 41.5346 85.2776 41.4701C85.4096 41.3405 85.5878 41.2686 85.773 41.2702C85.9581 41.2718 86.135 41.3467 86.2648 41.4786C86.3946 41.6104 86.4666 41.7884 86.465 41.9732C86.4634 42.1581 86.3883 42.3348 86.2563 42.4644C86.1922 42.528 86.1157 42.5778 86.0315 42.6107C85.9473 42.6436 85.8573 42.6589 85.767 42.6556C85.6767 42.6581 85.5869 42.6425 85.5028 42.6097C85.4187 42.5768 85.3421 42.5274 85.2776 42.4644Z" fill="#A6E0D1"/>
<path d="M76.5483 42.6726C76.4022 42.5569 76.3065 42.3893 76.2811 42.2049C76.2558 42.0204 76.3027 41.8333 76.4122 41.6825C76.4652 41.6072 76.5331 41.5435 76.6117 41.4954C76.6903 41.4472 76.7779 41.4156 76.8691 41.4025C76.9604 41.3893 77.0533 41.395 77.1423 41.419C77.2313 41.4431 77.3145 41.485 77.3867 41.5423C77.5136 41.6273 77.6091 41.7515 77.6585 41.8958C77.7079 42.0402 77.7085 42.1968 77.6602 42.3415C77.6119 42.4863 77.5173 42.6112 77.391 42.6971C77.2647 42.783 77.1137 42.8251 76.9611 42.817C76.8093 42.8091 76.6624 42.7607 76.5356 42.6768" fill="#A6E0D1"/>
<path d="M103.235 43.3142C103.094 43.192 103.008 43.0194 102.995 42.834C102.981 42.6486 103.041 42.4654 103.162 42.3242C103.239 42.2367 103.336 42.1697 103.446 42.1294C103.555 42.0891 103.672 42.0768 103.788 42.0935C103.903 42.1102 104.012 42.1554 104.105 42.225C104.199 42.2946 104.273 42.3865 104.322 42.4921C104.37 42.5978 104.392 42.7139 104.384 42.8299C104.376 42.9459 104.339 43.0581 104.277 43.1563C104.214 43.2545 104.128 43.3355 104.027 43.3921C103.925 43.4486 103.811 43.4788 103.694 43.4799C103.526 43.4792 103.364 43.4207 103.235 43.3142Z" fill="#A6E0D1"/>
<path d="M87.5961 44.2872C87.4499 44.1855 87.3479 44.0321 87.3108 43.8581C87.2737 43.684 87.3042 43.5024 87.3962 43.3501C87.4882 43.1977 87.6348 43.0859 87.8062 43.0375C87.9776 42.989 88.1612 43.0074 88.3195 43.089C88.4513 43.1672 88.5537 43.2865 88.6108 43.4287C88.6679 43.5708 88.6765 43.7277 88.6354 43.8752C88.5942 44.0227 88.5055 44.1525 88.3831 44.2447C88.2606 44.3368 88.1111 44.3861 87.9578 44.3849C87.8302 44.389 87.7043 44.355 87.5961 44.2872Z" fill="#A6E0D1"/>
<path d="M100.763 44.6229C100.685 44.4539 100.677 44.2609 100.742 44.0864C100.807 43.9119 100.938 43.7701 101.107 43.6924C101.277 43.6146 101.47 43.6072 101.645 43.6717C101.819 43.7363 101.961 43.8675 102.039 44.0365C102.117 44.2053 102.125 44.3977 102.062 44.5725C101.999 44.7472 101.87 44.8904 101.703 44.9713C101.606 45.0109 101.501 45.0297 101.397 45.0266C101.264 45.0267 101.135 44.9887 101.024 44.917C100.913 44.8454 100.825 44.7433 100.771 44.6229" fill="#A6E0D1"/>
<path d="M75 44.9883C74.9219 44.9395 74.8544 44.8756 74.8014 44.8003C74.7485 44.725 74.7112 44.6399 74.6918 44.55C74.6724 44.4601 74.6712 44.3672 74.6883 44.2768C74.7054 44.1864 74.7405 44.1004 74.7915 44.0238C74.8937 43.8737 75.0506 43.7693 75.2288 43.733C75.4069 43.6966 75.5922 43.7311 75.7452 43.8291C75.8983 43.9271 76.007 44.0809 76.0482 44.2577C76.0894 44.4346 76.0599 44.6205 75.9659 44.7759C75.9025 44.8741 75.8156 44.955 75.7131 45.0113C75.6106 45.0677 75.4957 45.0978 75.3787 45.0988C75.2446 45.098 75.1134 45.0597 75 44.9883Z" fill="#A6E0D1"/>
<path d="M90.2636 45.5153C90.1321 45.473 90.016 45.3927 89.9302 45.2846C89.8444 45.1764 89.7926 45.0452 89.7815 44.9077C89.7705 44.7701 89.8005 44.6323 89.868 44.5119C89.9354 44.3914 90.0371 44.2936 90.1602 44.231C90.2834 44.1683 90.4224 44.1435 90.5596 44.1599C90.6969 44.1762 90.8262 44.2328 90.9311 44.3226C91.0361 44.4123 91.112 44.5312 91.1493 44.6641C91.1865 44.797 91.1833 44.938 91.1402 45.0691C91.0964 45.209 91.0094 45.3316 90.8918 45.4193C90.7741 45.5071 90.6318 45.5555 90.4849 45.5577C90.4091 45.5581 90.3339 45.5436 90.2636 45.5153Z" fill="#A6E0D1"/>
<path d="M98.0655 45.358C98.0437 45.2675 98.04 45.1736 98.0548 45.0817C98.0697 44.9898 98.1027 44.9018 98.152 44.8227C98.2013 44.7437 98.2658 44.6753 98.3418 44.6214C98.4178 44.5676 98.5038 44.5294 98.5948 44.5091C98.6858 44.4888 98.7799 44.4868 98.8717 44.5031C98.9634 44.5195 99.051 44.554 99.1293 44.6045C99.2076 44.6551 99.275 44.7207 99.3276 44.7975C99.3802 44.8743 99.417 44.9609 99.4357 45.052C99.4557 45.1411 99.4578 45.2332 99.4418 45.323C99.4258 45.4129 99.3921 45.4987 99.3426 45.5754C99.2931 45.6521 99.2288 45.7182 99.1535 45.7698C99.0782 45.8215 98.9933 45.8577 98.9038 45.8764C98.8541 45.8924 98.8027 45.9024 98.7506 45.9061C98.5919 45.9031 98.4386 45.8477 98.3146 45.7485C98.1907 45.6494 98.1031 45.5121 98.0655 45.358Z" fill="#A6E0D1"/>
<path d="M93.1099 46.1738C92.9275 46.1474 92.7627 46.0508 92.6506 45.9048C92.5385 45.7587 92.488 45.5747 92.5099 45.392C92.5344 45.2077 92.6299 45.0402 92.7761 44.9251C92.9223 44.8101 93.1077 44.7565 93.2928 44.7758C93.4752 44.8023 93.6401 44.8988 93.7522 45.0449C93.8643 45.1909 93.9148 45.3749 93.8929 45.5577C93.8741 45.7263 93.7939 45.8823 93.6677 45.9958C93.5414 46.1094 93.3777 46.1727 93.2078 46.1738H93.1099Z" fill="#A6E0D1"/>
<path d="M95.2875 45.613C95.2817 45.4284 95.3491 45.249 95.4749 45.1138C95.6008 44.9786 95.7751 44.8983 95.9598 44.8906C96.0515 44.8855 96.1433 44.8988 96.2298 44.9298C96.3163 44.9608 96.3956 45.0088 96.4631 45.0711C96.5306 45.1333 96.5848 45.2085 96.6227 45.2921C96.6605 45.3757 96.6811 45.466 96.6832 45.5577C96.6925 45.7408 96.6287 45.92 96.5059 46.0562C96.3831 46.1924 96.2112 46.2744 96.0279 46.2843H95.9981C95.8167 46.2825 95.6426 46.2124 95.5108 46.0879C95.379 45.9634 95.2993 45.7937 95.2875 45.613Z" fill="#A6E0D1"/>
<path d="M73.6173 47.4146C73.5349 47.3719 73.4621 47.313 73.4032 47.2413C73.3443 47.1697 73.3006 47.0869 73.2747 46.9979C73.2488 46.9089 73.2413 46.8155 73.2527 46.7236C73.2641 46.6316 73.294 46.5428 73.3407 46.4628C73.4313 46.3019 73.5814 46.183 73.7588 46.1313C73.9362 46.0797 74.1268 46.0995 74.2897 46.1866C74.37 46.2308 74.4407 46.2906 74.4976 46.3624C74.5545 46.4343 74.5964 46.5167 74.621 46.605C74.6456 46.6932 74.6523 46.7855 74.6407 46.8764C74.6291 46.9672 74.5994 47.0548 74.5535 47.1341C74.4653 47.294 74.3179 47.4129 74.1428 47.4653C73.9678 47.5178 73.7791 47.4995 73.6173 47.4146Z" fill="#A6E0D1"/>
<path d="M72.375 49.9215C72.2057 49.8421 72.075 49.6987 72.0115 49.523C71.9481 49.3473 71.9572 49.1536 72.0367 48.9846C72.1163 48.8155 72.2598 48.685 72.4358 48.6216C72.6118 48.5583 72.8057 48.5673 72.975 48.6468C73.1432 48.7268 73.2729 48.87 73.3358 49.0451C73.3988 49.2202 73.3899 49.413 73.3112 49.5816C73.2517 49.7014 73.1602 49.8025 73.0468 49.8737C72.9334 49.9449 72.8026 49.9835 72.6686 49.9852C72.5668 49.9815 72.4669 49.9569 72.375 49.913" fill="#A6E0D1"/>
<path d="M71.2902 52.505C71.1993 52.4749 71.1156 52.4266 71.0441 52.363C70.9727 52.2995 70.915 52.222 70.8746 52.1353C70.8342 52.0487 70.812 51.9548 70.8094 51.8592C70.8067 51.7637 70.8236 51.6686 70.859 51.5799C70.8945 51.4911 70.9477 51.4105 71.0155 51.3431C71.0832 51.2756 71.1641 51.2227 71.2531 51.1875C71.3421 51.1524 71.4373 51.1358 71.533 51.1388C71.6286 51.1417 71.7227 51.1642 71.8093 51.2048C71.8951 51.2385 71.9733 51.2888 72.0394 51.3529C72.1056 51.4169 72.1584 51.4934 72.1948 51.578C72.2312 51.6625 72.2505 51.7534 72.2515 51.8454C72.2525 51.9374 72.2353 52.0287 72.2008 52.1141C72.1455 52.2388 72.0557 52.3451 71.9418 52.4204C71.8279 52.4957 71.6948 52.5368 71.5582 52.539C71.4675 52.5397 71.3771 52.5268 71.2902 52.5007" fill="#A6E0D1"/>
<path d="M70.3673 55.1309C70.2805 55.1004 70.2006 55.0531 70.1322 54.9917C70.0638 54.9303 70.0082 54.856 69.9687 54.7731C69.9291 54.6902 69.9064 54.6003 69.9018 54.5085C69.8971 54.4168 69.9107 54.3251 69.9417 54.2386C70.0016 54.0662 70.1276 53.9247 70.2919 53.845C70.4563 53.7653 70.6457 53.7541 70.8183 53.8137C70.9795 53.8621 71.1174 53.9674 71.2066 54.1099C71.2957 54.2525 71.33 54.4225 71.3029 54.5883C71.2758 54.7541 71.1893 54.9045 71.0594 55.0114C70.9296 55.1182 70.7652 55.1743 70.597 55.1691C70.522 55.1742 70.4468 55.1641 70.3758 55.1394" fill="#A6E0D1"/>
<path d="M69.6269 57.8461C69.4923 57.8129 69.3705 57.7408 69.2769 57.6386C69.1833 57.5365 69.1221 57.409 69.101 57.2722C69.0798 57.1354 69.0998 56.9954 69.1582 56.8699C69.2166 56.7443 69.3109 56.6389 69.4293 56.5668C69.5476 56.4947 69.6847 56.4592 69.8232 56.4648C69.9617 56.4704 70.0955 56.5168 70.2076 56.5982C70.3198 56.6795 70.4053 56.7922 70.4534 56.922C70.5015 57.0519 70.5101 57.193 70.478 57.3277C70.4398 57.48 70.3516 57.6152 70.2274 57.7115C70.1031 57.8078 69.9501 57.8597 69.7928 57.8588C69.7377 57.8651 69.682 57.8651 69.6269 57.8588" fill="#A6E0D1"/>
<path d="M80.9303 0.0117091C80.1092 0.0796945 79.7264 0.674568 79.4158 1.37992C79.0328 2.09589 78.87 2.90889 78.9479 3.71692C78.9634 3.8102 78.9997 3.8988 79.0542 3.97611C78.9553 3.98983 78.8609 4.02609 78.7783 4.08209C78.6957 4.13809 78.6271 4.21232 78.5778 4.29904C78.2034 4.92791 77.6631 5.61626 77.5568 6.3556C77.5185 6.55529 77.5324 6.76145 77.5969 6.95426C77.6615 7.14707 77.7746 7.32006 77.9254 7.45661C78.0762 7.59316 78.2596 7.68867 78.4581 7.73398C78.6565 7.77928 78.8633 7.77286 79.0585 7.71531C79.8242 7.51985 80.1135 6.92498 80.3347 6.20688C80.5559 5.48879 80.7261 4.56673 80.4709 3.84014C80.4516 3.79994 80.4289 3.76154 80.4028 3.72541C80.4854 3.7211 80.5661 3.69914 80.6395 3.66103C80.7129 3.62291 80.7772 3.56952 80.8282 3.50446C81.3004 2.94783 81.9683 2.34446 82.2065 1.63911C82.2847 1.44476 82.3103 1.2333 82.2808 1.02594C82.2513 0.818574 82.1677 0.622614 82.0384 0.457729C81.9091 0.292843 81.7386 0.164833 81.5441 0.086546C81.3496 0.0082587 81.1379 -0.017551 80.9303 0.0117091Z" fill="#A6E0D1"/>
<path d="M81.9256 3.82739C81.615 3.18153 79.8921 2.55266 79.7007 2.49742H79.6496C79.5688 2.46768 79.488 2.43794 79.3986 2.41244C79.2926 2.38406 79.1845 2.36416 79.0753 2.35296H78.9009H78.8371C78.3815 2.31249 77.925 2.41978 77.5353 2.65889C77.3586 2.81532 77.2262 3.0155 77.1515 3.23928C77.0768 3.46306 77.0625 3.70254 77.1099 3.93362C77.3652 5.26783 80.7046 5.55677 80.9386 5.53552C81.277 5.51568 81.6035 5.40403 81.883 5.21259C82.2659 4.84717 82.1298 4.30329 81.9213 3.87413" fill="#145459"/>
<path d="M80.2238 57.6379L77.5352 57.9821C78.4626 57.8716 79.4538 57.7484 80.0281 57.6676L80.2238 57.6379Z" fill="#0A6166"/>
<path d="M75.6253 58.2073L75.3062 58.2413L75.6253 58.203" fill="#0A6166"/>
<path d="M75.4722 45.2476L75.5275 45.2391L75.4722 45.1753V45.2476Z" fill="#145459"/>
<path d="M75.544 45.239H75.4887L75.3228 58.2327L75.6418 58.1987L77.5434 57.9735L80.232 57.6294C81.6742 57.4339 85.1242 56.9877 85.1242 56.9877L75.544 45.239Z" fill="#0A454D"/>
</svg>
