<svg width="128" height="102" viewBox="0 0 128 102" fill="none" xmlns="http://www.w3.org/2000/svg">
<g clip-path="url(#clip0_43872_319583)">
<path d="M67.1506 56.2095L66.3489 56.9149C66.2712 57.0674 66.1386 57.1848 65.9778 57.2435C65.342 57.4579 64.6916 57.6264 64.0316 57.7477C55.0486 59.5013 42.5869 61.4304 33.6067 63.184C33.3542 63.2284 33.0982 63.2492 32.8418 63.2463C32.2796 63.2711 31.7197 63.1593 31.2101 62.9205C30.8729 63.1418 30.4802 63.2636 30.077 63.2718C29.9821 63.272 29.8873 63.2644 29.7937 63.2491C28.6605 63.0763 27.1874 59.9347 26.1393 57.3171L24.7228 56.8327C23.0566 56.6345 21.3809 56.5248 19.703 56.5041C15.3092 56.5041 9.26393 57.4248 5.00047 62.235C2.0288 65.5891 -0.231825 69.8299 0.0316315 74.3681C0.295088 78.9064 3.73135 85.3879 9.31775 87.3709C14.0741 89.0707 18.4027 88.5919 22.6973 91.2916C23.8616 92.0225 24.7455 93.1273 25.6945 94.1245C30.3319 99.0706 37.4735 101.728 44.4056 101.728C47.1832 101.749 49.9445 101.301 52.5727 100.402C59.0033 98.1358 64.2979 93.2604 70.6605 90.8015C74.6605 89.2576 78.8106 88.7449 83.0373 88.7449C87.1676 88.7449 91.3744 89.235 95.5954 89.7222C99.8163 90.2095 104.051 90.6995 108.236 90.6995C111.005 90.7283 113.77 90.4672 116.485 89.9205C121.23 88.9205 126.236 86.2803 127.641 81.5012C128.927 77.1245 126.604 72.2435 123.015 69.5494C120.522 67.6769 116.615 66.7392 113.547 66.235C110.179 65.5636 104.978 63.167 104.794 63.2066C101.088 63.1075 104.694 67.2605 100.374 65.1245C93.941 64.5013 87.4707 63.2916 82.0883 60.3483C79.3772 58.8724 74.2327 57.2803 71.2101 56.759L70.975 56.7194C70.975 59.1273 70.975 61.5891 70.9353 64.1273C70.941 64.2359 70.9248 64.3446 70.8875 64.4467C70.8502 64.5489 70.7927 64.6424 70.7183 64.7218C70.644 64.8012 70.5544 64.8647 70.4549 64.9086C70.3554 64.9525 70.248 64.9758 70.1393 64.9772C69.9526 64.9739 69.7732 64.9048 69.6326 64.7819C69.4921 64.659 69.3996 64.4903 69.3716 64.3058C68.7515 61.6344 68.1791 58.9522 67.6548 56.2605L67.1563 56.2123" fill="#A5E1D2"/>
<path d="M50.5723 30.9263H54.6289V35.2464H50.5723V30.9263Z" fill="#006168"/>
<path d="M65.6406 13.8806V30.6341C65.6399 30.8445 65.5562 31.0462 65.4077 31.1952C65.2592 31.3443 65.0578 31.4287 64.8474 31.4302H40.0372C39.8266 31.4287 39.625 31.3443 39.476 31.1954C39.327 31.0464 39.2427 30.8448 39.2412 30.6341V13.8806C39.2427 13.6702 39.3271 13.4689 39.4762 13.3204C39.6252 13.1719 39.8268 13.0881 40.0372 13.0874H64.8474C65.0576 13.0881 65.2589 13.172 65.4075 13.3206C65.5561 13.4691 65.6399 13.6705 65.6406 13.8806Z" fill="#006168"/>
<path d="M65.6406 13.8806V28.8579H39.2412V13.8806C39.2427 13.6702 39.3271 13.4689 39.4762 13.3204C39.6252 13.1719 39.8268 13.0881 40.0372 13.0874H64.8474C65.0576 13.0881 65.2589 13.172 65.4075 13.3206C65.5561 13.4691 65.6399 13.6705 65.6406 13.8806Z" fill="#A5E1D2"/>
<path d="M40.975 9.46729C42.0685 12.6939 39.3886 16.9064 38.2668 17.4531C37.1449 17.9999 34.6294 16.32 35.2838 14.0537C35.9381 11.7874 40.975 9.46729 40.975 9.46729Z" fill="#007272"/>
<path d="M32.102 16.3737C32.102 16.3737 28.2805 8.8553 32.7564 5.73065C36.3116 3.24623 39.204 6.16125 40.5808 6.32839C42.3853 6.54652 43.2862 6.32839 43.2862 6.32839C43.2862 6.32839 42.4363 9.74765 41.3881 10.6457C40.34 11.5437 38.7876 11.1556 38.1105 11.5833C37.4335 12.0111 38.983 14.7675 35.7479 16.3595C32.5128 17.9516 32.102 16.3595 32.102 16.3595" fill="#A5E1D2"/>
<path d="M38.4444 11.9969C38.4444 11.9969 38.0903 10.5493 37.2971 11.3425C36.5039 12.1357 36.858 13.555 37.5436 13.5153C37.7515 13.4958 37.9525 13.4306 38.1322 13.3243C38.312 13.218 38.466 13.0733 38.5832 12.9006L38.4444 11.9969Z" fill="#007272"/>
<path d="M37.8948 13.433C37.8681 13.8684 37.9043 14.3054 38.0024 14.7305C38.0469 14.9974 38.1795 15.2418 38.3792 15.4245C38.518 15.5208 38.6313 15.4783 38.773 15.5237C38.8845 15.5665 38.9845 15.635 39.0647 15.7235C39.1449 15.8121 39.2031 15.9183 39.2347 16.0336C39.4642 16.8834 38.3679 17.6143 37.6398 17.6143C36.9798 17.6143 36.2574 16.8324 36.1809 16.1979C36.0364 14.9939 37.8806 13.4302 37.8806 13.4302" fill="#007272"/>
<path d="M11.2041 37.8696H106.771V78.3484H11.2041V37.8696Z" fill="#14555A"/>
<path d="M11.207 35.7363H106.771V37.9318H11.207V35.7363Z" fill="#007272"/>
<path d="M45.2067 44.4475C45.2067 44.4475 44.1245 43.3144 41.524 41.3739C38.9234 39.4333 42.6061 32.0254 42.6061 32.0254C42.6061 32.0254 45.8894 23.8611 41.7421 19.2152C36.1897 12.9971 30.5948 14.9858 27.5778 16.4475C21.4163 19.4447 21.7308 34.32 23.6798 40.5665C25.6288 46.8129 29.1075 50.0282 45.2095 44.4447" fill="#003D3F"/>
<path d="M19.0879 39.1218C19.0879 39.1218 16.4703 49.2096 24.7536 52.2068C33.0369 55.204 51.255 54.0085 53.4845 47.6346C55.7139 41.2606 25.3797 35.1501 19.0822 39.1218" fill="#28B482"/>
<path d="M53.5214 46.3823C56.2041 54.354 42.2749 68.5778 42.2749 68.5778L40.5752 67.6288C40.5752 67.6288 44.1503 59.592 44.3429 55.1642C44.4024 53.7789 45.1928 48.3823 45.1928 48.3823L53.5214 46.3823Z" fill="#28B482"/>
<path d="M43.6177 23.1982C43.6177 23.1982 44.3571 26.0113 44.9747 28.5184C45.5922 31.0254 45.9945 32.5467 45.9945 32.5467L56.3061 34.813V36.2039C56.3061 36.2039 45.1192 36.4447 43.4421 35.3541C41.6999 34.2209 39.5214 30.2832 39.2665 26.4504C39.1956 25.3909 43.6177 23.2096 43.6177 23.2096" fill="#003D3F"/>
<path d="M56.0256 34.8131C56.9237 34.2635 57.9577 33.7451 59.0766 33.7451C60.1956 33.7451 61.7197 35.6006 61.4732 36.1361C61.2268 36.6715 56.4591 36.5581 56.0256 36.2182C55.5922 35.8783 56.0256 34.8018 56.0256 34.8018" fill="#007272"/>
<path d="M30.2752 51.5467C30.6236 58.4928 38.1194 69.9801 38.1194 69.9801L39.5358 69.6515C39.5358 69.6515 38.3828 51.0622 36.9012 49.5382C35.4197 48.0141 30.2695 51.5495 30.2695 51.5495" fill="#28B482"/>
<path d="M28.6007 51.0001C28.6007 51.0001 18.6432 51.3287 16.51 50.7168C14.3769 50.1049 18.1531 43.1701 16.1842 35.2381C14.2154 27.3061 11.5893 23.969 15.5808 22.6574C19.5723 21.3457 26.3032 21.4166 27.6687 23.5667C29.0341 25.7168 31.3344 34.5072 30.8415 40.5639C30.3485 46.6205 30.6233 49.9548 28.6007 50.9945" fill="#006168"/>
<path d="M44.1703 54.8639H16.38C16.0326 54.8624 15.6998 54.7238 15.4542 54.4781C15.2085 54.2325 15.0699 53.8997 15.0684 53.5523V51.269C15.0691 50.9211 15.2074 50.5877 15.4532 50.3414C15.6989 50.0951 16.0321 49.9561 16.38 49.9546H44.1703C44.5185 49.9561 44.852 50.095 45.0981 50.3412C45.3443 50.5874 45.4833 50.9209 45.4848 51.269V53.5523C45.4833 53.9002 45.3442 54.2334 45.098 54.4791C44.8517 54.7249 44.5182 54.8632 44.1703 54.8639Z" fill="#006168"/>
<path d="M34.4615 57.2918H25.014C24.8567 57.291 24.7061 57.228 24.5951 57.1165C24.4842 57.005 24.4219 56.8542 24.4219 56.6969V55.0198C24.4226 54.863 24.4852 54.7129 24.5961 54.602C24.707 54.4911 24.8572 54.4285 25.014 54.4278H34.4615C34.5399 54.427 34.6176 54.4418 34.6903 54.4711C34.7629 54.5005 34.8291 54.544 34.8849 54.599C34.9407 54.654 34.9851 54.7195 35.0155 54.7917C35.0459 54.8639 35.0617 54.9415 35.0621 55.0198V56.6969C35.0621 56.8542 34.9998 57.005 34.8889 57.1165C34.7779 57.228 34.6273 57.291 34.47 57.2918" fill="#006168"/>
<path d="M28.8184 56.6348H30.909V63.1447H28.8184V56.6348Z" fill="#006168"/>
<path d="M27.7734 62.9233H31.8839V69.6514H27.7734V62.9233Z" fill="#006168"/>
<path d="M76.626 43.6685H106.77V78.3483H76.626V43.6685Z" fill="#007272"/>
<path d="M40.5812 67.6289C40.5812 67.6289 39.2129 69.8159 39.2129 70.4193C39.2129 71.0227 40.0882 72.4419 43.0401 73.8187C45.9919 75.1955 47.6463 75.6771 45.2072 73.1077C42.7681 70.5383 42.2752 68.5751 42.2752 68.5751L40.5812 67.6289Z" fill="#A3D8C7"/>
<path d="M37.9659 69.9804C37.5835 71.6801 39.133 74.9804 39.9659 75.5158C40.7988 76.0512 41.2888 70.6801 39.7053 69.4223C38.1217 68.1645 37.9659 69.9889 37.9659 69.9889" fill="#A3D8C7"/>
<path d="M14.8955 78.5895C14.87 76.36 16.8983 74.9068 18.8304 74.326C21.2638 73.5867 23.9295 73.4478 26.4621 73.2779C29.1465 73.0957 31.839 73.0607 34.5272 73.1731C37.0032 73.275 39.6264 73.3487 42.0117 74.0229C44.1845 74.6405 46.4649 76.2637 46.3771 78.768C46.3403 79.8246 47.9805 79.8218 48.0173 78.768C48.1023 76.2977 46.3544 74.1476 44.21 73.1022C41.734 71.9039 38.8275 71.768 36.1391 71.5952C33.059 71.4025 29.9699 71.4025 26.8899 71.5952C25.379 71.6896 23.8795 71.8274 22.3913 72.0088C21.0406 72.134 19.7032 72.3757 18.3941 72.7311C15.7595 73.5328 13.2185 75.5895 13.2553 78.5753C13.2553 79.6292 14.9068 79.632 14.8955 78.5753" fill="#006168"/>
<path d="M24.9836 79.3996C25.519 76.7594 26.9666 73.6914 29.9666 73.2948C31.1593 73.1362 32.5162 73.4535 33.2811 74.428C33.7121 75.0447 34.0137 75.7424 34.1678 76.479C34.4227 77.4251 34.6494 78.3741 34.8901 79.3118C35.1508 80.3345 36.7343 79.9011 36.4737 78.8756C35.9893 76.9719 35.7173 74.6603 34.3462 73.1475C33.2612 71.952 31.536 71.4761 29.9666 71.6433C26.1989 72.0399 24.0913 75.5384 23.4029 78.9521C23.1933 79.9832 24.774 80.4251 24.9836 79.3883" fill="#006168"/>
<path d="M30.1503 71.5522C30.1135 71.4842 30.1078 71.4757 30.1333 71.5352C30.1588 71.5947 30.1531 71.5862 30.1333 71.5352C30.1135 71.4842 30.1333 71.3851 30.1333 71.5352V71.4474C30.1333 71.5692 30.156 71.3737 30.1588 71.3652C30.1786 71.2661 30.1871 71.3312 30.1588 71.3794C30.1588 71.3794 30.2523 71.2038 30.2013 71.3057C30.1616 71.3567 30.1701 71.3539 30.2211 71.3057L30.1531 71.3596C30.3004 71.3057 30.0625 71.3936 30.1531 71.3596H30.1333C30.0835 71.3752 30.0301 71.3752 29.9803 71.3596C30.0766 71.3596 30.0002 71.3596 29.9435 71.3397C30.1021 71.4219 29.8698 71.2717 29.9435 71.3397C30.0172 71.4077 29.8698 71.2094 29.9435 71.3397C30.0172 71.47 29.918 71.2377 29.9435 71.3397C29.969 71.4417 29.9435 71.1386 29.9435 71.3171C29.9435 71.2717 29.986 71.1556 29.9435 71.2604C29.9633 71.2094 30.0936 71.0366 29.9945 71.1216C29.8414 71.2755 29.7555 71.4838 29.7555 71.7009C29.7555 71.918 29.8414 72.1263 29.9945 72.2802C30.1518 72.4268 30.3588 72.5083 30.5738 72.5083C30.7888 72.5083 30.9958 72.4268 31.1531 72.2802C32.1475 71.4304 31.2693 69.7108 30.0568 69.7307C28.7367 69.7647 28.1588 71.3454 28.748 72.3936C28.8626 72.5721 29.0418 72.6994 29.2481 72.7488C29.4544 72.7982 29.6718 72.7659 29.8548 72.6586C30.0378 72.5514 30.1722 72.3775 30.23 72.1734C30.2877 71.9693 30.2642 71.7507 30.1645 71.5635L30.1503 71.5522ZM31.3231 43.8015C32.6432 43.7392 33.969 43.7023 35.2891 43.6938C36.4223 43.6938 37.6857 43.623 38.7169 44.1981C40.7905 45.3596 41.2664 47.997 41.6829 50.1216C41.884 51.1584 43.4676 50.7193 43.2636 49.6853C42.765 47.1358 42.0625 44.3227 39.6857 42.8666C38.5526 42.1669 37.2013 42.0564 35.8953 42.0508C34.3713 42.0508 32.8443 42.0876 31.3203 42.1613C30.2664 42.2123 30.2608 43.861 31.3203 43.8015" fill="#006168"/>
<path d="M80.3487 34.9007C80.4847 33.9461 81.4422 33.6656 82.2779 33.6175C83.1136 33.5693 83.9408 33.5948 84.7708 33.5863C85.6008 33.5778 86.4224 33.5551 87.2468 33.5693C87.9975 33.5835 89.3147 33.8271 89.1108 34.8837C89.0428 35.2294 89.5725 35.3767 89.6377 35.0311C89.7013 34.6443 89.6231 34.2477 89.4175 33.914C89.2119 33.5804 88.8927 33.3322 88.5187 33.2152C87.5074 32.8384 86.2524 33.0282 85.1958 33.0367C84.0626 33.0367 82.853 32.9517 81.7227 33.1274C80.8332 33.2662 79.9578 33.7988 79.8218 34.7534C79.7708 35.099 80.2977 35.2464 80.3487 34.9007Z" fill="#00408F"/>
<path d="M84.0367 33.1531C84.134 33.047 84.2566 32.9673 84.3931 32.9216C84.5296 32.8758 84.6755 32.8655 84.8171 32.8915C84.9587 32.9176 85.0913 32.9792 85.2026 33.0705C85.3138 33.1619 85.4001 33.28 85.4532 33.4138C85.5608 33.748 86.0877 33.6064 85.9829 33.2693C85.6826 32.3146 84.3144 31.9888 83.6515 32.765C83.422 33.0313 83.8073 33.4194 84.0367 33.1531Z" fill="#00408F"/>
<path d="M84.6175 32.4138L86.048 26.0936L86.7166 23.1446C86.8356 22.6206 86.9999 22.0851 87.0735 21.5526C87.1229 21.3256 87.0929 21.0886 86.9886 20.8812C86.9235 20.7879 86.8319 20.7164 86.7257 20.6759C86.6195 20.6354 86.5035 20.6278 86.3929 20.6541C86.2823 20.6804 86.1822 20.7393 86.1055 20.8233C86.0289 20.9072 85.9792 21.0123 85.9631 21.1248C85.8724 21.6404 86.4248 21.9747 86.8753 21.8897C87.1442 21.8381 87.3818 21.6823 87.5362 21.4562C87.6907 21.2301 87.7494 20.9521 87.6996 20.6829C87.6282 20.4195 87.4577 20.1941 87.2237 20.0536C86.9898 19.9131 86.7107 19.8686 86.4447 19.9293C86.099 19.986 86.2464 20.5157 86.592 20.4562C86.6788 20.4354 86.7699 20.4403 86.854 20.4705C86.9381 20.5006 87.0115 20.5546 87.0654 20.6259C87.1192 20.6972 87.1511 20.7826 87.157 20.8717C87.163 20.9609 87.1429 21.0498 87.099 21.1276C87.0438 21.2235 86.9578 21.2981 86.855 21.3392C86.7523 21.3803 86.6386 21.3856 86.5325 21.3543C86.5267 21.4499 86.5115 21.5448 86.4872 21.6376C86.3823 22.1673 86.2464 22.6942 86.1274 23.2183L85.4871 26.1815L84.1047 32.2919C84.0254 32.6347 84.5523 32.782 84.6316 32.4364L84.6175 32.4138ZM86.7988 33.003C86.8141 32.986 86.8331 32.9728 86.8543 32.9641C86.8755 32.9555 86.8983 32.9517 86.9211 32.9531C86.944 32.9544 86.9662 32.9609 86.9862 32.972C87.0062 32.9831 87.0235 32.9985 87.0367 33.0172C87.0891 33.0657 87.1579 33.0927 87.2294 33.0927C87.3008 33.0927 87.3696 33.0657 87.422 33.0172C87.4714 32.9646 87.4989 32.8952 87.4989 32.8231C87.4989 32.751 87.4714 32.6816 87.422 32.6291C87.3495 32.5523 87.2605 32.4929 87.1618 32.4554C87.0631 32.4179 86.9571 32.4032 86.8519 32.4125C86.7467 32.4218 86.645 32.4547 86.5543 32.5089C86.4637 32.5631 86.3865 32.6371 86.3285 32.7254C86.133 33.0087 86.6118 33.2919 86.7988 33.0087V33.003ZM80.2378 35.1928H89.2067C89.2679 35.1774 89.3223 35.1421 89.3612 35.0923C89.4 35.0425 89.4211 34.9811 89.4211 34.918C89.4211 34.8549 89.4 34.7935 89.3612 34.7437C89.3223 34.6939 89.2679 34.6586 89.2067 34.6432H80.2378C80.1766 34.6586 80.1222 34.6939 80.0834 34.7437C80.0445 34.7935 80.0234 34.8549 80.0234 34.918C80.0234 34.9811 80.0445 35.0425 80.0834 35.0923C80.1222 35.1421 80.1766 35.1774 80.2378 35.1928Z" fill="#00408F"/>
<path d="M88.7397 78.3427C88.7397 78.3427 88.6292 80.2974 89.4734 81.6883C90.3176 83.0793 91.8161 83.1529 92.6235 82.677C93.4309 82.2011 91.8076 78.3427 91.8076 78.3427H88.7397ZM76.5017 78.1983C76.5017 78.1983 72.1051 80.1303 71.7368 80.6175C71.3686 81.1048 71.0059 81.983 71.2977 82.0538C71.5895 82.1246 73.3147 82.677 76.7935 81.7988C80.2722 80.9206 80.1646 79.6374 80.1646 79.6374L79.5782 78.1699L76.5017 78.1983Z" fill="#003D3F"/>
<path d="M76.5013 78.1983C76.5013 78.1983 72.9092 79.7847 73.5693 80.442C74.2293 81.0992 79.4333 79.7847 79.5778 78.1757C79.7222 76.5666 76.5013 78.204 76.5013 78.204" fill="#A5E1D2"/>
<path d="M98.6238 37.5412C97.3461 34.4108 95.4 16.6885 95.2527 16.1021L94.8702 14.7593L86.468 15.0766L83.0884 25.1842C83.0884 25.1842 83.9665 33.2494 83.0884 35.3825C82.2102 37.5157 81.6238 42.9293 80.0119 46.4448C78.4 49.9604 76.6521 60.5157 76.6521 64.9094C76.6521 69.3032 76.502 78.2041 76.502 78.2041L79.5784 78.1757C79.5784 78.1757 83.1705 72.3882 84.6351 62.0539C85.0685 59.0057 88.6578 49.5015 88.6578 49.5015C88.6578 49.5015 87.8589 57.3655 89.0317 60.8811C90.2045 64.3967 88.2187 78.544 88.8334 78.544C89.4481 78.544 91.8079 78.3485 91.8079 78.3485C96.3405 69.6771 96.3688 65.0794 97.2867 60.7338L97.5501 56.2664L98.6464 51.3599C99.4056 48.527 100.168 40.6375 98.6238 37.5468" fill="#28B482"/>
<path d="M82.0882 13.2975C82.5821 13.5023 83.1116 13.6077 83.6463 13.6077C84.181 13.6077 84.7104 13.5023 85.2043 13.2975C86.972 12.6119 88.0372 11.0142 90.8701 11.9604C93.7029 12.9065 94.9437 14.1757 96.1307 14.3711C97.3177 14.5666 100.836 13.102 101.032 14.3711C101.227 15.6403 98.6859 23.153 99.4678 27.5609C100 30.4164 100.752 33.2264 101.717 35.966C101.717 35.966 99.7341 37.9774 96.1307 38.34L92.5301 38.6998C92.5301 38.6998 90.2837 29.6346 90.9664 25.1842C91.6491 20.7337 92.397 15.7592 92.397 15.7592C92.397 15.7592 91.8304 16.3088 89.6718 16.1133C87.5131 15.9179 86.9494 15.4675 86.9494 15.4675C86.9494 15.4675 86.431 21.017 85.193 23.2862C83.9551 25.5553 86.3743 37.6516 86.3743 37.6516C85.1941 37.8997 83.991 38.0222 82.7851 38.017C81.2468 37.9434 81.2468 36.3315 81.2468 36.3315C81.2468 36.3315 82.3092 32.7394 81.8332 28.966C81.3573 25.1927 80.329 23.2522 82.2723 20.8329C84.2157 18.4136 81.3913 16.4363 81.5386 15.153C81.6859 13.8697 82.0769 13.2975 82.0769 13.2975" fill="#003D3F"/>
<path d="M87.4367 9.18422C88.414 12.0397 86.9721 15.4618 86.9721 15.4618C86.9533 16.0155 87.1293 16.5583 87.4693 16.9956C87.8094 17.433 88.292 17.7373 88.8332 17.8556C90.8162 18.3429 92.4196 15.7536 92.4196 15.7536C92.4196 15.7536 91.5981 14.1899 91.448 10.5752C91.2978 6.96043 91.448 6.7168 91.448 6.7168L87.4367 9.18422Z" fill="#A5E1D2"/>
<path d="M89.0116 2.0225C88.7509 1.80437 88.8161 0.178305 86.9889 0.0394952C85.1617 -0.099315 82.9181 3.11315 83.6801 6.70522C84.1107 8.73638 85.7481 10.1783 85.7481 10.1783C85.7481 10.1783 87.4478 9.94034 88.224 8.71088C89.0002 7.48142 89.0116 2.02816 89.0116 2.02816" fill="#006168"/>
<path d="M85.9602 5.83835C85.6543 7.45875 86.5098 9.11597 86.6288 9.9035C86.7478 10.691 87.1727 11.9177 88.3285 11.6684C91.9546 10.8893 91.2548 10.5919 91.7648 8.44458C92.2747 6.29727 92.4701 3.26611 89.7223 3.26611C86.9744 3.26611 86.2265 4.38509 85.9517 5.83835" fill="#A5E1D2"/>
<path d="M86.9893 1.29749C86.9893 4.48162 89.4029 6.21816 90.9071 6.43346C92.4113 6.64876 94.9552 6.43346 94.9552 6.43346C94.9552 6.43346 95.6635 1.0227 91.8533 0.127513C89.2697 -0.481552 86.9893 1.29749 86.9893 1.29749Z" fill="#006168"/>
<path d="M90.2529 1.59515C91.1679 4.55549 90.3379 10.1731 90.3379 10.1731C91.4757 10.4373 92.6631 10.3963 93.7798 10.0541C95.5419 9.4875 95.607 3.2552 94.1708 2.38552C92.7345 1.51583 90.2529 1.59515 90.2529 1.59515Z" fill="#006168"/>
<path d="M81.8249 13.9151C81.0713 13.7933 80.9354 15.7367 80.8985 16.9066C80.8617 18.0766 77.7824 28.1927 77.5643 30.2437C77.3461 32.2947 78.077 34.8981 80.9637 35.595C83.8504 36.2919 84.1507 33.4704 83.4538 31.4534C83.0626 30.2898 82.5338 29.1771 81.8787 28.1389C81.8787 28.1389 81.5501 25.0058 82.5019 22.5129C83.4538 20.0199 83.5303 18.9973 82.6889 17.3854C82.1624 16.301 81.8654 15.1196 81.8164 13.9151H81.8249ZM100.015 14.2664C101.479 14.0511 102.848 15.4165 102.36 18.8386C101.873 22.2607 104.91 30.2692 104.119 32.4194C103.329 34.5695 90.1507 38.9661 89.2696 35.2522C88.3886 31.5384 89.5529 28.6092 93.1762 29.0001C96.7994 29.3911 99.5246 30.0738 99.6237 28.901C99.7229 27.7282 98.7456 27.0454 98.8929 21.6715C99.0402 16.2976 100.026 14.2664 100.026 14.2664" fill="#003D3F"/>
<path d="M82.975 32.7623C82.975 32.7623 84.8305 31.734 86.4198 31.8586C88.009 31.9833 88.8135 33.2496 88.6181 33.4932C88.4226 33.7368 87.5416 33.445 86.8589 33.7141C86.1761 33.9833 86.3461 34.3487 85.4424 34.3487C84.5387 34.3487 83.2923 34.3487 82.975 33.9096C82.6577 33.4705 82.975 32.7765 82.975 32.7765" fill="#A5E1D2"/>
<path d="M89.1903 31.4477C89.1903 31.4477 87.8617 30.5752 86.7597 30.4279C85.6577 30.2806 83.584 31.6007 83.7795 32.003C83.975 32.4053 85.1959 32.1645 85.3518 32.3344C85.4305 32.4614 85.5373 32.5686 85.6641 32.6476C85.7908 32.7267 85.934 32.7756 86.0826 32.7905C86.5784 32.8642 87.2979 33.1021 87.9098 32.7905C88.5217 32.4789 88.907 32.7367 89.1903 32.6262C89.4736 32.5157 89.1903 31.4477 89.1903 31.4477Z" fill="#A5E1D2"/>
<path d="M84.2692 17.3994C82.5695 20.0566 79.6375 22.0283 79.9831 25.4816C80.1248 26.898 83.5355 29.6374 83.5355 29.6374L84.2692 17.3994Z" fill="#003D3F"/>
<path d="M88.833 78.5384C88.833 78.5384 89.1163 80.6999 90.5951 80.5214C92.4534 80.3061 91.8075 78.3345 91.8075 78.3345L88.833 78.5384Z" fill="#A5E1D2"/>
<path opacity="0.16" d="M87.6289 13.0794C87.6289 13.0794 89.5553 13.8726 91.4249 10.6941C91.3768 9.41367 91.6629 10.34 91.6629 10.34L87.7734 11.6828C87.762 12.1514 87.7137 12.6184 87.6289 13.0794Z" fill="#14555A"/>
</g>
<defs>
<clipPath id="clip0_43872_319583">
<rect width="128" height="101.745" fill="white"/>
</clipPath>
</defs>
</svg>
