<svg width="116" height="116" viewBox="0 0 116 116" fill="none" xmlns="http://www.w3.org/2000/svg">
<g filter="url(#filter0_d_3807_700)">
<g clip-path="url(#clip0_3807_700)">
<path d="M6 57C6 28.2812 29.2812 5 58 5V5C86.7187 5 110 28.2812 110 57V57C110 85.7188 86.7187 109 58 109V109C29.2812 109 6 85.7188 6 57V57Z" fill="white"/>
<path fill-rule="evenodd" clip-rule="evenodd" d="M61.8814 47.0505C61.8814 47.0505 55.6616 43.8082 58.7141 26.6515L54.6113 27.1745L54.558 26.4172L50.8163 26.5929C51.3906 34.5166 48.1536 47.7073 48.1536 47.7073L50.7547 61.6929L54.9272 65.525L61.8814 47.0505Z" fill="#007272"/>
<path d="M58.5952 41.6119C56.7787 40.122 55.0778 38.4912 53.5078 36.7339C53.5078 36.7339 56.3428 38.7169 58.1521 39.4574C58.3162 40.407 58.5173 41.2814 58.5952 41.6119Z" fill="#14555A"/>
<path d="M64.1296 32.4626C64.1296 32.4626 63.4568 31.81 62.7142 31.0151C62.5871 30.5607 62.5236 30.0903 62.5255 29.6178C62.4889 28.0694 62.189 26.5392 61.6393 25.0954C61.6225 25.0508 61.5967 25.0103 61.5637 24.9765C61.5306 24.9426 61.491 24.9162 61.4474 24.8989C61.4037 24.8815 61.357 24.8737 61.3102 24.8758C61.2634 24.878 61.2176 24.89 61.1757 24.9113L51.5629 29.5843C51.5194 29.6057 51.4717 29.6171 51.4234 29.6178C51.0542 29.6178 49.2941 29.7098 48.6541 30.831C47.9566 32.0568 48.453 34.7761 51.3044 34.5962C51.3607 34.5914 51.4173 34.6012 51.4689 34.6246C51.5206 34.648 51.5656 34.6843 51.5998 34.7301C53.2848 37.0349 55.5914 38.7895 58.2381 39.7796C58.2381 39.7796 59.5715 40.4448 60.5726 40.0223C61.8034 39.4951 61.9388 38.6501 61.9101 37.738C61.8813 36.826 62.4926 34.7468 62.4926 34.7468C62.4926 34.7468 62.5952 34.4456 62.7019 34.0607L63.5019 33.8892C64.2609 33.7093 64.622 32.9228 64.1296 32.4626Z" fill="#007272"/>
<path fill-rule="evenodd" clip-rule="evenodd" d="M62.9355 23.2545C61.5816 26.6809 58.4881 31.174 51.5544 31.174C49.6836 28.6639 48.4979 30.8519 49.06 32.1739C49.622 33.4959 50.3441 34.8053 51.5544 34.4539C51.6131 39.4752 50.0902 44.3832 47.2096 48.4562L48.1532 50.4058L46.8527 53.5643V56.6225C46.8527 56.6225 39 54.9742 39 49.636C39 44.2978 45.228 44.0426 46.0403 38.0308C46.8527 32.0191 41.9663 28.8605 43.7264 23.2964C45.4865 17.7323 51.5544 19.4391 51.5544 19.4391C51.5544 19.4391 53.0601 16.2011 57.9998 19.4391C58.8827 20.0435 59.9193 20.3721 60.9826 20.3846C61.322 20.3764 61.6582 20.4541 61.9609 20.611C62.2636 20.7678 62.5234 20.9989 62.7169 21.2833C62.9105 21.5678 63.0318 21.8968 63.0699 22.2408C63.1081 22.5849 63.0619 22.9332 62.9355 23.2545Z" fill="#00343E"/>
<path fill-rule="evenodd" clip-rule="evenodd" d="M92.246 57.1748C92.246 57.1748 87.6919 64.4123 85.858 67.2153C81.144 74.4696 77.0535 78.1762 76.2658 78.0089C72.163 77.1178 65.7709 64.4291 65.7709 64.4291C65.7709 64.4291 64.8191 58.5052 65.4755 55.447C66.132 52.3888 69.0736 49.042 69.0736 49.042L76.7827 67.7676C76.7827 67.7676 79.9747 64.9771 82.7604 62.2495C85.5462 59.5218 90.1002 55.1625 90.1002 55.1625L92.246 57.1748Z" fill="#A5E1D2"/>
<path opacity="0.2" fill-rule="evenodd" clip-rule="evenodd" d="M71.0835 73.2228C69.116 70.4227 67.3408 67.4872 65.7705 64.4374C65.7705 64.4374 64.9869 59.5594 65.3315 56.3715L68.2567 51.1755C68.2567 51.1755 66.9808 59.9401 71.0835 73.2228Z" fill="#007272"/>
<path fill-rule="evenodd" clip-rule="evenodd" d="M54.0576 177.042C53.6473 170.649 57.8198 149.635 59.0999 145.699C60.544 141.31 69.7465 112.23 67.9167 90.5427L53.0155 88.9739C53.0155 88.9739 50.0943 134.123 50.2625 137.967C50.4307 141.812 49.5609 144.147 48.7445 147.59C47.4193 153.099 48.3794 169.306 48.1906 172.235C48.1332 173.574 48.1332 175.498 47.8296 176.736C47.8296 176.736 49.7333 177.627 50.8738 177.669C51.9036 177.699 54.0576 177.042 54.0576 177.042Z" fill="#14555A"/>
<path fill-rule="evenodd" clip-rule="evenodd" d="M54.0576 96.9351C52.039 106.557 46.1311 140.047 45.0315 145.678C44.3874 149.024 43.493 153.898 40.4693 164.223C38.4507 171.147 38.0076 174.067 37.3019 176.506C36.5963 178.945 36.2188 184.635 35.3203 186.229C33.9582 188.643 30.1057 188.546 30.1057 185.861C30.1057 183.175 33.0474 178.895 33.2895 175.715C33.5315 172.536 34.6269 148.857 37.2609 141.276C37.7779 139.779 35.4393 128.102 36.0301 114.602C36.4404 105.842 38.6107 92.0403 38.7994 91.555C39.3123 90.3418 54.0576 96.9351 54.0576 96.9351Z" fill="#007272"/>
<path fill-rule="evenodd" clip-rule="evenodd" d="M35.1478 177.661C35.9368 177.689 36.7266 177.641 37.5069 177.519C38.229 175.08 38.8362 171.699 40.8548 164.78C43.8744 154.459 46.3484 144.565 47.0089 141.21C48.092 135.579 53.7661 99.278 55.7847 89.6517C43.62 82.707 39.1685 90.7478 38.8444 91.5552C38.6557 92.0405 36.4689 105.842 36.0751 114.602C35.472 128.103 37.2033 139.704 36.6823 141.21C34.0483 148.794 33.0144 176.464 32.9611 176.728C32.9447 176.741 34.4709 177.577 35.1478 177.661Z" fill="#14555A"/>
<path opacity="0.56" fill-rule="evenodd" clip-rule="evenodd" d="M42.4422 87.9031C40.8544 94.1156 37.5763 107.867 37.2768 114.602C36.9076 122.819 37.4081 130.337 37.7363 135.303C37.9456 138.491 38.0851 140.624 37.884 141.21C35.5496 147.924 34.4706 170.394 34.2203 175.632C34.1875 176.31 34.167 176.699 34.1629 176.728C34.8418 177.115 35.5599 177.425 36.3045 177.653C35.9195 177.686 35.5325 177.686 35.1475 177.653C34.4706 177.565 32.9443 176.72 32.9443 176.72C32.9443 176.72 32.9689 176.301 33.0018 175.624C33.2561 170.386 34.3352 147.916 36.6655 141.201C36.8707 140.616 36.7312 138.482 36.5178 135.294C36.1896 130.328 35.6973 122.811 36.0583 114.594C36.4686 105.834 38.639 92.0322 38.8277 91.5469C39.6305 89.9778 40.8943 88.7038 42.4422 87.9031Z" fill="#00343E"/>
<path fill-rule="evenodd" clip-rule="evenodd" d="M96.8983 50.0669C96.8983 50.0669 99.5815 50.6861 99.9466 50.7865C100.312 50.8869 100.357 51.1337 100.406 51.4265C100.455 51.7194 100.496 54.6102 100.496 54.6102C100.272 54.5769 100.062 54.4758 99.8936 54.3201C99.7255 54.1643 99.6068 53.9609 99.5528 53.7359C99.5082 53.4507 99.4836 53.1627 99.4789 52.8741C99.0112 53.8656 98.3753 55.1541 98.3753 55.1541C98.2266 55.0025 98.1127 54.8192 98.0418 54.6174C97.9709 54.4156 97.9446 54.2003 97.965 53.9869C98.0575 53.3579 98.2768 52.7554 98.6091 52.2172C98.244 52.7402 97.2101 54.012 97.2101 54.012C97.2101 54.012 96.7383 53.4137 96.8942 52.9117C97.0091 52.5226 98.0429 52.075 98.5107 51.8951C98.2645 51.8365 95.3516 52.3637 95.3516 52.3637L96.8942 50.0711" fill="#14555A"/>
<path fill-rule="evenodd" clip-rule="evenodd" d="M99.9057 45.3772C100.012 45.5979 100.065 45.841 100.062 46.0867C100.058 46.3324 99.9976 46.5738 99.8852 46.7912C99.6103 47.2305 97.4236 49.8327 97.2225 50.1841C96.7832 50.9414 96.2182 51.6152 95.5527 52.1755C95.323 52.3261 95.6143 52.3512 96.4553 51.8868C97.2964 51.4224 98.3877 50.866 98.6257 50.7447C98.8636 50.6234 99.5242 50.8367 98.917 51.6525C98.3098 52.4683 96.8656 52.9076 96.045 53.9911C95.2245 55.0747 94.568 56.3757 93.9485 56.7104C93.2936 57.0147 92.5602 57.0968 91.8561 56.9447C91.2489 56.7857 90.1042 55.2336 90.1042 55.2336C90.1042 55.2336 94.4696 50.5732 95.2614 49.9916C96.0532 49.4101 99.2452 46.3143 99.8975 45.3897" fill="#007272"/>
<path fill-rule="evenodd" clip-rule="evenodd" d="M98.2643 51.7236C98.1344 51.572 98.0254 51.4031 97.9402 51.2216C98.1853 51.041 98.4446 50.8815 98.7156 50.7447C98.9577 50.6233 99.2407 50.7865 99.0725 51.1128C98.9453 51.368 98.252 51.7236 98.252 51.7236" fill="#00343E"/>
<path fill-rule="evenodd" clip-rule="evenodd" d="M39.8084 86.5643C43.7503 89.6561 48.4126 91.65 53.3381 92.3504C58.2636 93.0509 63.283 92.4337 67.9041 90.5596C67.1451 84.2006 65.5163 78.4022 65.2373 78.009C64.6055 77.1723 67.3666 66.5628 67.3666 66.5628C67.3666 66.5628 66.7348 56.6227 69.0692 49.0588C69.2293 48.5317 63.2228 46.624 62.8782 46.5152C62.6854 46.4148 62.4966 46.3228 62.3079 46.2349C61.5103 45.8596 60.741 45.4247 60.0063 44.9338C59.1447 51.1506 48.9288 45.645 48.9288 45.645C47.9647 45.8835 47.1113 46.2182 46.02 46.5194C46.02 46.5194 41.429 47.7452 40.7602 48.3267C40.0573 48.6362 39.382 49.0071 38.7417 49.4353C40.0122 52.534 40.6569 55.8621 40.6372 59.2207C40.6381 60.8813 40.4856 62.5383 40.1818 64.1698C41.1828 67.2531 43.9891 76.938 43.464 77.6492C43.1809 78.0299 41.4987 81.5859 39.8084 86.5643Z" fill="#A5E1D2"/>
<path opacity="0.24" fill-rule="evenodd" clip-rule="evenodd" d="M55.0669 50.0668C52.5684 49.3891 47.5425 45.8833 47.5425 45.8833C47.5425 45.8833 51.7683 48.7197 54.2628 49.4017C56.7573 50.0836 60.6672 50.8994 60.7616 46.5317C60.6672 50.8868 57.5614 50.7488 55.0669 50.0668Z" fill="#14555A"/>
<path fill-rule="evenodd" clip-rule="evenodd" d="M44.9488 86.1166C44.5098 86.0915 43.9887 85.7736 43.5826 85.7526C43.1764 85.7317 41.9045 86.9533 41.9045 86.9533C41.9045 86.9533 43.7344 86.5099 44.399 86.6981C45.0637 86.8864 46.8607 88.4259 46.8607 88.4259C46.8607 88.4259 46.4832 89.0074 45.5601 88.6267C45.0349 88.4092 44.3498 87.7147 43.9518 87.7231C43.2051 87.8615 42.4739 88.076 41.7691 88.3632C42.5117 88.3046 43.681 88.0829 44.1569 88.2962C44.6329 88.5096 46.2083 89.4551 46.2083 89.4551C46.2083 89.4551 46.1181 90.0491 45.076 89.8483C44.6657 89.773 44.1611 89.3714 43.6072 89.271C43.0533 89.1706 41.5804 89.7145 41.5804 89.7145C42.2447 89.8553 42.8944 90.0599 43.521 90.3253C43.8862 90.5721 45.0431 91.4381 45.0431 91.4381C45.0431 91.4381 44.5877 92.0029 43.7262 91.4172C43.343 91.1368 42.9116 90.9324 42.4543 90.8147C41.6982 90.8822 40.9472 90.9996 40.206 91.1662C39.5537 91.2833 38.9465 91.3879 38.6798 91.4004C38.0589 91.4283 37.4488 91.2279 36.9607 90.8357C36.1373 90.1337 35.3716 89.3641 34.6714 88.5347C34.7408 88.0102 34.9806 87.5245 35.3524 87.1552C35.7243 86.7859 36.2067 86.5543 36.7228 86.4973C36.9279 86.4722 37.5433 87.334 37.7567 87.2671C39.0613 86.9575 40.4973 86.5433 40.6573 86.4973C41.3794 85.9074 42.3353 84.9327 43.119 84.7611C43.9026 84.5896 46.1919 85.5058 46.1919 85.5058C46.1919 85.5058 46.1591 86.1877 44.9488 86.1166Z" fill="#007272"/>
<path fill-rule="evenodd" clip-rule="evenodd" d="M38.8647 49.3516C37.6092 50.8576 22.5029 65.8933 22.3757 71.2232C22.2485 76.553 32.4356 86.5349 35.0942 88.9949C36.3251 89.0451 37.4984 87.9113 37.5272 86.9617C36.3948 84.5352 29.8386 73.8253 29.8714 71.7335C29.9289 67.9014 41.1581 63.9019 41.4043 63.6342C41.4043 63.6342 41.7448 58.3085 41.3058 55.8235C40.8996 53.556 38.8647 49.3516 38.8647 49.3516Z" fill="#A5E1D2"/>
<path opacity="0.2" d="M42.1107 88.0526C41.3269 87.5565 40.5659 87.023 39.8297 86.4542C41.5064 81.5183 43.1752 77.995 43.4503 77.622C43.9657 76.9163 41.1788 67.3165 40.1859 64.2594C40.1859 64.2594 39.3701 64.4806 38.5557 64.8953L42.0169 59.9192C43.1707 63.9968 45.3154 73.1887 44.6638 77.3354C44.3277 79.4749 43.8875 80.6959 43.4577 81.8879C42.9152 83.3927 42.3894 84.8512 42.1107 88.0526Z" fill="#007272"/>
<path fill-rule="evenodd" clip-rule="evenodd" d="M46.2743 85.4976L45.2199 85.1587C45.1949 85.1853 45.1754 85.2168 45.1627 85.2514C45.15 85.2859 45.1444 85.3227 45.146 85.3595C45.146 85.4808 45.9666 85.7486 46.0815 85.7151C46.1963 85.6816 46.2743 85.4976 46.2743 85.4976Z" fill="#00343E"/>
<path fill-rule="evenodd" clip-rule="evenodd" d="M46.9431 88.4679L46.0651 87.7734C46.0337 87.7903 46.0059 87.8135 45.9833 87.8415C45.9608 87.8695 45.944 87.9019 45.9338 87.9366C45.8969 88.0537 46.5698 88.5892 46.6846 88.5976C46.7826 88.5849 46.8735 88.5393 46.9431 88.4679Z" fill="#00343E"/>
<path fill-rule="evenodd" clip-rule="evenodd" d="M46.2826 89.4841L45.3144 88.9277C45.2856 88.9488 45.2613 88.9756 45.243 89.0066C45.2247 89.0375 45.2127 89.0719 45.2077 89.1076C45.1872 89.2289 45.9298 89.6598 46.0282 89.6515C46.1267 89.6431 46.2662 89.4841 46.2662 89.4841" fill="#00343E"/>
<path fill-rule="evenodd" clip-rule="evenodd" d="M45.0847 91.4254L44.4077 90.9778C44.3628 91.0146 44.3323 91.0665 44.3215 91.1242C44.3215 91.2204 44.8221 91.5802 44.9082 91.5719C44.9944 91.5635 45.0847 91.4422 45.0847 91.4422" fill="#00343E"/>
</g>
</g>
<defs>
<filter id="filter0_d_3807_700" x="0" y="0" width="116" height="116" filterUnits="userSpaceOnUse" color-interpolation-filters="sRGB">
<feFlood flood-opacity="0" result="BackgroundImageFix"/>
<feColorMatrix in="SourceAlpha" type="matrix" values="0 0 0 0 0 0 0 0 0 0 0 0 0 0 0 0 0 0 127 0" result="hardAlpha"/>
<feOffset dy="1"/>
<feGaussianBlur stdDeviation="3"/>
<feColorMatrix type="matrix" values="0 0 0 0 0 0 0 0 0 0 0 0 0 0 0 0 0 0 0.16 0"/>
<feBlend mode="normal" in2="BackgroundImageFix" result="effect1_dropShadow_3807_700"/>
<feBlend mode="normal" in="SourceGraphic" in2="effect1_dropShadow_3807_700" result="shape"/>
</filter>
<clipPath id="clip0_3807_700">
<path d="M6 57C6 28.2812 29.2812 5 58 5V5C86.7187 5 110 28.2812 110 57V57C110 85.7188 86.7187 109 58 109V109C29.2812 109 6 85.7188 6 57V57Z" fill="white"/>
</clipPath>
</defs>
</svg>
