<svg width="58" height="60" fill="none" xmlns="http://www.w3.org/2000/svg"><path d="M47.139 52.967s.328.975-.274 1.343c-.602.368-2.088.202-3.422.42-1.335.219-1.989.773-1.444 2.04.547 1.267 5.684.442 6.013 0 .328-.442 1.147-.386 1.366 0 .219.386 1.42.113 1.53-.386.11-.5-.493-2.647-1.64-3.86-1.147-1.21-2.13.443-2.13.443zm7.733.165s.487.939-.48 2.095c-.97 1.157-2.2 2.537-1.53 3.528.67.99 3.95.11 4.715-1.047.767-1.156.368-3.527-.226-4.576-.595-1.046-2.479 0-2.479 0zm-44.404-.465s-.756.975-1.016 2.097c-.261 1.123.45 1.567 1.324 2.009.875.441 1.423-.884 1.887 0 .464.883.234.956 1.36 1.553 1.126.597 3.858.947 3.748 0-.11-.946-.417-1.498-2.914-2.875-2.497-1.378-2.616-2.145-2.611-2.781.005-.64-1.778-.003-1.778-.003zm-8.656.741s-.383 1.383-.767 1.93c-.383.546-1.639 2.975-.383 4.245 1.257 1.267 2.625-.663 3.115-1.654.49-.99-.274-4.85-.274-4.85l-1.691.33z" fill="#00343E"/><path d="M12.976 29.93s1.92 5.42 3.023 10.485c1.103 5.065-3.024 13.02-3.024 13.02s-1.61 1.011-3.044-.434c0 0 .636-6.798 1.322-9.765 0 0 .542-1.012-1.322-4.485-1.864-3.472-2.007-4.195-2.007-4.195s-.79-.836-1.003 1.535c-.217 2.371 0 5.77-.717 9.82-.717 4.051-2.007 8.015-2.007 8.015s-2.364 1.093-3.227-.42c0 0 .073-6.149.717-10.415.646-4.266-1.28-7.98-1.645-11.15s1.733-6.677 2.786-7.292l10.147 5.28zm31.817 2.41s-1.26 4.227-1.35 7.791c-.092 3.565 3.247 12.875 3.247 12.875s.983 1.716 3.404.463c0 0 .358-7.594-.409-10.962 0 0-.18-1.53.493-4.755.672-3.222 1.037-3.5 1.162-2.904.125.597.193 6.006.652 8.285.459 2.28 2.398 10.004 2.398 10.004s1.334 1.52 3.495 0c0 0 .102-7.394-.964-11.555 0 0 2.051-13.581-.063-15.408-2.114-1.827-12.065 6.166-12.065 6.166z" fill="#28B482"/><path d="M31.179 14.443s1.196 3.167 1.048 4.234c-.149 1.067 2.497.663 4.261-1.572 1.765-2.234-5.027-2.975-5.027-2.975l-.282.313z" fill="#00323C"/><path d="M37.492 16.062c.936-4.724 5.51-6.374 5.95-6.474 2.315-.529 1.854 1.537 2.722 1.7 1.71.318 4.118 1.927 5.758 5.066.276.53 1.28 2.654 1.6 3.327.148.313.355 1.002.868 1.57.047.052-1.33 1.285-2.763 2.242-1.066.712-2.361 1.39-3.946 1.535-1.126.102-2.935.118-2.925-.245l.03-.339c.025-.857.056-1.364-.494-2.26l-.237-.287c-.02.008-.294.142-.313.153-1.639.707-3.289-.134-4.05-1.362l-.753-1.656c.002-.003-1.859-.899-1.447-2.97z" fill="#007272"/><path d="M42.799 14.03c.803 1.17.592 2.416-.412 3.225-.975.786-2.296.844-3.136-.57-.659-1.11-.982-2.978.102-3.604 1.084-.625 2.06-1.072 3.446.949z" fill="#9AD6CA"/><path d="M36.194 9.514c.75.192.99.741 1.564 1.138.375.26 2.043.558 2.043.558.83.494 1.025 1.558.918 2.557-.11 1.033-.879 1.945-1.288 2.021-.14.027-1.12-.368-1.12-.368-.462 2.43-3.1 2.103-5.086.984-2.62-1.478-3.078-2.676-2.205-5.047.527-1.428 2.502-2.524 5.174-1.843z" fill="#9AD6CA"/><path d="M37.956 9.543a4.439 4.439 0 0 0-3.71-2.229c-3.815-.129-5.773 3.966-4.633 6.43 0 0-.128 1.043.81 1.542.647.345 1.413-.06 1.874-.512.467-.46.863-.857 1.39-1.149.234-.131.664-.376.82-.55 1.001-1.106 1.588-2.565 2.078-1.955 1.314 1.635 2.286 3.273 3.12.634.263-.823-1.423-1.635-1.75-2.211z" fill="#00323C"/><path d="M35.9 9.945s1.48 3.041 1.433 4.12c-.047 1.077 2.312 1.006 3.579-1.549.398-.804-4.113-4.295-4.113-4.295l-.9 1.724z" fill="#00323C"/><path d="M36.916 13.091c-.474.34-1.368-.039-1.856-.733-.487-.694-.498-1.53-.023-1.869.474-.339 1.402-.136 1.74.642.342.783.613 1.621.14 1.96z" fill="#9AD6CA"/><path d="m49.685 13.312-2.617.145 2.038-.668s.17.137.303.258c.12.11.276.265.276.265z" fill="#00575C"/><path d="M31.45 3.813c-.39-.755-.693-1.551-1.095-2.303-.174-.331-.693-.063-.513.263.412.75.912 1.438 1.33 2.182.098.179.375.04.278-.142zm3.85-.755c.047-.914.198-1.819.235-2.736.015-.402-.608-.442-.62-.04-.027.92.062 1.835.046 2.753-.003.22.326.244.339.023zm4.48-1.188c-.52.673-.953 1.43-1.334 2.206-.089.176.083.3.211.155.555-.628 1.017-1.251 1.556-2 .25-.347-.172-.694-.432-.36z" fill="#007272"/><path d="M32.782 15.323s.586 1.58.704 1.935c.117.355 1.024-.434 1.024-.434l-1.728-1.5z" fill="#9AD6CA"/><path d="M9.809 29.5c1.446 0 2.583-.222 2.812-.285.023-.005.039-.029.042-.052l-.024-.802c.104-.055-2.979.78-5.685-.082-2.507-.799-3.97-2.229-4.094-3.89 0 0-.506.676-.454.852.459 1.624 1.817 2.894 4.343 3.7 1.1.35 2.106.558 3.06.558z" fill="#00343E"/><path d="M19.653 19.103c-.873-5.225-4.605-7.489-7.733-5.646-2.166 1.277-3.183 1.948-4.892 3.798-1.39 1.501-2.51 2.193-4.202 7.397-.227.697.946 2.01 2.08 2.76.975.644 2.906 1.325 4.49 1.47 1.127.102 3.082.05 3.267-.26.065-.109.099-.853.099-.853l.253-.762 1.172-1.661c.631-.473 2.7-1.149 2.7-1.149l1.622-.946c0-.003 1.494-2.066 1.144-4.148z" fill="#00575C"/><path d="m21.042 23.511-.078 7.252a1.935 1.935 0 0 1-.039.368l-1.473 3.291-2.267 1.672-.19-5.53a1.017 1.017 0 0 0-.021-.18l-1.608-8.645 2.861-3.524 1.408.312c1.314 1.367 1.41 3.247 1.407 4.984z" fill="#00575C"/><path d="M20.35 12.253c-.73.26-.918.83-1.453 1.28-.351.295-1.983.747-1.983.747-.78.567-.876 1.648-.678 2.633.206 1.018 1.056 1.854 1.468 1.89.143.014 1.081-.47 1.081-.47.683 2.373 3.28 1.803 5.153.502 2.471-1.714 2.818-2.952 1.731-5.23-.654-1.37-2.724-2.28-5.32-1.352z" fill="#fff"/><path d="M18.311 13.96c.388.275 1.066.34 1.796-.07 1.605-.898 1.363.818 2.463 1.825.555.51 1.796.757 1.796.757.198.765.378 1.409 1.251 1.55.576.096 1.188-.05 1.52-.451.677-.823.156-1.72.156-1.72.907-2.56-1.4-6.213-5.187-5.727a4.368 4.368 0 0 0-3.464 2.52c-.271.605-.59 1.131-.331 1.315z" fill="#007272"/><path d="M21.945 14.883c.495-.686.516-1.523.045-1.868-.47-.345-1.253-.068-1.748.619-.496.686-.516 1.523-.046 1.868.47.345 1.253.068 1.749-.619z" fill="#fff"/><path d="M25.99 6.662c.39-.754.693-1.55 1.094-2.303.175-.33.694-.063.514.263-.412.75-.912 1.438-1.33 2.182-.099.176-.372.04-.278-.142zm-4.332-.686c-.05-.886-.201-1.761-.24-2.65-.018-.388.586-.43.6-.041.028.89-.053 1.776-.035 2.668.006.212-.312.236-.325.023zM17.224 4.87c.435.73.774 1.537 1.058 2.352.065.187-.12.286-.23.129-.476-.694-.857-1.367-1.302-2.177-.204-.373.258-.667.474-.305z" fill="#007272"/><path d="M24.282 17.868s-.688 1.848-.823 2.263c-.139.415-1.2-.508-1.2-.508l2.023-1.755z" fill="#fff"/><path d="M19.539 40.415h25.546l-2.349 15.47s-.43 2.439-2.27 2.439H22.39s-1.746-.39-2.025-2.44c-.28-2.047-1.58-15.469-1.58-15.469h.754zm17.903-23.538s-.534 1.511 0 3.54c.535 2.03 1.888 7.287 2.58 8.698.694 1.412 3.194 2.876 3.418 2.826.224-.05 1.017-1.8 1.017-1.8s-1.903-2.364-2.388-3.717c-.485-1.354-.485-5.273-.485-5.273l-4.142-4.274z" fill="#007272"/><path d="M41.227 27.52s-7.69 5.998-8.737 12.895h2.854s2.643-9.686 7.491-12.538c4.848-2.852-1.608-.357-1.608-.357z" fill="#E8E8E8"/><path d="M42.64 30.143s-3.733 2.975-6.11 10.272h4.212s1.01-8.56 4.45-9.986c3.445-1.427-2.552-.286-2.552-.286z" fill="#E8E8E8"/><path d="M44.64 33.11s-2.282 2.177-3.243 7.305h3.062s.217-6.2 2.028-6.952c1.809-.752-1.848-.352-1.848-.352z" fill="#E8E8E8"/><path d="m39.84 27.117 7.1 9.51 9.918-10.45s.769-.75.386-1.79c-.383-1.041-4.63-5.152-4.63-5.152s-.813-.437-1.761 0c-.952.438-11.013 7.883-11.013 7.883z" fill="#00343E"/><path d="m52.862 26.371.157-2.429 2.038-.139.021 2.62-2.216-.052z" fill="#9AD6CA"/><path d="M53.678 28.337c-.964-.888-1.136-2.24-.398-2.96.698-.683 2.755-.428 2.695.844-.05 1.062 1.415 1.78.792 2.466-.623.686-2.124.539-3.089-.35z" fill="#9AD6CA"/><path d="M43.443 9.588s3-.852 4.418-.279c1.418.573 5.562 2.702 7.19 3.817 1.63 1.114.85 10.151 0 11.757 0 0-1.628.5-2.16-.678 0 0-.639-6.287-.495-8.072l-1.543-1.144-4.197-1.322" fill="#007272"/><path d="M17.532 35.6s1.6 1.937 1.819 4.815h3.5s-.25-3.866-2.916-6.555l-2.403 1.74zm2.661-3.267s3.472 2.99 4.09 8.082H28.4s-1.882-8.634-5.855-10.703l-2.353 2.62z" fill="#E8E8E8"/><path d="m24.903 28.056-7.1 9.51-9.918-10.451s-.769-.75-.386-1.79c.386-1.041 4.63-5.152 4.63-5.152s.813-.436 1.761 0c.952.439 11.013 7.883 11.013 7.883z" fill="#00343E"/><path d="m14.023 26.989-1.965-1.42-1.59 1.654 1.983 1.695 1.572-1.93z" fill="#fff"/><path d="M14.852 29.015c.078-1.314-.784-2.408-1.869-2.408-1.03 0-2.395 1.622-1.418 2.495.816.728.235 2.271 1.207 2.329.975.058 2.005-1.102 2.08-2.416z" fill="#fff"/><path d="M15.999 13.218s-2.237-1.125-4.384-.429c-2.145.697-7.082 3.977-7.94 5.42-.857 1.443-1.068 3.549-.292 5.04.777 1.49 2.959 3.871 7.789 4.628 0 0 1.412-.591 1.49-1.971 0 0-3.27-2.952-5.27-4.521 0 0 4.064-2.66 4.708-4.035" fill="#00575C"/><path d="M22.638 40.825c.11-.144.247-.252.375-.368-.094-.515.044-1.075.399-1.582.625-.894 1.931-1.217 2.971-.973.555.132.912.371 1.262.728.242.253.464.637.584.981 0 0 .182-.108.315-.137.756-.252 1.441.058 1.832.647a1.48 1.48 0 0 1 .824-.25c.831 0 1.504.681 1.504 1.517 0 .773-.576 1.404-1.316 1.498a1.688 1.688 0 0 1-.212.155c-.568.326-1.128.418-1.761.34-.032-.003-.058-.014-.09-.02-.351.855-2.494.995-3.002.122 0 0-1.34.591-2.812.09-1.298-.44-1.546-1.854-.873-2.748zm19.772-.605c-.09-.12-.203-.207-.31-.301.078-.424-.036-.884-.325-1.302-.514-.736-1.588-1.001-2.44-.799-.456.108-.748.305-1.038.6-.2.207-.38.523-.48.807 0 0-.15-.09-.26-.113-.62-.208-1.186.047-1.504.53a1.218 1.218 0 0 0-.675-.205 1.24 1.24 0 0 0-1.235 1.247c0 .636.471 1.153 1.081 1.23.063.05.123.097.172.126.467.268.928.344 1.447.278.026-.002.047-.01.073-.015.29.702 2.051.817 2.468.1 0 0 1.103.486 2.312.073 1.064-.36 1.27-1.522.715-2.255zm-20.885-7.55c-.25-.427-.814-.687-1.434-.608a1.59 1.59 0 0 0-.996.51.958.958 0 0 0-.388-.027c-.55.072-.94.579-.87 1.133.07.555.573.95 1.123.878a.944.944 0 0 0 .273-.081c.227.281.605.444 1.014.392a1.15 1.15 0 0 0 .715-.371c.2.147.453.223.716.19a1.013 1.013 0 0 0-.153-2.017zm21-4.349c-.25-.425-.813-.686-1.433-.607a1.59 1.59 0 0 0-.996.51.956.956 0 0 0-.388-.026c-.55.07-.941.578-.871 1.133.07.554.573.949 1.123.878a.941.941 0 0 0 .274-.082c.227.282.605.445 1.014.392.292-.037.54-.176.714-.37.2.146.454.223.717.188.55-.07.941-.578.87-1.132a1.005 1.005 0 0 0-1.024-.884zm5.662 3.141c-.152-.257-.493-.415-.868-.367a.962.962 0 0 0-.602.307.61.61 0 0 0-.761.67.607.607 0 0 0 .68.531.547.547 0 0 0 .164-.05.67.67 0 0 0 .612.237.71.71 0 0 0 .433-.226c.12.09.274.134.435.113a.612.612 0 0 0 .527-.686.608.608 0 0 0-.62-.529z" fill="#fff"/><path d="M36.538 7.598s-2.586-3.312-6.104-.61c-3.52 2.702-1.134 6.17-1.134 6.17l7.238-5.56z" fill="#EFAF9A"/><path d="M35.86 8.952s-1.95 1.742-2.6 2.707c-.65.965-5.14 4.5-5.042 3.761.1-.738 1.288-1.803.978-2.389 0 0 1.032-.647 1.178-1.19 0 0-2.586-3.126-.485-4.987 0 0 .323-.357 1.069-.229 0 0-.303.14-.522.363-.219.224-1.48 1.44.579 4.311 0 0 .341.147 1.011-.365.67-.513 4.684-3.675 4.684-3.675l.495.657-1.345 1.036z" fill="#E6805E"/></svg>